Music_Credits:
	channel_count 4
	channel 1, Music_Credits_Ch1
	channel 2, Music_Credits_Ch2
	channel 3, Music_Credits_Ch3
	channel 4, Music_Credits_Ch4

Music_Credits_Ch1:
	volume 7, 7
	stereo_panning FALSE, TRUE
	duty_cycle 3
	note_type 12, 2, -7
	tempo 69
	octave 2
	note G_, 16
	note G_, 16
	octave 3
	note B_, 12
	note A#, 2
	note A_, 2
	octave 4
	note C_, 8
	note D_, 8
	octave 3
	volume_envelope 13, 7
	note A_, 14
	rest 2
	octave 4
	note D_, 7
	rest 1
	note F#, 7
	rest 1
	note E_, 6
	note D_, 2
	note E_, 6
	note F#, 2
	note D_, 7
	rest 1
	note F#, 7
	rest 1
	note A_, 14
	rest 2
	note F#, 7
	rest 1
	note A_, 7
	rest 1
	note B_, 7
	rest 1
	note F#, 7
	rest 1
	note B_, 14
	rest 2
	note G_, 14
	rest 2
	note E_, 7
	rest 1
	note G_, 7
	rest 1
	note F#, 6
	note E_, 2
	note D_, 6
	note E_, 2
	note F#, 7
	rest 1
	note D_, 7
	rest 1
	octave 5
	volume_envelope 12, 7
	note D_, 1
	rest 1
	octave 4
	note A_, 1
	rest 1
	note F#, 1
	rest 1
	note A_, 1
	rest 1
	octave 5
	note D_, 1
	rest 1
	octave 4
	note A_, 1
	rest 1
	note F#, 1
	rest 1
	note A_, 1
	rest 1
	octave 5
	note D_, 1
	rest 1
	octave 4
	note A_, 1
	rest 1
	note F#, 1
	rest 1
	note A_, 1
	rest 1
	octave 5
	note D_, 1
	rest 1
	note F#, 1
	rest 1
	note A_, 1
	rest 1
	octave 6
	note D_, 1
	rest 5
	octave 3
	note B_, 2
	rest 2
	note A#, 2
	note B_, 2
	rest 2
	note A#, 2
	volume_envelope 9, 7
	note B_, 1
	note A_, 1
	note G_, 1
	note F_, 1
	note E_, 1
	volume_envelope 8, 7
	note D_, 1
	note C_, 1
	octave 2
	note B_, 1
	note A_, 1
	note G_, 1
	note F_, 1
	note E_, 1
	volume_envelope 7, 7
	note D_, 1
	note C_, 1
	octave 1
	note B_, 1
	note A_, 1
	octave 3
	volume_envelope 13, 7
	note A_, 14
	rest 2
	octave 4
	note D_, 7
	rest 1
	note F#, 7
	rest 1
	note E_, 6
	note D_, 2
	note E_, 6
	note F#, 2
	note D_, 7
	rest 1
	note F#, 7
	rest 1
	note A_, 14
	rest 2
	note F#, 7
	rest 1
	note A_, 7
	rest 1
	note B_, 7
	rest 1
	note F#, 7
	rest 1
	note B_, 14
	rest 2
	note G_, 14
	rest 2
	note E_, 7
	rest 1
	note G_, 7
	rest 1
	note F#, 6
	note E_, 2
	note D_, 6
	note E_, 2
	note F#, 6
	note A_, 2
	note D_, 7
	rest 1
	octave 5
	volume_envelope 12, 7
	note D_, 1
	rest 1
	octave 4
	note A_, 1
	rest 1
	note F#, 1
	rest 1
	note A_, 1
	rest 1
	octave 5
	note D_, 1
	rest 1
	octave 4
	note A_, 1
	rest 1
	note F#, 1
	rest 1
	note A_, 1
	rest 1
	octave 5
	note D_, 1
	rest 1
	octave 4
	note A_, 1
	rest 1
	note F#, 1
	rest 1
	note A_, 1
	rest 1
	octave 5
	note D_, 1
	rest 1
	note F#, 1
	rest 1
	note A_, 1
	rest 1
	octave 6
	note D_, 1
	rest 1
	octave 4
	note C_, 4
	octave 3
	note D_, 4
	note G_, 4
	note B_, 8
	octave 4
	note D_, 4
	note C_, 4
	note D#, 4
	octave 3
	note A_, 2
	octave 4
	note E_, 2
	note C_, 2
	note E_, 2
	note D_, 2
	note E_, 2
	note C_, 2
	note E_, 2
	octave 3
	note A_, 2
	octave 4
	note E_, 2
	note D_, 2
	note E_, 2
	note A_, 4
	note B_, 2
	octave 5
	note C_, 2
	octave 4
	note B_, 2
	note G_, 2
	note F_, 2
	note D_, 2
	note G_, 2
	note F_, 2
	note D_, 2
	octave 3
	note B_, 2
	octave 4
	note F_, 2
	note D_, 2
	octave 3
	note B_, 2
	note G_, 2
	note B_, 2
	octave 4
	note D_, 2
	note F_, 2
	note G_, 2
	octave 3
	note G_, 2
	octave 4
	note D_, 2
	octave 3
	note B_, 2
	octave 4
	note D_, 2
	note C_, 2
	note D_, 2
	octave 3
	note B_, 2
	octave 4
	note D_, 2
	octave 3
	note G_, 2
	octave 4
	note D_, 2
	octave 3
	note B_, 2
	octave 4
	note D_, 2
	note G_, 4
	note A_, 2
	note B_, 2
	octave 3
	note A_, 4
	octave 4
	note C_, 4
	note E_, 4
	octave 3
	note G#, 8
	octave 4
	note C_, 8
	note E_, 4
	octave 3
	note A_, 2
	octave 4
	note F_, 2
	note C_, 2
	note F_, 2
	note D_, 2
	note F_, 2
	note C_, 2
	note F_, 2
	octave 3
	note A_, 2
	octave 4
	note F_, 2
	note C_, 2
	note F_, 2
	note D_, 2
	note F_, 2
	note C_, 2
	note F_, 2
	octave 3
	note B_, 2
	octave 4
	note G_, 2
	note D_, 2
	note G_, 2
	note F_, 2
	note G_, 2
	note D_, 2
	note G_, 2
	octave 3
	note B_, 2
	octave 4
	note G_, 2
	note D_, 2
	note G_, 2
	octave 3
	note B_, 2
	octave 4
	note G_, 2
	note D_, 2
	note G_, 2
	octave 3
	note G_, 2
	octave 4
	note D_, 2
	octave 3
	note B_, 2
	octave 4
	note D_, 2
	note E_, 2
	note D_, 2
	octave 3
	note B_, 2
	octave 4
	note D_, 2
	note B_, 2
	note G_, 2
	note D_, 2
	note G_, 2
	note D_, 2
	note G_, 2
	note B_, 2
	note G_, 2
	note A_, 2
	note E_, 2
	note C_, 2
	note E_, 2
	note G#, 2
	note E_, 2
	note C_, 2
	note E_, 2
	note G_, 2
	note E_, 2
	note C_, 2
	note E_, 2
	note F#, 2
	note E_, 2
	note C_, 2
	octave 3
	note B_, 2
	note A_, 2
	octave 4
	note E_, 2
	note C_, 2
	note E_, 2
	note D_, 2
	note E_, 2
	note C_, 2
	note E_, 2
	octave 3
	note A_, 2
	octave 4
	note E_, 2
	note D_, 2
	note E_, 2
	note A_, 4
	note B_, 2
	octave 5
	note C_, 2
	octave 4
	note B_, 2
	note G_, 2
	note F_, 2
	note D_, 2
	note G_, 2
	note F_, 2
	note D_, 2
	octave 3
	note B_, 2
	octave 4
	note F_, 2
	note D_, 2
	octave 3
	note B_, 2
	note G_, 2
	note B_, 2
	octave 4
	note D_, 2
	note F_, 2
	note G_, 2
	octave 3
	note G_, 2
	octave 4
	note D_, 2
	octave 3
	note B_, 2
	octave 4
	note D_, 2
	note C_, 2
	note D_, 2
	octave 3
	note B_, 2
	octave 4
	note D_, 2
	octave 3
	note G_, 2
	octave 4
	note D_, 2
	octave 3
	note B_, 2
	octave 4
	note D_, 2
	note G_, 4
	note A_, 2
	note B_, 2
	octave 3
	note A_, 4
	octave 4
	note C_, 4
	note E_, 4
	octave 3
	note G#, 8
	octave 4
	note C_, 8
	note E_, 4
	octave 3
	note A_, 2
	octave 4
	note F_, 2
	note C_, 2
	note F_, 2
	note D_, 2
	note F_, 2
	note C_, 2
	note F_, 2
	octave 3
	note A_, 2
	octave 4
	note F_, 2
	note C_, 2
	note F_, 2
	note E_, 2
	note F_, 2
	note C_, 2
	note F_, 2
	octave 3
	note A_, 2
	octave 4
	note F#, 2
	note C_, 2
	note F#, 2
	note D_, 2
	note F#, 2
	note C_, 2
	note F#, 2
	note D_, 2
	note F#, 2
	note C_, 2
	note F#, 2
	octave 3
	note A_, 2
	octave 4
	note F#, 2
	note C_, 2
	note F#, 2
	note C_, 2
	note G_, 2
	note D_, 2
	note G_, 2
	note F_, 2
	note G_, 2
	note D_, 2
	note G_, 2
	note F_, 2
	note G_, 2
	note D_, 2
	note G_, 2
	note C_, 2
	note G_, 2
	note D_, 2
	note G_, 2
	octave 3
	note B_, 12
	note A#, 2
	note A_, 2
	note B_, 1
	octave 4
	note C_, 7
	note D_, 8
	octave 5
	note E_, 2
	note C#, 2
	octave 4
	note A_, 2
	note E_, 2
	octave 5
	note C#, 2
	octave 4
	note A_, 2
	note E_, 2
	note C#, 2
	note D_, 8
	note E_, 8
	octave 3
	volume_envelope 13, 7
	note G_, 16
	note G_, 16
	note G_, 14
	rest 2
	note F#, 5
	note G_, 3
	note A_, 3
	note G_, 2
	note F#, 3
	note E_, 3
	note D_, 16
	note D_, 9
	note D_, 2
	note E_, 2
	note D_, 16
	note D_, 6
	rest 2
	note D_, 3
	note E_, 2
	note F#, 3
	note G_, 16
	note G_, 10
	note F#, 2
	note G_, 2
	note A_, 2
	note B_, 7
	rest 1
	note B_, 3
	note B_, 2
	octave 4
	note C_, 3
	octave 3
	note B_, 4
	rest 1
	note A_, 4
	rest 2
	note G_, 3
	rest 2
	octave 5
	volume_envelope 12, 7
	note E_, 1
	rest 1
	octave 4
	note B_, 1
	rest 1
	note G#, 1
	rest 1
	note B_, 1
	rest 1
	octave 5
	note E_, 1
	rest 1
	octave 4
	note B_, 1
	rest 1
	note G#, 1
	rest 1
	note B_, 1
	rest 1
	octave 5
	note E_, 1
	rest 1
	octave 4
	note B_, 1
	rest 1
	note G#, 1
	rest 1
	note B_, 1
	rest 1
	octave 5
	note E_, 1
	rest 1
	note G#, 1
	rest 1
	note B_, 1
	rest 1
	octave 6
	note E_, 1
	rest 1
	octave 4
	note D_, 4
	rest 4
	octave 3
	note A_, 4
	octave 4
	note C#, 8
	note E_, 4
	note D_, 4
	note F_, 4
	octave 3
	note B_, 2
	octave 4
	note F#, 2
	note D_, 2
	note F#, 2
	note E_, 2
	note F#, 2
	note D_, 2
	note F#, 2
	octave 3
	note B_, 2
	octave 4
	note F#, 2
	note E_, 2
	note F#, 2
	note B_, 4
	octave 5
	note C#, 2
	note D_, 2
	note C#, 2
	octave 4
	note A_, 2
	note G_, 2
	note E_, 2
	note A_, 2
	note G_, 2
	note E_, 2
	note C#, 2
	note G_, 2
	note E_, 2
	note C#, 2
	octave 3
	note A_, 2
	octave 4
	note C#, 2
	note E_, 2
	note G_, 2
	note A_, 2
	octave 3
	note A_, 2
	octave 4
	note E_, 2
	note C#, 2
	note E_, 2
	note D_, 2
	note E_, 2
	note C#, 2
	note E_, 2
	octave 3
	note A_, 2
	octave 4
	note E_, 2
	note C#, 2
	note E_, 2
	note A_, 4
	note B_, 2
	octave 5
	note C#, 2
	octave 3
	note B_, 4
	octave 4
	note D_, 4
	note F#, 4
	octave 3
	note A#, 8
	octave 4
	note D_, 8
	note F#, 4
	octave 3
	note B_, 2
	octave 4
	note G_, 2
	note D_, 2
	note G_, 2
	note E_, 2
	note G_, 2
	note D_, 2
	note G_, 2
	octave 3
	note B_, 2
	octave 4
	note G_, 2
	note D_, 2
	note G_, 2
	note F#, 2
	note G_, 2
	note D_, 2
	note G_, 2
	octave 3
	note B_, 2
	octave 4
	note G#, 2
	note D_, 2
	note G#, 2
	note E_, 2
	note G#, 2
	note D_, 2
	note G#, 2
	note E_, 2
	note G#, 2
	note D_, 2
	note G#, 2
	octave 3
	note B_, 2
	octave 4
	note G#, 2
	note D_, 2
	note G#, 2
	note D_, 2
	note A_, 2
	note E_, 2
	note A_, 2
	note G_, 2
	note A_, 2
	note E_, 2
	note A_, 2
	note G_, 2
	note A_, 2
	note E_, 2
	note A_, 2
	note D_, 2
	note A_, 2
	note E_, 2
	note A_, 2
	note C#, 12
	note C_, 2
	octave 3
	note B_, 2
	note A_, 8
	volume_envelope 15, 7
	note B_, 6
	octave 4
	note D_, 2
	note G_, 7
	rest 1
	note D#, 6
	note G_, 2
	note A_, 7
	rest 1
	note G_, 6
	note A_, 2
	note A#, 7
	rest 1
	note A_, 6
	note A#, 2
	note D#, 7
	rest 1
	note D#, 6
	note F_, 2
	note G_, 7
	rest 1
	note D#, 6
	note G_, 2
	note A_, 7
	rest 1
	note G_, 6
	note A_, 2
	note A#, 14
	rest 2
	octave 5
	note D_, 7
	rest 1
	octave 4
	note D#, 6
	note F_, 2
	note G_, 7
	rest 1
	note D#, 6
	note G_, 2
	note A_, 7
	rest 1
	note G_, 6
	note A_, 2
	note A#, 7
	rest 1
	note A_, 6
	note A#, 2
	note D#, 7
	rest 1
	note D#, 6
	note F_, 2
	tempo 71
	note G_, 7
	rest 1
	note D#, 6
	note G_, 2
	note A_, 7
	rest 1
	note G_, 6
	note A_, 2
	note E_, 16
	tempo 73
	note E_, 16
	octave 3
	volume_envelope 12, 7
	note A_, 2
	octave 4
	note D_, 2
	octave 3
	note A_, 2
	octave 4
	note D_, 2
	octave 3
	note A_, 2
	octave 4
	note D_, 2
	octave 3
	note A_, 2
	octave 4
	note D_, 2
	octave 3
	note A_, 2
	octave 4
	note D_, 2
	octave 3
	note A_, 2
	octave 4
	note D_, 2
	note G_, 3
	note G_, 2
	note G#, 3
	octave 3
	tempo 76
	note C_, 2
	note E_, 2
	note G_, 2
	octave 4
	note C_, 2
	octave 3
	note E_, 2
	note G_, 2
	octave 4
	note C_, 2
	note E_, 2
	octave 3
	note G_, 2
	octave 4
	note C_, 2
	note E_, 2
	note G_, 2
	note C_, 3
	note E_, 2
	note G_, 3
	octave 3
	note D_, 2
	note F#, 2
	note A_, 2
	octave 4
	note D_, 2
	octave 3
	note F#, 2
	note A_, 2
	octave 4
	note D_, 2
	note E_, 2
	note F#, 2
	rest 2
	note F#, 2
	rest 2
	note A_, 3
	note A_, 2
	note A_, 3
	octave 2
	tempo 80
	note G_, 2
	rest 6
	note E_, 2
	rest 6
	octave 1
	note G_, 3
	note G_, 2
	note G_, 3
	octave 2
	note C_, 3
	note C_, 2
	note C#, 3
	note D_, 2
	rest 14
	note D_, 16
	rest 16
	sound_ret

Music_Credits_Ch2:
	duty_cycle 1
	vibrato 20, 2, 3
	note_type 12, 12, -7
	stereo_panning TRUE, FALSE
	octave 4
	note G_, 16
	note G_, 16
	octave 5
	note G_, 16
	octave 3
	note G_, 8
	note F_, 8
	octave 2
	note C_, 4
	octave 5
	note G_, 2
	note G_, 2
	note F#, 2
	note G_, 1
	rest 3
	octave 2
	note C_, 2
	note C_, 4
	rest 12
	octave 1
	note B_, 4
	rest 10
	note B_, 2
	note B_, 2
	rest 2
	note B_, 4
	octave 2
	note G_, 2
	octave 1
	note B_, 6
	note A#, 4
	octave 5
	note E_, 2
	note E_, 2
	note D#, 2
	note E_, 1
	rest 3
	octave 1
	note A#, 2
	note A#, 4
	rest 12
	note A_, 4
	rest 10
	note A_, 2
	note A_, 2
	rest 2
	note A_, 4
	octave 2
	note F_, 2
	octave 1
	note A_, 6
	note G#, 4
	octave 5
	note C_, 2
	note C_, 2
	octave 4
	note B_, 2
	octave 5
	note C_, 1
	rest 3
	octave 1
	note G#, 2
	note G#, 4
	rest 12
	note G_, 4
	rest 10
	note G_, 2
	note G_, 2
	rest 2
	note G_, 4
	octave 2
	note E_, 2
	octave 1
	note G_, 6
	note F#, 4
	rest 2
	note F#, 4
	octave 2
	note D_, 2
	octave 1
	note F#, 4
	note A_, 2
	octave 2
	note D_, 2
	note F#, 2
	note A_, 2
	note D_, 2
	note F#, 2
	note A_, 2
	octave 3
	note C_, 2
	octave 1
	note G_, 2
	rest 2
	octave 2
	note G_, 2
	rest 2
	note F#, 2
	note G_, 2
	rest 2
	octave 3
	note C_, 2
	octave 2
	note G_, 2
	rest 2
	note G_, 2
	rest 2
	volume_envelope 8, -7
	note G_, 1
	note F_, 1
	note E_, 1
	note D_, 1
	volume_envelope 7, -7
	note C_, 1
	octave 1
	note B_, 1
	note A_, 1
	note G_, 1
	octave 2
	volume_envelope 12, -7
	note C_, 4
	octave 5
	note G_, 2
	note G_, 2
	note F#, 2
	note G_, 1
	rest 3
	octave 2
	note C_, 2
	note C_, 4
	rest 12
	octave 1
	note B_, 4
	rest 10
	note B_, 2
	note B_, 2
	rest 2
	note B_, 4
	octave 2
	note G_, 2
	octave 1
	note B_, 6
	note A#, 4
	octave 5
	note E_, 2
	note E_, 2
	note D#, 2
	note E_, 1
	rest 3
	octave 1
	note A#, 2
	note A#, 4
	rest 12
	note A_, 4
	rest 10
	note A_, 2
	note A_, 2
	rest 2
	note A_, 4
	octave 2
	note F_, 2
	octave 1
	note A_, 6
	note G#, 4
	octave 5
	note C_, 2
	note C_, 2
	octave 4
	note B_, 2
	octave 5
	note C_, 1
	rest 3
	octave 1
	note G#, 2
	note G#, 4
	rest 12
	note G_, 4
	rest 10
	note G_, 2
	note G_, 2
	rest 2
	note G_, 4
	octave 2
	note E_, 2
	octave 1
	note G_, 6
	note F#, 4
	rest 2
	note F#, 4
	octave 2
	note D_, 2
	octave 1
	note F#, 4
	note A_, 2
	octave 2
	note D_, 2
	note F#, 2
	note A_, 2
	note D_, 2
	note F#, 2
	note A_, 2
	octave 3
	note C_, 2
	octave 1
	note G_, 2
	rest 6
	note G_, 2
	rest 2
	octave 2
	note G_, 12
	note F#, 8
	octave 5
	volume_envelope 11, -7
	note G_, 14
	rest 2
	note F#, 7
	rest 1
	note E_, 7
	rest 1
	note D_, 6
	octave 4
	note B_, 2
	note A_, 6
	note B_, 2
	octave 5
	note D_, 14
	rest 2
	note G_, 14
	rest 2
	note F#, 7
	rest 1
	note E_, 7
	rest 1
	note D_, 6
	note E_, 2
	note F#, 6
	note E_, 2
	note D_, 7
	rest 1
	octave 4
	note B_, 7
	rest 1
	note A_, 14
	rest 2
	octave 5
	note C_, 7
	rest 1
	note E_, 7
	rest 1
	note D_, 6
	octave 4
	note B_, 2
	note G_, 6
	note B_, 2
	octave 5
	note D_, 7
	rest 1
	octave 4
	note B_, 7
	rest 1
	note B_, 14
	rest 2
	note G_, 7
	rest 1
	note A_, 7
	rest 1
	note B_, 11
	rest 1
	octave 5
	note C_, 2
	octave 4
	note B_, 2
	note A_, 16
	octave 5
	note G_, 14
	rest 2
	note F#, 7
	rest 1
	note E_, 7
	rest 1
	note D_, 6
	octave 4
	note B_, 2
	note A_, 6
	note B_, 2
	octave 5
	note D_, 14
	rest 2
	note G_, 14
	rest 2
	note F#, 7
	rest 1
	note E_, 7
	rest 1
	note D_, 6
	note E_, 2
	note F#, 6
	note E_, 2
	note D_, 7
	rest 1
	octave 4
	note B_, 7
	rest 1
	note A_, 14
	rest 2
	octave 5
	note C_, 7
	rest 1
	note E_, 7
	rest 1
	note D_, 6
	octave 4
	note B_, 2
	note G_, 6
	note B_, 2
	octave 5
	note D_, 7
	rest 1
	octave 4
	note B_, 7
	rest 1
	note B_, 14
	rest 2
	note G_, 7
	rest 1
	note A_, 7
	rest 1
	note B_, 11
	rest 1
	octave 5
	note C_, 2
	octave 4
	note B_, 2
	note A_, 16
	octave 5
	volume_envelope 12, -7
	note A_, 2
	note E_, 2
	note C#, 2
	octave 4
	note A_, 2
	octave 5
	note E_, 2
	note C#, 2
	octave 4
	note A_, 2
	note E_, 2
	octave 3
	note A_, 8
	note G_, 8
	octave 2
	note D_, 4
	octave 5
	note A_, 2
	note A_, 2
	note G#, 2
	note A_, 1
	rest 3
	octave 2
	note D_, 2
	note D_, 4
	rest 12
	note C#, 4
	rest 10
	note C#, 2
	note C#, 2
	rest 2
	note C#, 4
	note A_, 2
	note C#, 6
	note C_, 4
	octave 5
	note F#, 2
	note F#, 2
	note F_, 2
	note F#, 1
	rest 3
	octave 2
	note C_, 2
	note C_, 4
	rest 12
	octave 1
	note B_, 4
	rest 10
	note B_, 2
	note B_, 2
	rest 2
	note B_, 4
	octave 2
	note G_, 2
	octave 1
	note B_, 6
	note A#, 4
	octave 5
	note D_, 2
	note D_, 2
	note C#, 2
	note D_, 1
	rest 3
	octave 1
	note A#, 2
	note A#, 4
	rest 12
	note A_, 4
	rest 10
	note A_, 2
	note A_, 2
	rest 2
	note A_, 4
	octave 2
	note F#, 2
	octave 1
	note A_, 6
	note G#, 4
	rest 2
	note G#, 4
	octave 2
	note E_, 2
	octave 1
	note G#, 4
	note B_, 2
	octave 2
	note E_, 2
	note G#, 2
	note B_, 2
	note E_, 2
	note G#, 2
	note B_, 2
	octave 3
	note D_, 2
	octave 1
	note A_, 2
	rest 6
	note A_, 2
	rest 2
	octave 2
	note A_, 12
	note G#, 8
	octave 5
	volume_envelope 5, -7
	note D_, 16
	note D_, 12
	note D_, 2
	note D#, 2
	note D_, 12
	note C_, 2
	octave 4
	note A#, 2
	note A_, 4
	note G_, 4
	note F_, 4
	note G_, 4
	note A_, 16
	note G_, 14
	note A_, 2
	note E_, 16
	note C_, 8
	note C_, 8
	note A#, 16
	note A#, 12
	note A#, 2
	octave 5
	note C_, 2
	octave 4
	note A#, 12
	note G#, 2
	note G_, 2
	note F_, 8
	note D#, 8
	note G_, 14
	note F_, 2
	note F_, 8
	note D#, 8
	note G_, 16
	note G_, 8
	volume_envelope 15, -7
	note G_, 6
	note A_, 2
	note A#, 7
	rest 1
	note A_, 6
	note A#, 2
	octave 5
	note C_, 7
	rest 1
	octave 4
	note A#, 6
	octave 5
	note C_, 2
	note D_, 7
	rest 1
	note C_, 6
	note D_, 2
	octave 4
	note G_, 7
	rest 1
	note G_, 6
	note A_, 2
	note A#, 7
	rest 1
	note A_, 6
	note A#, 2
	octave 5
	note C_, 7
	rest 1
	octave 4
	note A#, 6
	octave 5
	note C_, 2
	note D_, 14
	rest 2
	note G_, 7
	rest 9
	octave 1
	volume_envelope 12, -7
	note D_, 2
	rest 6
	note D_, 2
	rest 6
	note D_, 2
	rest 6
	note D_, 2
	rest 6
	note F#, 2
	rest 6
	note F#, 2
	rest 6
	note F#, 4
	octave 2
	note F#, 2
	rest 2
	octave 1
	note F#, 4
	octave 2
	note F#, 2
	rest 2
	octave 1
	note G_, 4
	octave 2
	note G_, 2
	rest 2
	octave 1
	note G_, 4
	octave 2
	note G_, 2
	rest 2
	octave 1
	note G_, 4
	octave 2
	note G_, 2
	rest 2
	octave 1
	note G_, 4
	octave 2
	note G_, 2
	rest 2
	octave 1
	note A_, 2
	octave 2
	note A_, 2
	note E_, 2
	note A_, 2
	octave 1
	note A_, 2
	octave 2
	note A_, 2
	note E_, 2
	note A_, 2
	octave 1
	note A_, 2
	octave 3
	note C#, 2
	note E_, 2
	note G_, 2
	note E_, 2
	note G_, 2
	note A_, 2
	octave 4
	note C#, 2
	octave 5
	note D_, 16
	note D_, 8
	note C_, 3
	note C_, 2
	note C#, 3
	note D_, 16
	note D_, 8
	note C_, 3
	note C_, 2
	note C#, 3
	note D_, 12
	octave 4
	note F#, 2
	note A_, 2
	octave 5
	note D_, 2
	rest 2
	note D_, 2
	rest 2
	note D_, 3
	note D_, 2
	note D_, 3
	note C_, 2
	rest 6
	note C_, 2
	rest 6
	note C_, 3
	note C_, 2
	note C_, 3
	note C_, 3
	note C_, 2
	note C#, 3
	note D_, 2
	rest 14
	octave 1
	volume_envelope 12, 7
	note D_, 16
	rest 16
	sound_ret

Music_Credits_Ch3:
	vibrato 22, 2, 3
	note_type 12, 3, 4
	stereo_panning TRUE, TRUE
	octave 6
	note G_, 2
	note D_, 2
	note C_, 2
	octave 5
	note G_, 2
	octave 6
	note G_, 2
	note D_, 2
	note C_, 2
	octave 5
	note G_, 2
	octave 6
	volume_envelope 2, 4
	note G_, 2
	note D_, 2
	note C_, 2
	octave 5
	note G_, 2
	octave 6
	note G_, 2
	note D_, 2
	note C_, 2
	octave 5
	note G_, 2
	octave 6
	volume_envelope 1, 4
	note G_, 2
	note D_, 2
	octave 5
	note B_, 2
	note G_, 2
	octave 6
	note D_, 2
	octave 5
	note B_, 2
	note G_, 2
	note D_, 2
	note E_, 8
	note F_, 8
	note D_, 14
	rest 2
	note G_, 7
	rest 1
	note B_, 7
	rest 1
	note A_, 6
	note G_, 2
	note A_, 6
	note B_, 2
	note G_, 7
	rest 1
	note B_, 7
	rest 1
	octave 6
	note D_, 14
	rest 2
	octave 5
	note B_, 7
	rest 1
	octave 6
	note D_, 7
	rest 1
	note E_, 7
	rest 1
	octave 5
	note B_, 7
	rest 1
	octave 6
	note E_, 14
	rest 2
	note C_, 14
	rest 2
	octave 5
	note A_, 7
	rest 1
	octave 6
	note C_, 7
	rest 1
	octave 5
	note B_, 6
	note A_, 2
	note G_, 6
	note A_, 2
	note B_, 7
	rest 1
	note G_, 7
	rest 1
	note A_, 14
	rest 2
	note B_, 7
	rest 1
	octave 6
	note C_, 7
	rest 1
	octave 5
	note B_, 11
	rest 1
	octave 6
	note C_, 2
	octave 5
	note B_, 2
	note A_, 7
	rest 1
	note F#, 6
	note E_, 2
	note D_, 14
	rest 2
	note G_, 7
	rest 1
	note B_, 7
	rest 1
	note A_, 6
	note G_, 2
	note A_, 6
	note B_, 2
	note G_, 7
	rest 1
	note B_, 7
	rest 1
	octave 6
	note D_, 14
	rest 2
	octave 5
	note B_, 7
	rest 1
	octave 6
	note D_, 7
	rest 1
	note E_, 7
	rest 1
	octave 5
	note B_, 7
	rest 1
	octave 6
	note E_, 14
	rest 2
	note C_, 14
	rest 2
	octave 5
	note A_, 7
	rest 1
	octave 6
	note C_, 7
	rest 1
	octave 5
	note B_, 6
	note A_, 2
	note G_, 6
	note A_, 2
	note B_, 6
	octave 6
	note D_, 2
	octave 5
	note G_, 7
	rest 1
	note A_, 7
	rest 1
	note B_, 6
	octave 6
	note C_, 2
	octave 5
	note B_, 6
	note A_, 2
	note D_, 6
	note A_, 2
	note G_, 7
	rest 1
	note D_, 6
	note E_, 1
	note F#, 1
	note G_, 14
	rest 2
	octave 3
	note F_, 4
	rest 2
	note F_, 2
	rest 2
	octave 4
	note C_, 2
	octave 3
	note A_, 2
	note F_, 2
	octave 4
	note C_, 2
	rest 2
	note C_, 2
	rest 2
	octave 3
	note A_, 2
	octave 4
	note C_, 2
	octave 3
	note F_, 2
	note F_, 2
	note G_, 4
	rest 2
	note G_, 2
	rest 2
	octave 4
	note D_, 2
	octave 3
	note B_, 2
	note G_, 2
	octave 4
	note D_, 2
	rest 2
	note D_, 2
	rest 2
	octave 3
	note B_, 2
	octave 4
	note D_, 2
	octave 3
	note G_, 2
	note G_, 2
	note E_, 4
	rest 2
	note E_, 2
	rest 2
	note B_, 2
	note G_, 2
	note E_, 2
	note B_, 2
	rest 2
	note B_, 2
	rest 2
	note G_, 2
	note B_, 2
	note E_, 2
	note E_, 2
	note A_, 4
	rest 2
	note A_, 2
	rest 2
	octave 4
	note E_, 2
	note C_, 2
	octave 3
	note G#, 2
	octave 4
	note C_, 2
	octave 3
	note G#, 2
	rest 2
	note G#, 2
	octave 4
	note C_, 2
	note E_, 2
	note C_, 2
	octave 3
	note A_, 2
	octave 2
	note F_, 4
	rest 2
	note F_, 2
	note F_, 2
	octave 3
	note F_, 2
	rest 2
	octave 2
	note F_, 2
	note F_, 2
	octave 3
	note F_, 2
	octave 2
	note F_, 2
	note F_, 2
	note A_, 2
	octave 3
	note C_, 2
	note E_, 2
	note F_, 2
	octave 2
	note G_, 4
	rest 2
	note G_, 2
	note G_, 2
	octave 3
	note G_, 2
	rest 2
	octave 2
	note G_, 2
	note G_, 2
	octave 3
	note G_, 2
	rest 2
	octave 2
	note G_, 2
	note B_, 2
	octave 3
	note D_, 2
	note F#, 2
	note G_, 2
	octave 2
	note E_, 4
	rest 2
	note E_, 2
	note E_, 2
	octave 3
	note E_, 2
	rest 2
	octave 2
	note E_, 2
	note E_, 2
	octave 3
	note E_, 2
	rest 2
	octave 2
	note E_, 2
	note G#, 2
	note B_, 2
	octave 3
	note D#, 2
	note E_, 2
	octave 2
	note A_, 4
	octave 3
	note E_, 2
	rest 2
	octave 2
	note A_, 2
	octave 3
	note E_, 2
	rest 2
	octave 2
	note A_, 2
	note G#, 2
	octave 3
	note E_, 2
	rest 2
	octave 2
	note G#, 2
	note G_, 4
	octave 3
	note E_, 4
	note F_, 4
	rest 2
	note F_, 2
	rest 2
	octave 4
	note C_, 2
	octave 3
	note A_, 2
	note F_, 2
	octave 4
	note C_, 2
	rest 2
	note C_, 2
	rest 2
	octave 3
	note A_, 2
	octave 4
	note C_, 2
	octave 3
	note F_, 2
	note F_, 2
	note G_, 4
	rest 2
	note G_, 2
	rest 2
	octave 4
	note D_, 2
	octave 3
	note B_, 2
	note G_, 2
	octave 4
	note D_, 2
	rest 2
	note D_, 2
	rest 2
	octave 3
	note B_, 2
	octave 4
	note D_, 2
	octave 3
	note G_, 2
	note G_, 2
	note E_, 4
	rest 2
	note E_, 2
	rest 2
	note B_, 2
	note G_, 2
	note E_, 2
	note B_, 2
	rest 2
	note B_, 2
	rest 2
	note G_, 2
	note B_, 2
	note E_, 2
	note E_, 2
	note A_, 4
	rest 2
	note A_, 2
	rest 2
	octave 4
	note E_, 2
	note C_, 2
	octave 3
	note G#, 2
	octave 4
	note C_, 2
	octave 3
	note G#, 2
	rest 2
	note G#, 2
	octave 4
	note C_, 2
	note E_, 2
	note C_, 2
	octave 3
	note A_, 2
	octave 2
	note F_, 4
	rest 2
	note F_, 2
	note F_, 2
	octave 3
	note F_, 2
	rest 2
	octave 2
	note F_, 2
	note F_, 2
	octave 3
	note F_, 2
	octave 2
	note F_, 2
	note F_, 2
	note A_, 2
	octave 3
	note C_, 2
	note E_, 2
	note F_, 2
	octave 2
	note F#, 4
	rest 2
	note F#, 2
	note F#, 2
	octave 3
	note F#, 2
	rest 2
	octave 2
	note F#, 2
	note F#, 2
	octave 3
	note F#, 2
	rest 2
	octave 2
	note F#, 2
	note A#, 2
	octave 3
	note C#, 2
	note F_, 2
	note F#, 2
	note G_, 8
	octave 4
	note C_, 8
	note D_, 8
	note F_, 8
	octave 6
	note G_, 2
	note D_, 2
	octave 5
	note B_, 2
	note G_, 2
	octave 6
	note D_, 2
	octave 5
	note B_, 2
	note G_, 2
	note D_, 2
	note E_, 8
	note F_, 8
	octave 2
	note A_, 2
	rest 2
	octave 3
	note E_, 2
	rest 2
	note A_, 2
	rest 2
	octave 4
	note C#, 2
	rest 16
	rest 2
	octave 6
	note G_, 16
	note G_, 16
	note G_, 14
	rest 2
	note F#, 5
	note G_, 3
	note A_, 3
	note G_, 2
	note F#, 3
	note E_, 3
	note D_, 16
	note D_, 9
	note D_, 2
	note E_, 2
	note D_, 16
	note D_, 6
	rest 2
	note D_, 3
	note E_, 2
	note F#, 3
	note G_, 16
	note G_, 10
	note F#, 2
	note G_, 2
	note A_, 2
	note B_, 7
	rest 1
	note B_, 3
	note B_, 2
	octave 7
	note C_, 3
	octave 6
	note B_, 4
	rest 1
	note A_, 4
	rest 2
	note G_, 3
	rest 2
	note F#, 2
	note G_, 2
	note F#, 16
	note F#, 8
	note F#, 2
	note E_, 2
	note D_, 16
	note D_, 16
	octave 3
	note G_, 4
	rest 2
	note G_, 2
	rest 2
	octave 4
	note D_, 2
	octave 3
	note B_, 2
	note G_, 2
	octave 4
	note D_, 2
	rest 2
	note D_, 2
	rest 2
	octave 3
	note B_, 2
	octave 4
	note D_, 2
	octave 3
	note G_, 2
	note G_, 2
	note A_, 4
	rest 2
	note A_, 2
	rest 2
	octave 4
	note E_, 2
	note C#, 2
	octave 3
	note A_, 2
	octave 4
	note E_, 2
	rest 2
	note E_, 2
	rest 2
	note C#, 2
	note E_, 2
	octave 3
	note A_, 2
	note A_, 2
	note F#, 4
	rest 2
	note F#, 2
	rest 2
	octave 4
	note C#, 2
	octave 3
	note A_, 2
	note F#, 2
	octave 4
	note C#, 2
	rest 2
	note C#, 2
	rest 2
	octave 3
	note A_, 2
	octave 4
	note C#, 2
	octave 3
	note F#, 2
	note F#, 2
	note B_, 4
	rest 2
	note B_, 2
	rest 2
	octave 4
	note F#, 2
	note D_, 2
	octave 3
	note A#, 2
	octave 4
	note D_, 2
	octave 3
	note A#, 2
	rest 2
	note A#, 2
	octave 4
	note D_, 2
	note F#, 2
	note D_, 2
	octave 3
	note B_, 2
	octave 2
	note G_, 4
	rest 2
	note G_, 2
	note G_, 2
	octave 3
	note G_, 2
	rest 2
	octave 2
	note G_, 2
	note G_, 2
	octave 3
	note G_, 2
	octave 2
	note G_, 2
	note G_, 2
	note B_, 2
	octave 3
	note D_, 2
	note F#, 2
	note G_, 2
	octave 2
	note G#, 4
	rest 2
	note G#, 2
	note G#, 2
	octave 3
	note G#, 2
	rest 2
	octave 2
	note G#, 2
	note G#, 2
	octave 3
	note G#, 2
	rest 2
	octave 2
	note G#, 2
	octave 3
	note C_, 2
	note D#, 2
	note G_, 2
	note G#, 2
	note A_, 8
	octave 4
	note D_, 8
	note E_, 8
	note G_, 8
	octave 6
	note A_, 2
	note E_, 2
	note C#, 2
	octave 5
	note A_, 2
	octave 6
	note E_, 2
	note C#, 2
	octave 5
	note A_, 2
	note E_, 2
	octave 6
	note C#, 2
	octave 5
	note A_, 2
	note E_, 2
	note C#, 2
	note A_, 2
	note E_, 2
	octave 2
	note D_, 2
	note D_, 2
	note D_, 16
	note D_, 16
	note F#, 16
	note F#, 16
	note G_, 16
	note G_, 16
	note G_, 16
	note A_, 8
	octave 5
	note G_, 6
	note A#, 2
	note A#, 7
	rest 1
	note A_, 6
	note A#, 2
	octave 6
	note C_, 7
	rest 1
	octave 5
	note A#, 6
	octave 6
	note C_, 2
	note D_, 7
	rest 1
	note C_, 6
	note D_, 2
	octave 5
	note G_, 7
	rest 1
	note G_, 6
	note A_, 2
	note A#, 7
	rest 1
	note A_, 6
	note A#, 2
	octave 6
	note C_, 7
	rest 1
	octave 5
	note A#, 6
	octave 6
	note C_, 2
	octave 5
	note A_, 16
	note A_, 16
	octave 4
	note D_, 16
	note D_, 6
	rest 2
	note D_, 6
	note F#, 2
	note A_, 2
	rest 2
	octave 5
	note D_, 2
	rest 2
	note C#, 2
	rest 2
	octave 4
	note B_, 2
	rest 2
	note A_, 8
	note F#, 6
	note A_, 2
	note G_, 8
	note E_, 6
	note F#, 2
	note E_, 8
	note F#, 6
	note E_, 2
	note D_, 16
	note D_, 8
	sound_ret

Music_Credits_Ch4:
	toggle_noise 3
	drum_speed 12
	drum_note 11, 2
	drum_note 11, 2
	drum_note 11, 2
	drum_note 11, 2
	drum_note 11, 2
	drum_note 11, 2
	drum_note 11, 2
	drum_note 11, 2
	drum_note 11, 2
	drum_note 11, 2
	drum_note 11, 2
	drum_note 11, 2
	drum_note 11, 2
	drum_note 11, 2
	drum_note 11, 2
	drum_note 11, 2
	drum_note 11, 2
	drum_note 11, 2
	drum_note 2, 4
	drum_note 11, 2
	drum_note 11, 2
	drum_note 11, 2
	drum_note 11, 2
	drum_note 6, 8
	drum_note 6, 8
	drum_note 11, 2
	drum_note 11, 2
	drum_note 11, 2
	drum_note 11, 2
	drum_note 11, 2
	drum_note 11, 2
	drum_note 11, 2
	drum_note 11, 2
	drum_note 11, 2
	drum_note 11, 2
	drum_note 11, 2
	drum_note 11, 2
	drum_note 11, 2
	drum_note 11, 2
	drum_note 11, 2
	drum_note 11, 2
	drum_note 11, 2
	drum_note 11, 2
	drum_note 11, 2
	drum_note 11, 2
	drum_note 11, 2
	drum_note 11, 2
	drum_note 11, 2
	drum_note 11, 2
	drum_note 11, 2
	drum_note 11, 2
	drum_note 11, 2
	drum_note 11, 2
	drum_note 2, 8
	drum_note 11, 2
	drum_note 11, 2
	drum_note 11, 2
	drum_note 11, 2
	drum_note 11, 2
	drum_note 11, 2
	drum_note 11, 2
	drum_note 11, 2
	drum_note 11, 2
	drum_note 11, 2
	drum_note 11, 2
	drum_note 11, 2
	drum_note 11, 2
	drum_note 11, 2
	drum_note 11, 2
	drum_note 11, 2
	drum_note 11, 2
	drum_note 11, 2
	drum_note 11, 2
	drum_note 11, 2
	drum_note 11, 2
	drum_note 11, 2
	drum_note 11, 2
	drum_note 11, 2
	drum_note 11, 2
	drum_note 11, 2
	drum_note 11, 2
	drum_note 11, 2
	drum_note 2, 8
	drum_note 11, 2
	drum_note 11, 2
	drum_note 11, 2
	drum_note 11, 2
	drum_note 11, 2
	drum_note 11, 2
	drum_note 11, 2
	drum_note 11, 2
	drum_note 11, 2
	drum_note 11, 2
	drum_note 11, 2
	drum_note 11, 2
	drum_note 11, 2
	drum_note 11, 2
	drum_note 11, 2
	drum_note 11, 2
	drum_note 11, 2
	drum_note 11, 2
	drum_note 11, 2
	drum_note 11, 2
	drum_note 11, 2
	drum_note 11, 2
	drum_note 11, 2
	drum_note 11, 2
	drum_note 11, 2
	drum_note 11, 2
	drum_note 11, 2
	drum_note 11, 2
	drum_note 2, 8
	drum_note 11, 2
	drum_note 11, 2
	drum_note 11, 2
	drum_note 11, 2
	drum_note 11, 2
	drum_note 11, 2
	drum_note 11, 2
	drum_note 11, 2
	drum_note 11, 2
	drum_note 11, 2
	drum_note 11, 2
	drum_note 11, 2
	drum_note 11, 2
	drum_note 11, 2
	drum_note 11, 2
	drum_note 11, 2
	drum_note 11, 2
	drum_note 11, 2
	drum_note 11, 2
	drum_note 11, 2
	drum_note 2, 8
	drum_note 11, 2
	drum_note 11, 2
	drum_note 11, 2
	drum_note 11, 2
	drum_note 11, 2
	drum_note 11, 2
	drum_note 6, 2
	drum_note 11, 2
	drum_note 11, 2
	drum_note 11, 2
	drum_note 11, 2
	drum_note 11, 2
	drum_note 11, 2
	drum_note 11, 2
	drum_note 11, 2
	drum_note 11, 2
	drum_note 11, 2
	drum_note 11, 2
	drum_note 11, 2
	drum_note 11, 2
	drum_note 11, 2
	drum_note 11, 2
	drum_note 11, 2
	drum_note 11, 2
	drum_note 11, 2
	drum_note 11, 2
	drum_note 11, 2
	drum_note 11, 2
	drum_note 11, 2
	drum_note 11, 2
	drum_note 11, 2
	drum_note 11, 2
	drum_note 11, 2
	drum_note 11, 2
	drum_note 11, 2
	drum_note 11, 2
	drum_note 2, 8
	drum_note 11, 2
	drum_note 11, 2
	drum_note 11, 2
	drum_note 11, 2
	drum_note 11, 2
	drum_note 11, 2
	drum_note 11, 2
	drum_note 11, 2
	drum_note 11, 2
	drum_note 11, 2
	drum_note 11, 2
	drum_note 11, 2
	drum_note 11, 2
	drum_note 11, 2
	drum_note 11, 2
	drum_note 11, 2
	drum_note 11, 2
	drum_note 11, 2
	drum_note 11, 2
	drum_note 11, 2
	drum_note 11, 2
	drum_note 11, 2
	drum_note 11, 2
	drum_note 11, 2
	drum_note 11, 2
	drum_note 11, 2
	drum_note 11, 2
	drum_note 11, 2
	drum_note 2, 8
	drum_note 11, 2
	drum_note 11, 2
	drum_note 11, 2
	drum_note 11, 2
	drum_note 11, 2
	drum_note 11, 2
	drum_note 11, 2
	drum_note 11, 2
	drum_note 11, 2
	drum_note 11, 2
	drum_note 11, 2
	drum_note 11, 2
	drum_note 11, 2
	drum_note 11, 2
	drum_note 11, 2
	drum_note 11, 2
	drum_note 11, 2
	drum_note 11, 2
	drum_note 11, 2
	drum_note 11, 2
	drum_note 11, 2
	drum_note 11, 2
	drum_note 11, 2
	drum_note 11, 2
	drum_note 11, 2
	drum_note 11, 2
	drum_note 11, 2
	drum_note 11, 2
	drum_note 2, 8
	drum_note 11, 2
	drum_note 11, 2
	drum_note 11, 2
	drum_note 11, 2
	drum_note 11, 2
	drum_note 11, 2
	drum_note 11, 2
	drum_note 11, 2
	drum_note 11, 2
	drum_note 11, 2
	drum_note 11, 2
	drum_note 11, 2
	drum_note 11, 2
	drum_note 11, 2
	drum_note 11, 2
	drum_note 11, 2
	drum_note 11, 2
	drum_note 11, 2
	drum_note 11, 2
	drum_note 11, 2
	drum_note 2, 8
	drum_note 11, 2
	drum_note 11, 2
	drum_note 11, 2
	drum_note 11, 2
	drum_note 11, 2
	drum_note 11, 2
	drum_note 6, 2
	drum_note 11, 2
	drum_note 6, 4
	drum_note 11, 2
	drum_note 11, 2
	drum_note 11, 2
	drum_note 9, 2
	drum_note 11, 2
	drum_note 11, 2
	drum_note 6, 4
	drum_note 11, 2
	drum_note 11, 2
	drum_note 11, 4
	drum_note 2, 4
	drum_note 6, 4
	drum_note 11, 2
	drum_note 11, 2
	drum_note 11, 2
	drum_note 9, 2
	drum_note 11, 2
	drum_note 11, 2
	drum_note 6, 4
	drum_note 11, 2
	drum_note 11, 2
	drum_note 11, 4
	drum_note 2, 4
	drum_note 6, 4
	drum_note 11, 2
	drum_note 11, 2
	drum_note 11, 2
	drum_note 9, 2
	drum_note 11, 2
	drum_note 11, 2
	drum_note 6, 4
	drum_note 11, 2
	drum_note 11, 2
	drum_note 11, 4
	drum_note 2, 4
	drum_note 6, 4
	drum_note 11, 2
	drum_note 11, 2
	drum_note 11, 2
	drum_note 9, 2
	drum_note 11, 2
	drum_note 11, 2
	drum_note 6, 4
	drum_note 11, 2
	drum_note 11, 2
	drum_note 11, 4
	drum_note 2, 4
	drum_note 6, 4
	drum_note 11, 2
	drum_note 11, 2
	drum_note 11, 2
	drum_note 9, 2
	drum_note 11, 2
	drum_note 11, 2
	drum_note 6, 4
	drum_note 11, 2
	drum_note 11, 2
	drum_note 11, 4
	drum_note 2, 4
	drum_note 6, 4
	drum_note 11, 2
	drum_note 11, 2
	drum_note 11, 2
	drum_note 9, 2
	drum_note 11, 2
	drum_note 11, 2
	drum_note 6, 4
	drum_note 11, 2
	drum_note 11, 2
	drum_note 11, 4
	drum_note 2, 4
	drum_note 6, 4
	drum_note 11, 2
	drum_note 11, 2
	drum_note 11, 2
	drum_note 9, 2
	drum_note 11, 2
	drum_note 11, 2
	drum_note 6, 4
	drum_note 11, 2
	drum_note 11, 2
	drum_note 11, 4
	drum_note 2, 4
	drum_note 11, 2
	drum_note 11, 2
	drum_note 11, 2
	drum_note 11, 2
	drum_note 11, 2
	drum_note 11, 2
	drum_note 2, 4
	drum_note 11, 2
	drum_note 11, 2
	drum_note 11, 2
	drum_note 11, 2
	drum_note 9, 2
	drum_note 9, 2
	drum_note 11, 2
	drum_note 11, 2
	drum_note 6, 4
	drum_note 11, 2
	drum_note 11, 2
	drum_note 11, 2
	drum_note 9, 2
	drum_note 11, 2
	drum_note 11, 2
	drum_note 6, 4
	drum_note 11, 2
	drum_note 11, 2
	drum_note 11, 4
	drum_note 2, 4
	drum_note 6, 4
	drum_note 11, 2
	drum_note 11, 2
	drum_note 11, 2
	drum_note 9, 2
	drum_note 11, 2
	drum_note 11, 2
	drum_note 6, 4
	drum_note 11, 2
	drum_note 11, 2
	drum_note 11, 4
	drum_note 2, 4
	drum_note 6, 4
	drum_note 11, 2
	drum_note 11, 2
	drum_note 11, 2
	drum_note 9, 2
	drum_note 11, 2
	drum_note 11, 2
	drum_note 6, 4
	drum_note 11, 2
	drum_note 11, 2
	drum_note 11, 4
	drum_note 2, 4
	drum_note 6, 4
	drum_note 11, 2
	drum_note 11, 2
	drum_note 11, 2
	drum_note 9, 2
	drum_note 11, 2
	drum_note 11, 2
	drum_note 6, 4
	drum_note 11, 2
	drum_note 11, 2
	drum_note 11, 4
	drum_note 2, 4
	drum_note 6, 4
	drum_note 11, 2
	drum_note 11, 2
	drum_note 11, 2
	drum_note 9, 2
	drum_note 11, 2
	drum_note 11, 2
	drum_note 6, 4
	drum_note 11, 2
	drum_note 11, 2
	drum_note 11, 4
	drum_note 2, 4
	drum_note 6, 4
	drum_note 11, 2
	drum_note 11, 2
	drum_note 11, 2
	drum_note 9, 2
	drum_note 11, 2
	drum_note 11, 2
	drum_note 6, 4
	drum_note 11, 2
	drum_note 11, 2
	drum_note 11, 4
	drum_note 2, 4
	drum_note 6, 4
	drum_note 11, 2
	drum_note 11, 2
	drum_note 11, 2
	drum_note 9, 2
	drum_note 11, 2
	drum_note 11, 2
	drum_note 6, 4
	drum_note 11, 2
	drum_note 11, 2
	drum_note 11, 4
	drum_note 2, 4
	drum_note 11, 2
	drum_note 11, 2
	drum_note 2, 4
	drum_note 11, 2
	drum_note 11, 2
	drum_note 11, 2
	drum_note 11, 2
	drum_note 6, 8
	drum_note 6, 8
	drum_note 11, 2
	drum_note 11, 2
	drum_note 2, 4
	drum_note 11, 2
	drum_note 11, 2
	drum_note 2, 4
	drum_note 6, 8
	drum_note 6, 8
	drum_note 11, 2
	drum_note 11, 2
	drum_note 11, 2
	drum_note 11, 2
	drum_note 11, 2
	drum_note 11, 2
	drum_note 11, 2
	drum_note 11, 2
	drum_note 11, 2
	drum_note 11, 2
	drum_note 11, 2
	drum_note 11, 2
	drum_note 11, 2
	drum_note 11, 2
	drum_note 11, 2
	drum_note 11, 2
	drum_note 11, 2
	drum_note 11, 2
	drum_note 11, 2
	drum_note 11, 2
	drum_note 11, 2
	drum_note 11, 2
	drum_note 11, 2
	drum_note 11, 2
	drum_note 11, 2
	drum_note 11, 2
	drum_note 11, 2
	drum_note 11, 2
	drum_note 2, 8
	drum_note 11, 2
	drum_note 11, 2
	drum_note 11, 2
	drum_note 11, 2
	drum_note 11, 2
	drum_note 11, 2
	drum_note 11, 2
	drum_note 11, 2
	drum_note 11, 2
	drum_note 11, 2
	drum_note 11, 2
	drum_note 11, 2
	drum_note 11, 2
	drum_note 11, 2
	drum_note 11, 2
	drum_note 11, 2
	drum_note 11, 2
	drum_note 11, 2
	drum_note 11, 2
	drum_note 11, 2
	drum_note 11, 2
	drum_note 11, 2
	drum_note 11, 2
	drum_note 11, 2
	drum_note 11, 2
	drum_note 11, 2
	drum_note 11, 2
	drum_note 11, 2
	drum_note 2, 8
	drum_note 11, 2
	drum_note 11, 2
	drum_note 11, 2
	drum_note 11, 2
	drum_note 11, 2
	drum_note 11, 2
	drum_note 11, 2
	drum_note 11, 2
	drum_note 11, 2
	drum_note 11, 2
	drum_note 11, 2
	drum_note 11, 2
	drum_note 11, 2
	drum_note 11, 2
	drum_note 11, 2
	drum_note 11, 2
	drum_note 11, 2
	drum_note 11, 2
	drum_note 11, 2
	drum_note 11, 2
	drum_note 11, 2
	drum_note 11, 2
	drum_note 11, 2
	drum_note 11, 2
	drum_note 11, 2
	drum_note 11, 2
	drum_note 11, 2
	drum_note 11, 2
	drum_note 2, 8
	drum_note 11, 2
	drum_note 11, 2
	drum_note 11, 2
	drum_note 11, 2
	drum_note 11, 2
	drum_note 11, 2
	drum_note 11, 2
	drum_note 11, 2
	drum_note 11, 2
	drum_note 11, 2
	drum_note 11, 2
	drum_note 11, 2
	drum_note 11, 2
	drum_note 11, 2
	drum_note 11, 2
	drum_note 11, 2
	drum_note 11, 2
	drum_note 11, 2
	drum_note 11, 2
	drum_note 11, 2
	drum_note 2, 8
	drum_note 11, 2
	drum_note 11, 2
	drum_note 11, 2
	drum_note 11, 2
	drum_note 11, 2
	drum_note 11, 2
	drum_note 6, 2
	drum_note 11, 2
	drum_note 6, 4
	drum_note 11, 2
	drum_note 11, 2
	drum_note 11, 2
	drum_note 9, 2
	drum_note 11, 2
	drum_note 11, 2
	drum_note 6, 4
	drum_note 11, 2
	drum_note 11, 2
	drum_note 11, 4
	drum_note 2, 4
	drum_note 6, 4
	drum_note 11, 2
	drum_note 11, 2
	drum_note 11, 2
	drum_note 9, 2
	drum_note 11, 2
	drum_note 11, 2
	drum_note 6, 4
	drum_note 11, 2
	drum_note 11, 2
	drum_note 11, 4
	drum_note 2, 4
	drum_note 6, 4
	drum_note 11, 2
	drum_note 11, 2
	drum_note 11, 2
	drum_note 9, 2
	drum_note 11, 2
	drum_note 11, 2
	drum_note 6, 4
	drum_note 11, 2
	drum_note 11, 2
	drum_note 11, 4
	drum_note 2, 4
	drum_note 6, 4
	drum_note 11, 2
	drum_note 11, 2
	drum_note 11, 2
	drum_note 9, 2
	drum_note 11, 2
	drum_note 11, 2
	drum_note 6, 4
	drum_note 11, 2
	drum_note 11, 2
	drum_note 11, 4
	drum_note 2, 4
	drum_note 6, 4
	drum_note 11, 2
	drum_note 11, 2
	drum_note 11, 2
	drum_note 9, 2
	drum_note 11, 2
	drum_note 11, 2
	drum_note 6, 4
	drum_note 11, 2
	drum_note 11, 2
	drum_note 11, 4
	drum_note 2, 4
	drum_note 6, 4
	drum_note 11, 2
	drum_note 11, 2
	drum_note 11, 2
	drum_note 9, 2
	drum_note 11, 2
	drum_note 11, 2
	drum_note 6, 4
	drum_note 11, 2
	drum_note 11, 2
	drum_note 11, 4
	drum_note 2, 4
	drum_note 6, 4
	drum_note 11, 2
	drum_note 11, 2
	drum_note 11, 2
	drum_note 9, 2
	drum_note 11, 2
	drum_note 11, 2
	drum_note 6, 4
	drum_note 11, 2
	drum_note 11, 2
	drum_note 11, 4
	drum_note 2, 4
	drum_note 11, 2
	drum_note 11, 2
	drum_note 2, 4
	drum_note 11, 2
	drum_note 11, 2
	drum_note 11, 2
	drum_note 11, 2
	drum_note 9, 12
	drum_note 11, 1
	drum_note 11, 2
	drum_note 11, 1
	drum_note 2, 1
	rest 16
	rest 16
	rest 16
	rest 15
	drum_note 2, 1
	rest 16
	rest 15
	drum_note 2, 16
	drum_note 2, 16
	drum_note 2, 1
	rest 16
	rest 16
	rest 16
	rest 15
	drum_note 2, 1
	rest 16
	rest 15
	drum_note 2, 16
	drum_note 2, 12
	drum_note 11, 2
	drum_note 11, 2
	drum_note 2, 1
	rest 16
	rest 7
	drum_note 11, 3
	drum_note 11, 2
	drum_note 11, 3
	drum_note 2, 1
	rest 16
	rest 7
	drum_note 11, 3
	drum_note 11, 2
	drum_note 11, 3
	drum_note 2, 16
	drum_note 11, 2
	drum_note 9, 2
	drum_note 11, 2
	drum_note 9, 2
	drum_note 11, 3
	drum_note 11, 2
	drum_note 11, 3
	drum_note 11, 2
	drum_note 9, 6
	drum_note 11, 2
	drum_note 9, 6
	drum_note 11, 3
	drum_note 11, 2
	drum_note 11, 3
	drum_note 11, 3
	drum_note 11, 2
	drum_note 11, 3
	drum_note 11, 2
	drum_note 9, 14
	drum_note 11, 2
	drum_note 9, 16
	drum_note 9, 16
	drum_note 9, 2
	sound_ret
