Music_Undertale:
	channel_count 4
	channel 1, Music_Undertale_Ch1
	channel 2, Music_Undertale_Ch2
	channel 3, Music_Undertale_Ch3
	channel 4, Music_Undertale_Ch4

Music_Undertale_Ch1:
	volume 7, 7
	note_type 12, 10, -1
	tempo 152
	octave 4
	duty_cycle 0
	vibrato 0, 0, 0
	note C_, 2
	note D_, 2
	note E_, 2
	note C_, 2
	note F_, 6
	note E_, 2
	note F_, 2
	note E_, 2
	note D_, 10
	octave 3
	note B_, 2
	octave 4
	note C_, 4
	note D_, 4
	note E_, 4
	note E_, 2
	note E_, 2
	note E_, 2
	note D_, 4
	note C_, 8
	rest 10
	octave 3
	duty_cycle 1
	note A_, 4
	note A_, 4
	octave 4
	note E_, 2
	note E_, 2
	note F_, 2
	note E_, 2
	rest 2
	octave 3
	note A_, 4
	note A_, 2
	octave 4
	note E_, 2
	note E_, 2
	note F_, 2
	note E_, 2
	octave 3
	note A_, 4
	note A_, 4
	octave 4
	note E_, 2
	note E_, 2
	note F_, 2
	note E_, 2
	rest 2
	note C_, 2
	note C_, 2
	octave 3
	note A_, 2
	octave 4
	note C_, 2
	octave 3
	note A_, 2
	octave 4
	note C_, 4
	rest 2
	octave 3
	note G_, 2
	note A_, 2
	note G_, 2
	note A_, 2
	note A_, 2
	rest 2
	note A_, 2
	octave 4
	note C_, 2
	octave 3
	note A_, 2
	note G_, 2
	note A_, 2
	note G_, 6
	rest 4
	note A_, 2
	note A_, 2
	note G_, 2
	note A_, 2
	note G_, 2
	note A_, 2
	note G_, 2
	octave 4
	note C_, 2
	octave 3
	note A_, 2
	note G_, 2
	note A_, 2
	note G_, 2
	note E_, 2
	note G_, 2
	note A_, 2
	note A_, 6
	rest 10
	octave 4
	note E_, 4
	note C_, 4
	octave 3
	note A_, 2
	note E_, 2
	note G_, 2
	note A_, 2
	note A_, 6
	rest 16
	rest 12
	octave 4
	note C_, 2
	note C_, 2
	octave 3
	note A_, 2
	octave 4
	note C_, 2
	note C_, 2
	rest 2
	octave 3
	note A_, 2
	octave 4
	note C_, 2
	note C_, 2
	octave 3
	note A_, 2
	octave 4
	note C_, 2
	octave 3
	note G_, 6
	rest 4
	octave 4
	note C_, 2
	note C_, 2
	octave 3
	note A_, 2
	octave 4
	note C_, 2
	note C_, 2
	note C_, 2
	octave 3
	note A_, 2
	octave 4
	note C_, 2
	note C_, 2
	octave 3
	note A_, 2
	note A_, 2
	note G_, 2
	octave 4
	note E_, 2
	note D_, 2
	note E_, 2
	note E_, 6
	rest 10
	note E_, 4
	note C_, 4
	octave 3
	note A_, 2
	note E_, 2
	note G_, 2
	note A_, 2
	note A_, 6
	rest 16
	rest 12
	note A_, 1
	note A_, 1
	note E_, 1
	note E_, 1
	note F_, 1
	note F_, 1
	note E_, 1
	rest 9
	octave 2
	note A_, 1
	rest 1
	note A_, 1
	note A_, 1
	octave 3
	note E_, 1
	rest 1
	note F_, 1
	rest 1
	note E_, 1
	rest 7
	octave 2
	note A_, 1
	rest 1
	note A_, 1
	rest 1
	octave 3
	note E_, 1
	rest 1
	note F_, 1
	rest 1
	note E_, 1
	rest 1
	octave 4
	note C_, 1
	rest 1
	note C_, 1
	rest 1
	octave 3
	note B_, 1
	rest 3
	note A_, 1
	rest 1
	note G_, 1
	rest 11
	octave 4
	note A_, 2
	note A_, 2
	note A_, 2
	note A_, 2
	note A_, 4
	note A_, 2
	note G_, 2
	note G_, 2
	note G_, 2
	note D_, 4
	note D_, 2
	note D_, 2
	note E_, 4
	note E_, 2
	note E_, 2
	note E_, 2
	note G_, 4
	note D_, 2
	note D_, 2
	note C_, 6
	rest 2
	duty_cycle 0
	note C_, 2
	note D_, 2
	note E_, 2
	note C_, 2
	note F_, 2
	duty_cycle 1
	note A_, 2
	note A_, 2
	note A_, 2
	note A_, 2
	note A_, 4
	note A_, 2
	note G_, 2
	note G_, 2
	note G_, 2
	note D_, 4
	note D_, 2
	note D_, 2
	note D#, 4
	note D#, 2
	note D#, 2
	note D#, 2
	note G#, 4
	note D_, 2
	note D_, 2
	note C_, 6
	rest 10
	octave 3
	note A_, 4
	note A_, 4
	octave 4
	note E_, 2
	note E_, 2
	note F_, 2
	note E_, 2
	rest 2
	octave 3
	note A_, 4
	note A_, 2
	octave 4
	note E_, 2
	note E_, 2
	note F_, 2
	note E_, 2
	octave 3
	note A_, 4
	note A_, 4
	octave 4
	note E_, 2
	note E_, 2
	note F_, 2
	note E_, 2
	rest 2
	note C_, 2
	note C_, 2
	octave 3
	note A_, 2
	octave 4
	note C_, 2
	octave 3
	note A_, 2
	octave 4
	note C_, 4
	rest 2
	octave 3
	note G_, 2
	note A_, 2
	note G_, 2
	note A_, 2
	note A_, 2
	rest 2
	note A_, 2
	octave 4
	note C_, 2
	octave 3
	note A_, 2
	note G_, 2
	note A_, 2
	note G_, 6
	rest 4
	octave 4
	note C_, 2
	note C_, 2
	octave 3
	note A_, 2
	octave 4
	note C_, 2
	note C_, 2
	note C_, 2
	octave 3
	note A_, 2
	octave 4
	note C_, 2
	octave 3
	note A_, 2
	note G_, 2
	note A_, 2
	note G_, 2
	note E_, 2
	note G_, 2
	note A_, 2
	note A_, 6
	rest 10
	octave 4
	note E_, 4
	note C_, 4
	octave 3
	note A_, 2
	note E_, 2
	note G_, 2
	note A_, 2
	note A_, 6
	rest 16
	rest 12
	octave 4
	note C_, 2
	note C_, 2
	octave 3
	note A_, 2
	octave 4
	note C_, 2
	note C_, 4
	octave 3
	note A_, 2
	octave 4
	note C_, 2
	note C_, 2
	octave 3
	note A_, 2
	octave 4
	note C_, 2
	octave 3
	note G_, 6
	rest 4
	octave 4
	note C_, 2
	note C_, 2
	octave 3
	note A_, 2
	octave 4
	note C_, 2
	note C_, 2
	note C_, 2
	octave 3
	note A_, 2
	octave 4
	note C_, 2
	octave 3
	note A_, 2
	note A_, 2
	note A_, 2
	note G_, 2
	octave 4
	note E_, 2
	note D_, 2
	note E_, 2
	note E_, 6
	rest 10
	note E_, 4
	note C_, 4
	octave 3
	note A_, 2
	note E_, 2
	note G_, 2
	note A_, 2
	note A_, 6
	rest 16
	rest 12
	note A_, 1
	note A_, 1
	note E_, 1
	note E_, 1
	note F_, 1
	note F_, 1
	note E_, 1
	rest 9
	octave 2
	note A_, 1
	rest 1
	note A_, 1
	note A_, 1
	octave 3
	note E_, 1
	rest 1
	note F_, 1
	rest 1
	note E_, 1
	rest 6
	octave 2
	note A_, 1
	rest 1
	note A_, 1
	rest 2
	octave 3
	note E_, 1
	rest 1
	note F_, 1
	rest 1
	note E_, 1
	rest 1
	octave 4
	note C_, 1
	rest 1
	note C_, 1
	rest 1
	octave 3
	note B_, 1
	rest 3
	note A_, 1
	rest 1
	note G_, 1
	rest 11
	octave 4
	note A_, 2
	note A_, 2
	note A_, 2
	note A_, 2
	note A_, 4
	note A_, 2
	note G_, 2
	note G_, 2
	note G_, 2
	note D_, 4
	note D_, 2
	note D_, 2
	note E_, 4
	note E_, 2
	note E_, 2
	note E_, 2
	note G_, 4
	note D_, 2
	note D_, 2
	note C_, 6
	rest 2
	duty_cycle 0
	note C_, 2
	note D_, 2
	note E_, 2
	note C_, 2
	note F_, 2
	duty_cycle 1
	note A_, 2
	note A_, 2
	note A_, 2
	note A_, 2
	note A_, 4
	note A_, 2
	note G_, 2
	note G_, 2
	note G_, 2
	note D_, 4
	note D_, 2
	note D_, 2
	note D#, 4
	note D#, 2
	note D#, 2
	note D#, 2
	note G#, 4
	note D_, 2
	note D_, 2
	note C_, 6
	rest 2
	duty_cycle 0
	note C_, 2
	note D_, 2
	note E_, 2
	note C_, 2
	note F_, 6
	note E_, 2
	note F_, 2
	note E_, 2
	note D_, 10
	octave 3
	note B_, 2
	octave 4
	note C_, 4
	note D_, 4
	note E_, 4
	note E_, 2
	note E_, 2
	note E_, 2
	note D_, 4
	note C_, 8
	rest 2
	note C_, 2
	note D_, 2
	note E_, 2
	note C_, 2
	note F_, 6
	note E_, 2
	note F_, 2
	note E_, 2
	note D_, 10
	octave 3
	note B_, 2
	octave 4
	note C_, 4
	note D_, 4
	note D#, 4
	note D#, 2
	note D#, 2
	note G#, 4
	note D_, 2
	note D_, 2
	note C_, 8
	rest 8
	octave 3
	duty_cycle 1
	note A_, 4
	note A_, 4
	octave 4
	note E_, 2
	note E_, 2
	note F_, 2
	note E_, 2
	rest 2
	octave 3
	note A_, 4
	note A_, 2
	octave 4
	note E_, 2
	note E_, 2
	note F_, 2
	note E_, 2
	octave 3
	note A_, 4
	note A_, 4
	octave 4
	note E_, 2
	note E_, 2
	note F_, 2
	note E_, 2
	rest 2
	note C_, 2
	note C_, 2
	octave 3
	note A_, 2
	octave 4
	note C_, 2
	octave 3
	note A_, 2
	octave 4
	note C_, 4
	octave 2
	note A_, 2
	rest 2
	note A_, 2
	rest 2
	octave 3
	note E_, 2
	rest 2
	note F_, 2
	rest 2
	octave 2
	note A_, 2
	note A_, 2
	note A_, 2
	note A_, 2
	octave 3
	note E_, 2
	note E_, 2
	note F_, 2
	rest 2
	octave 2
	note A_, 2
	rest 2
	note A_, 2
	rest 2
	octave 3
	note E_, 2
	note E_, 2
	note F_, 2
	rest 2
	note G_, 2
	note G_, 2
	note G_, 2
	note G_, 2
	note G_, 2
	note G_, 4
	note G_, 2
	rest 4
	octave 4
	note C_, 2
	octave 3
	note B_, 4
	note G_, 4
	note A_, 2
	note A_, 4
	octave 4
	note C_, 2
	note C_, 2
	octave 3
	note B_, 2
	note B_, 2
	note G_, 2
	note_type 6, 10, -1
	note E_, 1
	note F_, 1
	note_type 12, 10, -1
	note E_, 5
	octave 4
	note C_, 2
	octave 3
	note B_, 4
	note G_, 4
	note A_, 2
	note A_, 4
	octave 4
	note E_, 2
	note E_, 2
	note E_, 2
	note E_, 2
	note D_, 2
	note C_, 6
	note C_, 2
	octave 3
	note B_, 4
	note G_, 4
	note A_, 4
	rest 2
	octave 4
	note C_, 2
	note C_, 2
	octave 3
	note B_, 2
	note B_, 2
	note G_, 2
	note_type 6, 10, -1
	note E_, 1
	note F_, 1
	note_type 12, 10, -1
	note E_, 5
	octave 4
	note C_, 2
	octave 3
	note B_, 4
	note G_, 4
	note A_, 4
	octave 5
	duty_cycle 0
	note C_, 2
	note C_, 2
	octave 4
	note A_, 2
	octave 5
	note C_, 2
	octave 4
	note A_, 2
	octave 5
	note C_, 4
	rest 2
	octave 4
	duty_cycle 1
	note A_, 2
	note A_, 2
	note A_, 2
	note A_, 2
	note A_, 4
	note A_, 2
	note G_, 2
	note G_, 2
	note G_, 2
	note D_, 4
	note D_, 2
	note D_, 2
	note E_, 4
	note E_, 2
	note E_, 2
	note E_, 2
	note G_, 4
	note D_, 2
	note D_, 2
	note C_, 6
	rest 2
	duty_cycle 0
	note C_, 2
	note D_, 2
	note E_, 2
	note C_, 2
	note F_, 2
	duty_cycle 1
	note A_, 2
	note A_, 2
	note A_, 2
	note A_, 2
	note A_, 4
	note A_, 2
	note G_, 2
	note G_, 2
	note G_, 2
	note D_, 4
	note D_, 2
	note D_, 2
	note D#, 4
	note D#, 2
	note D#, 2
	note D#, 2
	note G#, 4
	note D_, 2
	note D_, 2
	note C_, 6
	octave 3
	sound_ret

Music_Undertale_Ch2:
	note_type 12, 11, 7
	rest 16
	rest 16
	rest 16
	rest 16
	rest 10
	octave 5
	volume_envelope 6, -7
	duty_cycle 2
	vibrato 0, 4, 2
	note E_, 1
	rest 3
	note E_, 1
	rest 3
	note E_, 1
	rest 3
	note D#, 1
	rest 3
	note E_, 1
	rest 3
	note E_, 1
	rest 3
	note E_, 1
	rest 3
	note F_, 1
	rest 3
	note E_, 1
	rest 3
	note E_, 1
	rest 3
	note E_, 1
	rest 3
	note D#, 1
	rest 16
	rest 16
	rest 16
	rest 16
	rest 16
	rest 1
	note C_, 4
	octave 4
	note B_, 2
	note A#, 2
	note A_, 16
	note A_, 2
	rest 6
	octave 5
	note C_, 4
	octave 4
	note B_, 2
	note A#, 2
	note A_, 16
	note A_, 2
	rest 16
	rest 16
	rest 16
	rest 16
	rest 6
	octave 5
	note C_, 4
	octave 4
	note B_, 2
	note A#, 2
	note A_, 16
	note A_, 2
	rest 6
	octave 5
	note C_, 4
	octave 4
	note B_, 2
	note A#, 2
	note A_, 16
	note A_, 2
	rest 6
	octave 5
	note A_, 16
	note A_, 16
	note A_, 16
	note A_, 16
	rest 2
	note F_, 2
	rest 2
	note F_, 2
	rest 2
	note F_, 2
	rest 2
	note F_, 2
	rest 2
	note G_, 2
	rest 2
	note G_, 2
	rest 2
	note G_, 2
	rest 2
	note G_, 2
	rest 2
	note E_, 2
	rest 2
	note E_, 2
	rest 2
	note E_, 2
	rest 2
	note E_, 2
	rest 2
	note A_, 2
	rest 2
	note A_, 2
	rest 2
	note A_, 2
	rest 2
	note G_, 2
	rest 2
	note F_, 2
	rest 2
	note F_, 2
	rest 2
	note F_, 2
	rest 2
	note F_, 2
	rest 2
	note G_, 2
	rest 2
	note G_, 2
	rest 2
	note G_, 2
	rest 2
	note G_, 2
	rest 2
	note G#, 2
	rest 2
	note G#, 2
	rest 2
	note G#, 2
	rest 2
	note G#, 2
	rest 2
	note A_, 2
	rest 2
	note A_, 2
	rest 2
	note A_, 2
	note A_, 2
	rest 2
	octave 4
	note E_, 16
	note E_, 16
	note E_, 16
	note E_, 16
	rest 16
	rest 16
	rest 16
	rest 16
	octave 5
	note C_, 4
	octave 4
	note B_, 2
	note A#, 2
	note A_, 16
	note A_, 2
	rest 6
	octave 5
	note C_, 4
	octave 4
	note B_, 2
	note A#, 2
	note A_, 16
	note A_, 2
	rest 16
	rest 16
	rest 16
	rest 16
	rest 6
	octave 5
	note C_, 4
	octave 4
	note B_, 2
	note A#, 2
	note A_, 16
	note A_, 2
	rest 6
	octave 5
	note C_, 4
	octave 4
	note B_, 2
	note A#, 2
	note A_, 16
	note A_, 2
	rest 6
	octave 5
	note A_, 16
	note A_, 16
	note A_, 16
	note A_, 16
	rest 2
	note F_, 2
	rest 2
	note F_, 2
	rest 2
	note F_, 2
	rest 2
	note F_, 2
	rest 2
	note G_, 2
	rest 2
	note G_, 2
	rest 2
	note G_, 2
	rest 2
	note G_, 2
	rest 2
	note E_, 2
	rest 2
	note E_, 2
	rest 2
	note E_, 2
	rest 2
	note E_, 2
	rest 2
	note A_, 2
	rest 2
	note A_, 2
	rest 2
	note A_, 2
	rest 2
	note G_, 2
	rest 2
	note F_, 2
	rest 2
	note F_, 2
	rest 2
	note F_, 2
	rest 2
	note F_, 2
	rest 2
	note G_, 2
	rest 2
	note G_, 2
	rest 2
	note G_, 2
	rest 2
	note G_, 2
	rest 2
	note G#, 2
	rest 2
	note G#, 2
	rest 2
	note G#, 2
	rest 2
	note G#, 2
	rest 2
	note A_, 2
	rest 2
	note A_, 2
	rest 2
	note A_, 2
	note A_, 2
	rest 4
	note F_, 2
	rest 2
	note F_, 2
	rest 2
	note F_, 2
	rest 2
	note F_, 2
	rest 2
	note G_, 2
	rest 2
	note G_, 2
	rest 2
	note G_, 2
	rest 2
	note G_, 2
	rest 2
	note E_, 2
	rest 2
	note E_, 2
	rest 2
	note E_, 2
	rest 2
	note E_, 2
	rest 2
	note A_, 2
	rest 2
	note A_, 2
	rest 2
	note A_, 2
	rest 2
	note G_, 2
	rest 2
	note F_, 2
	rest 2
	note F_, 2
	rest 2
	note F_, 2
	rest 2
	note F_, 2
	rest 2
	note G_, 2
	rest 2
	note G_, 2
	rest 2
	note G_, 2
	rest 2
	note G_, 2
	rest 2
	note G#, 2
	rest 2
	note G#, 2
	rest 2
	note G#, 2
	rest 2
	note G#, 2
	rest 2
	note A_, 2
	rest 2
	note A_, 2
	rest 2
	note A_, 2
	note A_, 2
	rest 16
	rest 16
	rest 16
	rest 16
	rest 2
	note E_, 16
	note E_, 16
	note E_, 16
	note E_, 16
	octave 3
	note A_, 16
	note B_, 16
	note G_, 16
	note A_, 16
	note A_, 16
	note B_, 16
	note G#, 16
	octave 4
	note C_, 2
	rest 16
	octave 5
	note F_, 2
	rest 2
	note F_, 2
	rest 2
	note F_, 2
	rest 2
	note F_, 2
	rest 2
	note G_, 2
	rest 2
	note G_, 2
	rest 2
	note G_, 2
	rest 2
	note G_, 2
	rest 2
	note E_, 2
	rest 2
	note E_, 2
	rest 2
	note E_, 2
	rest 2
	note E_, 2
	rest 2
	note A_, 2
	rest 2
	note A_, 2
	rest 2
	note A_, 2
	rest 2
	note G_, 2
	rest 2
	note F_, 2
	rest 2
	note F_, 2
	rest 2
	note F_, 2
	rest 2
	note F_, 2
	rest 2
	note G_, 2
	rest 2
	note G_, 2
	rest 2
	note G_, 2
	rest 2
	note G_, 2
	rest 2
	note G#, 2
	rest 2
	note G#, 2
	rest 2
	note G#, 2
	rest 2
	note G#, 2
	rest 2
	note A_, 2
	rest 2
	note A_, 2
	rest 2
	note A_, 2
	note A_, 2
	sound_ret

Music_Undertale_Ch3:
	note_type 12, 2, 0
	rest 8
	volume_envelope 2, 6
	octave 3
	note F_, 16
	note D_, 16
	note E_, 16
	note C_, 16
	rest 16
	rest 16
	rest 16
	rest 16
	octave 2
	note A_, 2
	note A_, 2
	note A_, 2
	note A_, 2
	note A_, 2
	note A_, 2
	note A_, 2
	note A_, 2
	note C_, 2
	octave 3
	note C_, 2
	octave 2
	note C_, 2
	octave 3
	note C_, 2
	octave 2
	note F_, 2
	octave 3
	note F_, 2
	octave 2
	note F_, 2
	octave 3
	note F_, 2
	octave 2
	note A_, 2
	note A_, 2
	note A_, 2
	note A_, 2
	note A_, 2
	note A_, 2
	note A_, 2
	note A_, 2
	note C_, 2
	octave 3
	note C_, 2
	octave 2
	note C_, 2
	octave 3
	note C_, 2
	octave 2
	note G_, 2
	note G_, 2
	note G_, 2
	note G_, 2
	note A_, 2
	note A_, 2
	note A_, 2
	note A_, 2
	note A_, 2
	note A_, 2
	note A_, 2
	note A_, 2
	note C_, 2
	octave 3
	note C_, 2
	octave 2
	note C_, 2
	octave 3
	note C_, 2
	octave 2
	note F_, 2
	octave 3
	note F_, 2
	octave 2
	note F_, 2
	octave 3
	note F_, 2
	octave 2
	note A_, 2
	note A_, 2
	note A_, 2
	note A_, 2
	note A_, 2
	note A_, 2
	note A_, 2
	note A_, 2
	note C_, 2
	octave 3
	note C_, 2
	octave 2
	note C_, 2
	octave 3
	note C_, 2
	octave 2
	note G_, 2
	note G_, 2
	note G_, 2
	note G_, 2
	note A_, 2
	note A_, 2
	note A_, 2
	note A_, 2
	note A_, 2
	note A_, 2
	note A_, 2
	note A_, 2
	note C_, 2
	octave 3
	note C_, 2
	octave 2
	note C_, 2
	octave 3
	note C_, 2
	octave 2
	note F_, 2
	octave 3
	note F_, 2
	octave 2
	note F_, 2
	octave 3
	note F_, 2
	octave 2
	note A_, 2
	note A_, 2
	note A_, 2
	note A_, 2
	note A_, 2
	note A_, 2
	note A_, 2
	note A_, 2
	note C_, 2
	octave 3
	note C_, 2
	octave 2
	note C_, 2
	octave 3
	note C_, 2
	octave 2
	note G_, 2
	note G_, 2
	note G_, 2
	note G_, 2
	note A_, 2
	note A_, 2
	note A_, 2
	note A_, 2
	note A_, 2
	note A_, 2
	note A_, 2
	note A_, 2
	note C_, 2
	octave 3
	note C_, 2
	octave 2
	note C_, 2
	octave 3
	note C_, 2
	octave 2
	note F_, 2
	octave 3
	note F_, 2
	octave 2
	note F_, 2
	octave 3
	note F_, 2
	octave 2
	note A_, 2
	note A_, 2
	note A_, 2
	note A_, 2
	note A_, 2
	note A_, 2
	note A_, 2
	note A_, 2
	note C_, 2
	octave 3
	note C_, 2
	octave 2
	note C_, 2
	octave 3
	note C_, 2
	octave 2
	note G_, 2
	note G_, 2
	note G_, 2
	note G_, 2
	note A_, 1
	rest 1
	note A_, 1
	rest 1
	note A_, 1
	rest 1
	note A_, 1
	rest 1
	octave 3
	note E_, 1
	rest 1
	note E_, 1
	rest 1
	note F_, 1
	rest 1
	note F_, 2
	octave 2
	note A_, 1
	rest 1
	note A_, 1
	rest 1
	note A_, 1
	rest 1
	note A_, 1
	rest 1
	octave 3
	note E_, 1
	rest 1
	note E_, 1
	rest 1
	note F_, 1
	rest 1
	note F_, 2
	octave 2
	note A_, 1
	rest 1
	note A_, 1
	rest 1
	note A_, 1
	rest 1
	note A_, 1
	rest 1
	octave 3
	note E_, 1
	rest 1
	note E_, 1
	rest 1
	note F_, 1
	rest 1
	note F_, 2
	note G_, 1
	rest 1
	note G_, 1
	rest 1
	note G_, 1
	rest 1
	note G_, 1
	rest 1
	note G_, 1
	rest 1
	note G_, 1
	rest 1
	note G_, 1
	rest 1
	note G_, 1
	rest 1
	octave 2
	note F_, 2
	octave 3
	note F_, 2
	octave 2
	note F_, 2
	octave 3
	note F_, 2
	octave 2
	note F_, 2
	octave 3
	note F_, 2
	octave 2
	note F_, 2
	octave 3
	note F_, 2
	octave 2
	note G_, 2
	octave 3
	note G_, 2
	octave 2
	note G_, 2
	octave 3
	note G_, 2
	octave 2
	note G_, 2
	octave 3
	note G_, 2
	octave 2
	note G_, 2
	octave 3
	note G_, 2
	octave 2
	note A_, 2
	octave 3
	note A_, 2
	octave 2
	note A_, 2
	octave 3
	note A_, 2
	octave 2
	note A_, 2
	octave 3
	note A_, 2
	octave 2
	note A_, 2
	octave 3
	note A_, 2
	note C_, 2
	octave 4
	note C_, 2
	octave 3
	note C_, 2
	octave 4
	note C_, 2
	octave 3
	note C_, 2
	octave 4
	note C_, 2
	octave 2
	note G_, 2
	octave 3
	note G_, 2
	octave 2
	note F_, 2
	octave 3
	note F_, 2
	octave 2
	note F_, 2
	octave 3
	note F_, 2
	octave 2
	note F_, 2
	octave 3
	note F_, 2
	octave 2
	note F_, 2
	octave 3
	note F_, 2
	octave 2
	note G_, 2
	octave 3
	note G_, 2
	octave 2
	note G_, 2
	octave 3
	note G_, 2
	octave 2
	note G_, 2
	octave 3
	note G_, 2
	octave 2
	note G_, 2
	octave 3
	note G_, 2
	octave 2
	note G#, 2
	octave 3
	note G#, 2
	octave 2
	note G#, 2
	octave 3
	note G#, 2
	octave 2
	note G#, 2
	octave 3
	note G#, 2
	octave 2
	note G#, 2
	octave 3
	note G#, 2
	octave 2
	note A_, 2
	octave 3
	note A_, 2
	octave 2
	note A_, 2
	octave 3
	note A_, 2
	octave 2
	note A_, 2
	octave 3
	note A_, 2
	octave 2
	note A_, 2
	octave 3
	note A_, 2
	octave 2
	note A_, 1
	rest 1
	note A_, 1
	rest 1
	note A_, 1
	rest 1
	note A_, 1
	rest 1
	octave 3
	note E_, 1
	rest 1
	note E_, 1
	rest 1
	note F_, 1
	rest 1
	note F_, 2
	octave 2
	note A_, 1
	rest 1
	note A_, 1
	rest 1
	note A_, 1
	rest 1
	note A_, 1
	rest 1
	octave 3
	note E_, 1
	rest 1
	note E_, 1
	rest 1
	note F_, 1
	rest 1
	note F_, 2
	octave 2
	note A_, 1
	rest 1
	note A_, 1
	rest 1
	note A_, 1
	rest 1
	note A_, 1
	rest 1
	octave 3
	note E_, 1
	rest 1
	note E_, 1
	rest 1
	note F_, 1
	rest 1
	note F_, 2
	note G_, 1
	rest 1
	note G_, 1
	rest 1
	note G_, 1
	rest 1
	note G_, 1
	rest 1
	note G_, 1
	rest 1
	note G_, 1
	rest 1
	note G_, 1
	rest 1
	note G_, 1
	rest 1
	octave 2
	note A_, 2
	note A_, 2
	note A_, 2
	note A_, 2
	note A_, 2
	note A_, 2
	note A_, 2
	note A_, 2
	note C_, 2
	octave 3
	note C_, 2
	octave 2
	note C_, 2
	octave 3
	note C_, 2
	octave 2
	note F_, 2
	octave 3
	note F_, 2
	octave 2
	note F_, 2
	octave 3
	note F_, 2
	octave 2
	note A_, 2
	note A_, 2
	note A_, 2
	note A_, 2
	note A_, 2
	note A_, 2
	note A_, 2
	note A_, 2
	note C_, 2
	octave 3
	note C_, 2
	octave 2
	note C_, 2
	octave 3
	note C_, 2
	octave 2
	note G_, 2
	note G_, 2
	note G_, 2
	note G_, 2
	note A_, 2
	note A_, 2
	note A_, 2
	note A_, 2
	note A_, 2
	note A_, 2
	note A_, 2
	note A_, 2
	note C_, 2
	octave 3
	note C_, 2
	octave 2
	note C_, 2
	octave 3
	note C_, 2
	octave 2
	note F_, 2
	octave 3
	note F_, 2
	octave 2
	note F_, 2
	octave 3
	note F_, 2
	octave 2
	note A_, 2
	note A_, 2
	note A_, 2
	note A_, 2
	note A_, 2
	note A_, 2
	note A_, 2
	note A_, 2
	note C_, 2
	octave 3
	note C_, 2
	octave 2
	note C_, 2
	octave 3
	note C_, 2
	octave 2
	note G_, 2
	note G_, 2
	note G_, 2
	note G_, 2
	note A_, 2
	note A_, 2
	note A_, 2
	note A_, 2
	note A_, 2
	note A_, 2
	note A_, 2
	note A_, 2
	note C_, 2
	octave 3
	note C_, 2
	octave 2
	note C_, 2
	octave 3
	note C_, 2
	octave 2
	note F_, 2
	octave 3
	note F_, 2
	octave 2
	note F_, 2
	octave 3
	note F_, 2
	octave 2
	note A_, 2
	note A_, 2
	note A_, 2
	note A_, 2
	note A_, 2
	note A_, 2
	note A_, 2
	note A_, 2
	note C_, 2
	octave 3
	note C_, 2
	octave 2
	note C_, 2
	octave 3
	note C_, 2
	octave 2
	note G_, 2
	note G_, 2
	note G_, 2
	note G_, 2
	note A_, 2
	note A_, 2
	note A_, 2
	note A_, 2
	note A_, 2
	note A_, 2
	note A_, 2
	note A_, 2
	note C_, 2
	octave 3
	note C_, 2
	octave 2
	note C_, 2
	octave 3
	note C_, 2
	octave 2
	note F_, 2
	octave 3
	note F_, 2
	octave 2
	note F_, 2
	octave 3
	note F_, 2
	octave 2
	note A_, 2
	note A_, 2
	note A_, 2
	note A_, 2
	note A_, 2
	note A_, 2
	note A_, 2
	note A_, 2
	note C_, 2
	octave 3
	note C_, 2
	octave 2
	note C_, 2
	octave 3
	note C_, 2
	octave 2
	note G_, 2
	note G_, 2
	note G_, 2
	note G_, 2
	note A_, 1
	rest 1
	note A_, 1
	rest 1
	note A_, 1
	rest 1
	note A_, 1
	rest 1
	octave 3
	note E_, 1
	rest 1
	note E_, 1
	rest 1
	note F_, 1
	rest 1
	note F_, 2
	octave 2
	note A_, 1
	rest 1
	note A_, 1
	rest 1
	note A_, 1
	rest 1
	note A_, 1
	rest 1
	octave 3
	note E_, 1
	rest 1
	note E_, 1
	rest 1
	note F_, 1
	rest 1
	note F_, 2
	octave 2
	note A_, 1
	rest 1
	note A_, 1
	rest 1
	note A_, 1
	rest 1
	note A_, 1
	rest 1
	octave 3
	note E_, 1
	rest 1
	note E_, 1
	rest 1
	note F_, 1
	rest 1
	note F_, 2
	note G_, 1
	rest 1
	note G_, 1
	rest 1
	note G_, 1
	rest 1
	note G_, 1
	rest 1
	note G_, 1
	rest 1
	note G_, 1
	rest 1
	note G_, 1
	rest 1
	note G_, 1
	rest 1
	octave 2
	note F_, 2
	octave 3
	note F_, 2
	octave 2
	note F_, 2
	octave 3
	note F_, 2
	octave 2
	note F_, 2
	octave 3
	note F_, 2
	octave 2
	note F_, 2
	octave 3
	note F_, 2
	octave 2
	note G_, 2
	octave 3
	note G_, 2
	octave 2
	note G_, 2
	octave 3
	note G_, 2
	octave 2
	note G_, 2
	octave 3
	note G_, 2
	octave 2
	note G_, 2
	octave 3
	note G_, 2
	octave 2
	note A_, 2
	octave 3
	note A_, 2
	octave 2
	note A_, 2
	octave 3
	note A_, 2
	octave 2
	note A_, 2
	octave 3
	note A_, 2
	octave 2
	note A_, 2
	octave 3
	note A_, 2
	note C_, 2
	octave 4
	note C_, 2
	octave 3
	note C_, 2
	octave 4
	note C_, 2
	octave 3
	note C_, 2
	octave 4
	note C_, 2
	octave 2
	note G_, 2
	octave 3
	note G_, 2
	octave 2
	note F_, 2
	octave 3
	note F_, 2
	octave 2
	note F_, 2
	octave 3
	note F_, 2
	octave 2
	note F_, 2
	octave 3
	note F_, 2
	octave 2
	note F_, 2
	octave 3
	note F_, 2
	octave 2
	note G_, 2
	octave 3
	note G_, 2
	octave 2
	note G_, 2
	octave 3
	note G_, 2
	octave 2
	note G_, 2
	octave 3
	note G_, 2
	octave 2
	note G_, 2
	octave 3
	note G_, 2
	octave 2
	note G#, 2
	octave 3
	note G#, 2
	octave 2
	note G#, 2
	octave 3
	note G#, 2
	octave 2
	note G#, 2
	octave 3
	note G#, 2
	octave 2
	note G#, 2
	octave 3
	note G#, 2
	octave 2
	note A_, 2
	octave 3
	note A_, 2
	octave 2
	note A_, 2
	octave 3
	note A_, 2
	octave 2
	note A_, 2
	octave 3
	note A_, 2
	octave 2
	note A_, 2
	octave 3
	note A_, 2
	octave 2
	note F_, 2
	octave 3
	note F_, 2
	octave 2
	note F_, 2
	octave 3
	note F_, 2
	octave 2
	note F_, 2
	octave 3
	note F_, 2
	octave 2
	note F_, 2
	octave 3
	note F_, 2
	octave 2
	note G_, 2
	octave 3
	note G_, 2
	octave 2
	note G_, 2
	octave 3
	note G_, 2
	octave 2
	note G_, 2
	octave 3
	note G_, 2
	octave 2
	note G_, 2
	octave 3
	note G_, 2
	octave 2
	note A_, 2
	octave 3
	note A_, 2
	octave 2
	note A_, 2
	octave 3
	note A_, 2
	octave 2
	note A_, 2
	octave 3
	note A_, 2
	octave 2
	note A_, 2
	octave 3
	note A_, 2
	note C_, 2
	octave 4
	note C_, 2
	octave 3
	note C_, 2
	octave 4
	note C_, 2
	octave 3
	note C_, 2
	octave 4
	note C_, 2
	octave 2
	note G_, 2
	octave 3
	note G_, 2
	octave 2
	note F_, 2
	octave 3
	note F_, 2
	octave 2
	note F_, 2
	octave 3
	note F_, 2
	octave 2
	note F_, 2
	octave 3
	note F_, 2
	octave 2
	note F_, 2
	octave 3
	note F_, 2
	octave 2
	note G_, 2
	octave 3
	note G_, 2
	octave 2
	note G_, 2
	octave 3
	note G_, 2
	octave 2
	note G_, 2
	octave 3
	note G_, 2
	octave 2
	note G_, 2
	octave 3
	note G_, 2
	octave 2
	note G#, 2
	octave 3
	note G#, 2
	octave 2
	note G#, 2
	octave 3
	note G#, 2
	octave 2
	note G#, 2
	octave 3
	note G#, 2
	octave 2
	note G#, 2
	octave 3
	note G#, 2
	octave 2
	note A_, 2
	octave 3
	note A_, 2
	octave 2
	note A_, 2
	octave 3
	note A_, 2
	octave 2
	note A_, 2
	octave 3
	note A_, 2
	octave 2
	note A_, 2
	octave 3
	note A_, 2
	octave 2
	note A_, 1
	rest 1
	note A_, 1
	rest 1
	note A_, 1
	rest 1
	note A_, 1
	rest 1
	octave 3
	note E_, 1
	rest 1
	note E_, 1
	rest 1
	note F_, 1
	rest 1
	note F_, 2
	octave 2
	note A_, 1
	rest 1
	note A_, 1
	rest 1
	note A_, 1
	rest 1
	note A_, 1
	rest 1
	octave 3
	note E_, 1
	rest 1
	note E_, 1
	rest 1
	note F_, 1
	rest 1
	note F_, 2
	octave 2
	note A_, 1
	rest 1
	note A_, 1
	rest 1
	note A_, 1
	rest 1
	note A_, 1
	rest 1
	octave 3
	note E_, 1
	rest 1
	note E_, 1
	rest 1
	note F_, 1
	rest 1
	note F_, 2
	note G_, 1
	rest 1
	note G_, 1
	rest 1
	note G_, 1
	rest 1
	note G_, 1
	rest 1
	note G_, 1
	rest 1
	note G_, 1
	rest 1
	note G_, 1
	rest 1
	note G_, 1
	rest 1
	octave 2
	note A_, 1
	rest 1
	note A_, 1
	rest 1
	note A_, 1
	rest 1
	note A_, 1
	rest 1
	octave 3
	note E_, 1
	rest 1
	note E_, 1
	rest 1
	note F_, 1
	rest 1
	note F_, 2
	octave 2
	note A_, 1
	rest 1
	note A_, 1
	rest 1
	note A_, 1
	rest 1
	note A_, 1
	rest 1
	octave 3
	note E_, 1
	rest 1
	note E_, 1
	rest 1
	note F_, 1
	rest 1
	note F_, 2
	octave 2
	note A_, 1
	rest 1
	note A_, 1
	rest 1
	note A_, 1
	rest 1
	note A_, 1
	rest 1
	octave 3
	note E_, 1
	rest 1
	note E_, 1
	rest 1
	note F_, 1
	rest 1
	note F_, 2
	note G_, 1
	rest 1
	note G_, 1
	rest 1
	note G_, 1
	rest 1
	note G_, 1
	rest 1
	note G_, 1
	rest 1
	note G_, 1
	rest 1
	note G_, 1
	rest 1
	note G_, 1
	rest 1
	octave 2
	note F_, 2
	octave 3
	note F_, 2
	octave 2
	note F_, 2
	octave 3
	note F_, 2
	octave 2
	note F_, 2
	octave 3
	note F_, 2
	octave 2
	note F_, 2
	octave 3
	note F_, 2
	octave 2
	note G_, 2
	octave 3
	note G_, 2
	octave 2
	note G_, 2
	octave 3
	note G_, 2
	octave 2
	note G_, 2
	octave 3
	note G_, 2
	octave 2
	note G_, 2
	octave 3
	note G_, 2
	octave 2
	note A_, 2
	octave 3
	note A_, 2
	octave 2
	note A_, 2
	octave 3
	note A_, 2
	octave 2
	note A_, 2
	octave 3
	note A_, 2
	octave 2
	note A_, 2
	octave 3
	note A_, 2
	note C_, 2
	octave 4
	note C_, 2
	octave 3
	note C_, 2
	octave 4
	note C_, 2
	octave 3
	note C_, 2
	octave 4
	note C_, 2
	octave 3
	note C_, 2
	octave 4
	note C_, 2
	octave 2
	note F_, 2
	octave 3
	note F_, 2
	octave 2
	note F_, 2
	octave 3
	note F_, 2
	octave 2
	note F_, 2
	octave 3
	note F_, 2
	octave 2
	note F_, 2
	octave 3
	note F_, 2
	octave 2
	note G_, 2
	octave 3
	note G_, 2
	octave 2
	note G_, 2
	octave 3
	note G_, 2
	octave 2
	note G_, 2
	octave 3
	note G_, 2
	octave 2
	note G_, 2
	octave 3
	note G_, 2
	octave 2
	note G#, 2
	octave 3
	note G#, 2
	octave 2
	note G#, 2
	octave 3
	note G#, 2
	octave 2
	note G#, 2
	octave 3
	note G#, 2
	octave 2
	note G#, 2
	octave 3
	note G#, 2
	octave 2
	note A_, 2
	rest 14
	note F_, 2
	octave 3
	note F_, 2
	octave 2
	note F_, 2
	octave 3
	note F_, 2
	octave 2
	note F_, 2
	octave 3
	note F_, 2
	octave 2
	note F_, 2
	octave 3
	note F_, 2
	octave 2
	note G_, 2
	octave 3
	note G_, 2
	octave 2
	note G_, 2
	octave 3
	note G_, 2
	octave 2
	note G_, 2
	octave 3
	note G_, 2
	octave 2
	note G_, 2
	octave 3
	note G_, 2
	octave 2
	note A_, 2
	octave 3
	note A_, 2
	octave 2
	note A_, 2
	octave 3
	note A_, 2
	octave 2
	note A_, 2
	octave 3
	note A_, 2
	octave 2
	note A_, 2
	octave 3
	note A_, 2
	note C_, 2
	octave 4
	note C_, 2
	octave 3
	note C_, 2
	octave 4
	note C_, 2
	octave 3
	note C_, 2
	octave 4
	note C_, 2
	octave 2
	note G_, 2
	octave 3
	note G_, 2
	octave 2
	note F_, 2
	octave 3
	note F_, 2
	octave 2
	note F_, 2
	octave 3
	note F_, 2
	octave 2
	note F_, 2
	octave 3
	note F_, 2
	octave 2
	note F_, 2
	octave 3
	note F_, 2
	octave 2
	note G_, 2
	octave 3
	note G_, 2
	octave 2
	note G_, 2
	octave 3
	note G_, 2
	octave 2
	note G_, 2
	octave 3
	note G_, 2
	octave 2
	note G_, 2
	octave 3
	note G_, 2
	octave 2
	note G#, 2
	octave 3
	note G#, 2
	octave 2
	note G#, 2
	octave 3
	note G#, 2
	octave 2
	note G#, 2
	octave 3
	note G#, 2
	octave 2
	note G#, 2
	octave 3
	note G#, 2
	octave 2
	note A_, 2
	octave 3
	note A_, 2
	octave 2
	note A_, 2
	octave 3
	note A_, 2
	octave 2
	note A_, 2
	octave 3
	note A_, 2
	octave 2
	note A_, 2
	octave 1
	sound_ret

Music_Undertale_Ch4:
	toggle_noise 1
	drum_speed 12
	rest 16
	rest 16
	rest 16
	rest 16
	rest 16
	rest 16
	rest 8
	drum_note 1, 4
	drum_note 1, 4
	drum_note 1, 4
	drum_note 1, 4
	drum_note 1, 16
	drum_note 12, 4
	drum_note 3, 4
	drum_note 12, 4
	drum_note 3, 4
	drum_note 12, 4
	drum_note 3, 4
	drum_note 12, 4
	drum_note 3, 4
	drum_note 12, 4
	drum_note 3, 4
	drum_note 12, 4
	drum_note 3, 4
	drum_note 12, 4
	drum_note 3, 4
	drum_note 12, 4
	drum_note 3, 4
	drum_note 12, 4
	drum_note 3, 4
	drum_note 12, 4
	drum_note 3, 4
	drum_note 12, 4
	drum_note 3, 4
	drum_note 12, 4
	drum_note 3, 4
	drum_note 12, 4
	drum_note 3, 4
	drum_note 12, 4
	drum_note 3, 4
	drum_note 12, 4
	drum_note 3, 4
	drum_note 12, 4
	drum_note 3, 4
	drum_note 12, 4
	drum_note 3, 4
	drum_note 12, 4
	drum_note 3, 4
	drum_note 12, 4
	drum_note 3, 4
	drum_note 12, 4
	drum_note 3, 4
	drum_note 12, 4
	drum_note 3, 4
	drum_note 12, 4
	drum_note 3, 4
	drum_note 12, 4
	drum_note 3, 4
	drum_note 12, 4
	drum_note 3, 4
	drum_note 12, 4
	drum_note 3, 4
	drum_note 12, 4
	drum_note 3, 4
	drum_note 12, 4
	drum_note 3, 4
	drum_note 12, 4
	drum_note 3, 4
	drum_note 12, 4
	drum_note 3, 4
	drum_note 12, 4
	drum_note 3, 4
	drum_note 12, 4
	drum_note 3, 4
	drum_note 12, 4
	drum_note 3, 4
	drum_note 12, 2
	drum_note 7, 2
	drum_note 12, 2
	drum_note 7, 2
	drum_note 12, 2
	drum_note 7, 2
	drum_note 12, 2
	drum_note 7, 2
	drum_note 12, 2
	drum_note 7, 2
	drum_note 12, 2
	drum_note 7, 2
	drum_note 12, 2
	drum_note 7, 2
	drum_note 12, 2
	drum_note 7, 2
	drum_note 12, 2
	drum_note 7, 2
	drum_note 12, 2
	drum_note 7, 2
	drum_note 12, 2
	drum_note 7, 2
	drum_note 12, 2
	drum_note 7, 2
	drum_note 12, 2
	drum_note 7, 2
	drum_note 12, 2
	drum_note 7, 2
	drum_note 12, 2
	drum_note 7, 2
	drum_note 12, 2
	drum_note 7, 2
	drum_note 12, 4
	drum_note 3, 4
	drum_note 12, 4
	drum_note 3, 4
	drum_note 12, 4
	drum_note 3, 4
	drum_note 12, 4
	drum_note 3, 4
	drum_note 12, 4
	drum_note 3, 4
	drum_note 12, 4
	drum_note 3, 4
	drum_note 12, 4
	drum_note 3, 4
	drum_note 12, 4
	drum_note 3, 4
	drum_note 12, 4
	drum_note 3, 4
	drum_note 12, 4
	drum_note 3, 4
	drum_note 12, 4
	drum_note 3, 4
	drum_note 12, 4
	drum_note 3, 4
	drum_note 12, 4
	drum_note 3, 4
	drum_note 12, 4
	drum_note 3, 4
	drum_note 12, 4
	drum_note 3, 4
	drum_note 12, 4
	drum_note 3, 4
	drum_note 12, 4
	drum_note 4, 4
	drum_note 12, 4
	drum_note 4, 4
	drum_note 12, 4
	drum_note 4, 4
	drum_note 12, 4
	drum_note 4, 4
	drum_note 12, 4
	drum_note 4, 4
	drum_note 12, 4
	drum_note 4, 4
	drum_note 12, 4
	drum_note 4, 4
	drum_note 12, 2
	drum_note 4, 2
	drum_note 4, 4
	drum_note 12, 4
	drum_note 4, 4
	drum_note 12, 4
	drum_note 4, 4
	drum_note 12, 4
	drum_note 4, 4
	drum_note 12, 4
	drum_note 4, 4
	drum_note 12, 4
	drum_note 4, 4
	drum_note 12, 4
	drum_note 4, 4
	drum_note 12, 4
	drum_note 4, 4
	drum_note 12, 4
	drum_note 4, 4
	drum_note 12, 4
	drum_note 4, 4
	drum_note 12, 4
	drum_note 4, 4
	drum_note 12, 4
	drum_note 4, 4
	drum_note 12, 4
	drum_note 4, 4
	drum_note 12, 4
	drum_note 4, 4
	drum_note 12, 4
	drum_note 4, 4
	drum_note 12, 4
	drum_note 4, 4
	drum_note 12, 2
	drum_note 4, 2
	drum_note 4, 4
	drum_note 12, 4
	drum_note 4, 4
	drum_note 12, 4
	drum_note 4, 4
	drum_note 12, 4
	drum_note 4, 4
	drum_note 12, 4
	drum_note 4, 4
	drum_note 12, 4
	drum_note 4, 4
	drum_note 12, 4
	drum_note 4, 4
	drum_note 12, 4
	drum_note 4, 4
	drum_note 12, 4
	drum_note 4, 4
	drum_note 12, 4
	drum_note 4, 4
	drum_note 12, 4
	drum_note 4, 4
	drum_note 12, 4
	drum_note 4, 4
	drum_note 12, 4
	drum_note 4, 4
	drum_note 12, 4
	drum_note 4, 4
	drum_note 12, 4
	drum_note 4, 4
	drum_note 12, 4
	drum_note 4, 4
	drum_note 12, 2
	drum_note 4, 2
	drum_note 4, 4
	drum_note 12, 4
	drum_note 12, 4
	drum_note 12, 4
	drum_note 12, 4
	drum_note 12, 4
	drum_note 12, 4
	drum_note 12, 4
	drum_note 12, 4
	drum_note 12, 4
	drum_note 12, 4
	drum_note 12, 4
	drum_note 12, 4
	drum_note 12, 4
	drum_note 12, 4
	drum_note 12, 4
	drum_note 12, 4
	drum_note 12, 4
	drum_note 4, 4
	drum_note 12, 4
	drum_note 4, 4
	drum_note 12, 4
	drum_note 4, 4
	drum_note 12, 4
	drum_note 4, 4
	drum_note 12, 4
	drum_note 4, 4
	drum_note 12, 4
	drum_note 4, 4
	drum_note 12, 4
	drum_note 4, 4
	drum_note 12, 4
	drum_note 4, 4
	drum_note 12, 4
	drum_note 4, 4
	drum_note 12, 4
	drum_note 4, 4
	drum_note 12, 4
	drum_note 4, 4
	drum_note 12, 4
	drum_note 4, 4
	drum_note 12, 4
	drum_note 4, 4
	drum_note 12, 4
	drum_note 4, 4
	drum_note 12, 4
	drum_note 4, 4
	drum_note 12, 2
	drum_note 4, 2
	drum_note 4, 4
	drum_note 12, 4
	drum_note 4, 4
	drum_note 12, 4
	drum_note 4, 4
	drum_note 12, 4
	drum_note 4, 4
	drum_note 12, 4
	drum_note 4, 4
	drum_note 12, 4
	drum_note 4, 4
	drum_note 12, 4
	drum_note 4, 4
	drum_note 12, 4
	drum_note 4, 4
	drum_note 12, 4
	drum_note 4, 4
	drum_note 12, 4
	drum_note 4, 4
	drum_note 12, 4
	drum_note 4, 4
	drum_note 12, 4
	drum_note 4, 4
	drum_note 12, 4
	drum_note 4, 4
	drum_note 12, 4
	drum_note 4, 4
	drum_note 12, 4
	drum_note 4, 4
	drum_note 12, 4
	drum_note 4, 4
	drum_note 12, 2
	drum_note 4, 2
	drum_note 4, 4
	drum_note 12, 4
	drum_note 3, 4
	drum_note 12, 4
	drum_note 3, 4
	drum_note 12, 4
	drum_note 3, 4
	drum_note 12, 4
	drum_note 3, 4
	drum_note 12, 4
	drum_note 3, 4
	drum_note 12, 4
	drum_note 3, 4
	drum_note 12, 4
	drum_note 3, 4
	drum_note 12, 4
	drum_note 3, 4
	drum_note 12, 4
	drum_note 12, 4
	drum_note 12, 4
	drum_note 12, 4
	drum_note 12, 4
	drum_note 12, 4
	drum_note 12, 4
	drum_note 12, 4
	drum_note 12, 4
	drum_note 12, 4
	drum_note 12, 4
	drum_note 12, 4
	drum_note 12, 4
	drum_note 12, 4
	drum_note 12, 4
	drum_note 12, 2
	rest 16
	rest 16
	rest 16
	rest 16
	rest 16
	rest 16
	rest 16
	rest 16
	rest 2
	drum_note 12, 4
	drum_note 4, 4
	drum_note 12, 4
	drum_note 4, 4
	drum_note 12, 4
	drum_note 4, 4
	drum_note 12, 4
	drum_note 4, 4
	drum_note 12, 4
	drum_note 4, 4
	drum_note 12, 4
	drum_note 4, 4
	drum_note 12, 4
	drum_note 4, 4
	drum_note 12, 4
	drum_note 4, 4
	drum_note 12, 4
	drum_note 4, 4
	drum_note 12, 4
	drum_note 4, 4
	drum_note 12, 4
	drum_note 4, 4
	drum_note 12, 4
	drum_note 4, 4
	drum_note 12, 4
	drum_note 4, 4
	drum_note 12, 4
	drum_note 4, 4
	drum_note 12, 4
	drum_note 4, 4
	drum_note 12, 2
	drum_note 4, 2
	drum_note 4, 2
	sound_ret
