Music_Monochrome:
	channel_count 4
	channel 1, Music_Monochrome_Ch1
	channel 2, Music_Monochrome_Ch2
	channel 3, Music_Monochrome_Ch3
	channel 4, Music_Monochrome_Ch4

Music_Monochrome_Ch1:
	volume 7, 7
	note_type 12, 15, 8
	tempo 119
	duty_cycle 2
.mainloop:
	octave 1
	vibrato 7, 3, 1
	note_type 12, 15, 8
	note A#, 12
	rest 16
	rest 4
	note A#, 12
	rest 16
	rest 4
	note A#, 12
	rest 16
	rest 4
	note A#, 12
	rest 16
	rest 4
	note_type 6, 15, 8
	octave 4
	vibrato 3, 5, 2
	note A#, 5
	rest 3
	octave 5
	note C#, 5
	rest 3
	note F_, 3
	rest 5
	note C#, 5
	rest 3
	octave 4
	note A_, 5
	rest 3
	octave 5
	note C_, 5
	rest 3
	note E_, 5
	rest 3
	note C_, 5
	rest 3
	octave 4
	note F#, 5
	rest 3
	note A#, 5
	rest 3
	octave 5
	note C#, 3
	rest 5
	octave 4
	note A#, 5
	rest 3
	note A_, 5
	rest 3
	octave 5
	note C_, 3
	rest 5
	note D#, 5
	rest 3
	note C_, 3
	rest 5
	octave 4
	note A#, 5
	rest 3
	octave 5
	note C#, 5
	rest 3
	note F_, 3
	rest 5
	note C#, 5
	rest 3
	octave 4
	note A_, 5
	rest 3
	octave 5
	note C_, 5
	rest 3
	note E_, 5
	rest 3
	note C_, 5
	rest 3
	octave 4
	note F#, 5
	rest 3
	note A#, 5
	rest 3
	octave 5
	note C#, 3
	rest 5
	octave 4
	note A#, 5
	rest 3
	note A_, 5
	rest 3
	octave 5
	note C_, 3
	rest 5
	note D#, 5
	rest 3
	note C_, 3
	rest 5
	octave 4
	note A#, 5
	rest 3
	octave 5
	note C#, 5
	rest 3
	note F_, 3
	rest 5
	note C#, 5
	rest 3
	octave 4
	note A_, 5
	rest 3
	octave 5
	note C_, 5
	rest 3
	note E_, 5
	rest 3
	note C_, 5
	rest 3
	octave 4
	note F#, 5
	rest 3
	note A#, 5
	rest 3
	octave 5
	note C#, 3
	rest 5
	octave 4
	note A#, 5
	rest 3
	note A_, 5
	rest 3
	octave 5
	note C_, 3
	rest 5
	note D#, 5
	rest 3
	note C_, 3
	rest 5
	octave 4
	note A#, 5
	rest 3
	octave 5
	note C#, 5
	rest 3
	note F_, 3
	rest 5
	note C#, 5
	rest 3
	octave 4
	note A_, 5
	rest 3
	octave 5
	note C_, 5
	rest 3
	note E_, 5
	rest 3
	note C_, 5
	rest 3
	octave 4
	note F#, 5
	rest 3
	note A#, 5
	rest 3
	octave 5
	note C#, 3
	rest 5
	octave 4
	note A#, 5
	rest 3
	vibrato 18, 5, 3
	duty_cycle 0
	note A_, 16
	note G#, 16
	rest 16
	rest 16
	rest 16
	rest 16
	rest 16
	rest 16
	rest 16
	rest 16
	rest 16
	rest 16
	rest 16
	rest 16
	rest 16
	rest 16
	rest 16
	rest 16
	vibrato 7, 3, 1
	duty_cycle 2
	note A#, 5
	rest 3
	octave 5
	note C#, 5
	rest 3
	note F_, 3
	rest 5
	note C#, 5
	rest 3
	octave 4
	note A_, 5
	rest 3
	octave 5
	note C_, 5
	rest 3
	note E_, 5
	rest 3
	note C_, 5
	rest 3
	octave 4
	note F#, 5
	rest 3
	note A#, 5
	rest 3
	octave 5
	note C#, 3
	rest 5
	octave 4
	note A#, 5
	rest 3
	note A_, 5
	rest 3
	octave 5
	note C_, 3
	rest 5
	note D#, 5
	rest 3
	note C_, 3
	rest 5
	octave 4
	note A#, 5
	rest 3
	octave 5
	note C#, 5
	rest 3
	note F_, 3
	rest 5
	note C#, 5
	rest 3
	octave 4
	note A_, 5
	rest 3
	octave 5
	note C_, 5
	rest 3
	note E_, 5
	rest 3
	note C_, 5
	rest 3
	octave 4
	note F#, 5
	rest 3
	note A#, 5
	rest 3
	octave 5
	note C#, 3
	rest 5
	octave 4
	note A#, 5
	rest 3
	note A_, 5
	rest 3
	octave 5
	note C_, 3
	rest 5
	note D#, 5
	rest 3
	note C_, 3
	rest 5
	octave 4
	note A#, 5
	rest 3
	octave 5
	note C#, 5
	rest 3
	note F_, 3
	rest 5
	note C#, 5
	rest 3
	octave 4
	note A_, 5
	rest 3
	octave 5
	note C_, 5
	rest 3
	note E_, 5
	rest 3
	note C_, 5
	rest 3
	octave 4
	note F#, 5
	rest 3
	note A#, 5
	rest 3
	octave 5
	note C#, 3
	rest 5
	octave 4
	note A#, 5
	rest 3
	note A_, 5
	rest 3
	octave 5
	note C_, 3
	rest 5
	note D#, 5
	rest 3
	note C_, 3
	rest 5
	octave 4
	note A#, 5
	rest 3
	octave 5
	note C#, 5
	rest 3
	note F_, 3
	rest 5
	note C#, 5
	rest 3
	octave 4
	note A_, 5
	rest 3
	octave 5
	note C_, 5
	rest 3
	note E_, 5
	rest 3
	note C_, 5
	rest 3
	octave 4
	note F#, 5
	rest 3
	note A#, 5
	rest 3
	octave 5
	note C#, 3
	rest 5
	octave 4
	note A#, 5
	rest 3
	note A_, 5
	rest 3
	octave 5
	note C_, 3
	rest 5
	note D#, 5
	rest 3
	note C_, 3
	rest 5
	octave 4
	note A#, 5
	rest 3
	octave 5
	note C#, 5
	rest 3
	note F_, 3
	rest 5
	note C#, 5
	rest 3
	octave 4
	note A_, 5
	rest 3
	octave 5
	note C_, 5
	rest 3
	note E_, 5
	rest 3
	note C_, 5
	rest 3
	octave 4
	note F#, 5
	rest 3
	note A#, 5
	rest 3
	octave 5
	note C#, 3
	rest 5
	octave 4
	note A#, 5
	rest 3
	duty_cycle 0
	vibrato 18, 5, 3
	note A_, 16
	note G#, 16
	vibrato 7, 3, 1
	duty_cycle 2
	note A#, 5
	rest 3
	octave 5
	note C#, 5
	rest 3
	note F_, 3
	rest 5
	note C#, 5
	rest 3
	octave 4
	note A_, 5
	rest 3
	octave 5
	note C_, 5
	rest 3
	note E_, 5
	rest 3
	note C_, 5
	rest 3
	octave 4
	note F#, 5
	rest 3
	note A#, 5
	rest 3
	octave 5
	note C#, 3
	rest 5
	octave 4
	note A#, 5
	rest 3
	note A_, 5
	rest 3
	octave 5
	note C_, 3
	rest 5
	note D#, 5
	rest 3
	note C_, 3
	rest 5
	octave 4
	note A_, 5
	rest 3
	octave 5
	note C#, 5
	rest 3
	note F_, 3
	rest 5
	note C#, 5
	rest 3
	octave 4
	note A_, 5
	rest 3
	octave 5
	note C_, 5
	rest 3
	note E_, 5
	rest 3
	note C_, 5
	rest 3
	octave 4
	note F#, 5
	rest 3
	note A#, 5
	rest 3
	octave 5
	note C#, 3
	rest 5
	octave 4
	note A#, 5
	rest 3
	note A_, 5
	rest 3
	octave 5
	note C_, 3
	rest 5
	note D#, 5
	rest 3
	note C_, 3
	rest 5
	octave 4
	note A#, 5
	rest 3
	octave 5
	note C#, 5
	rest 3
	note F_, 3
	rest 5
	note C#, 5
	rest 3
	octave 4
	note A_, 5
	rest 3
	octave 5
	note C_, 5
	rest 3
	note E_, 5
	rest 3
	note C_, 5
	rest 3
	octave 4
	note F#, 5
	rest 3
	note A#, 5
	rest 3
	octave 5
	note C#, 3
	rest 5
	octave 4
	note A#, 5
	rest 3
	note A_, 5
	rest 3
	octave 5
	note C_, 3
	rest 5
	note D#, 5
	rest 3
	note C_, 3
	rest 5
	octave 4
	note A#, 5
	rest 3
	octave 5
	note C#, 5
	rest 3
	note F_, 3
	rest 5
	note C#, 5
	rest 3
	octave 4
	note A_, 5
	rest 3
	octave 5
	note C_, 5
	rest 3
	note E_, 5
	rest 3
	note C_, 5
	rest 3
	octave 4
	note F#, 5
	rest 3
	note A#, 5
	rest 3
	octave 5
	note C#, 3
	rest 5
	octave 4
	note A#, 5
	rest 3
	note A_, 5
	rest 3
	octave 5
	note C_, 3
	rest 5
	note D#, 5
	rest 3
	note C_, 3
	rest 5
	octave 4
	note A#, 5
	rest 3
	octave 5
	note C#, 5
	rest 3
	note F_, 3
	rest 5
	note C#, 5
	rest 3
	octave 4
	note A_, 5
	rest 3
	octave 5
	note C_, 5
	rest 3
	note E_, 5
	rest 3
	note C_, 5
	rest 3
	octave 4
	note F#, 5
	rest 3
	note A#, 5
	rest 3
	octave 5
	note C#, 3
	rest 5
	octave 4
	note A#, 5
	rest 3
	note A_, 5
	rest 3
	octave 5
	note C_, 3
	rest 16
	rest 5
	octave 4
	note A#, 5
	rest 3
	octave 5
	note C#, 5
	rest 3
	note F_, 3
	rest 5
	note C#, 5
	rest 3
	octave 4
	note A_, 5
	rest 3
	octave 5
	note C_, 5
	rest 3
	note E_, 5
	rest 3
	note C_, 5
	rest 3
	octave 4
	note F#, 5
	rest 3
	note A#, 5
	rest 3
	octave 5
	note C#, 3
	rest 5
	octave 4
	note A#, 5
	rest 3
	note A_, 5
	rest 3
	octave 5
	note C_, 3
	rest 5
	note D#, 5
	rest 3
	note C_, 3
	rest 5
	octave 4
	note A#, 5
	rest 3
	octave 5
	note C#, 5
	rest 3
	note F_, 3
	rest 5
	note C#, 5
	rest 3
	octave 4
	note A_, 5
	rest 3
	octave 5
	note C_, 5
	rest 3
	note E_, 5
	rest 3
	note C_, 5
	rest 3
	octave 4
	note F#, 5
	rest 3
	note A#, 5
	rest 3
	octave 5
	note C#, 3
	rest 5
	octave 4
	note A#, 5
	rest 3
	vibrato 18, 5, 3
	duty_cycle 0
	note A_, 16
	note G#, 16
	duty_cycle 2
	vibrato 7, 3, 1
	note A#, 5
	rest 3
	octave 5
	note C#, 5
	rest 3
	note F_, 3
	rest 5
	note C#, 5
	rest 3
	octave 4
	note A_, 5
	rest 3
	octave 5
	note C_, 5
	rest 3
	note E_, 5
	rest 3
	note C_, 5
	rest 3
	octave 4
	note F#, 5
	rest 3
	note A#, 5
	rest 3
	octave 5
	note C#, 3
	rest 5
	octave 4
	note A#, 5
	rest 3
	note A_, 5
	rest 3
	octave 5
	note C_, 3
	rest 5
	note D#, 5
	rest 3
	note C_, 3
	rest 5
	octave 4
	note A#, 5
	rest 3
	octave 5
	note C#, 5
	rest 3
	note F_, 3
	rest 5
	note C#, 5
	rest 3
	octave 4
	note A_, 5
	rest 3
	octave 5
	note C_, 5
	rest 3
	note E_, 5
	rest 3
	note C_, 5
	rest 3
	octave 4
	note F#, 5
	rest 3
	note A#, 5
	rest 3
	octave 5
	note C#, 3
	rest 5
	octave 4
	note A#, 5
	rest 3
	note A_, 5
	rest 3
	octave 5
	note C_, 3
	rest 5
	note D#, 5
	rest 3
	note C_, 3
	rest 5
	octave 4
	note A#, 5
	rest 3
	octave 5
	note C#, 5
	rest 3
	note F_, 3
	rest 5
	note C#, 5
	rest 3
	octave 4
	note A_, 5
	rest 3
	octave 5
	note C_, 5
	rest 3
	note E_, 5
	rest 3
	note C_, 5
	rest 3
	octave 4
	note F#, 5
	rest 3
	note A#, 5
	rest 3
	octave 5
	note C#, 3
	rest 5
	octave 4
	note A#, 5
	rest 3
	note A_, 5
	rest 3
	octave 5
	note C_, 3
	rest 5
	note D#, 5
	rest 3
	note C_, 3
	rest 5
	octave 4
	note A#, 5
	rest 3
	octave 5
	note C#, 5
	rest 3
	note F_, 3
	rest 5
	note C#, 5
	rest 3
	octave 4
	note A_, 5
	rest 3
	octave 5
	note C_, 5
	rest 3
	note E_, 5
	rest 3
	note C_, 5
	rest 3
	octave 4
	note F#, 5
	rest 3
	note A#, 5
	rest 3
	octave 5
	note C#, 3
	rest 5
	octave 4
	note A#, 5
	rest 3
	note A_, 5
	rest 3
	octave 5
	note C_, 3
	rest 5
	note D#, 5
	rest 3
	note C_, 3
	rest 5
	sound_jump .mainloop

Music_Monochrome_Ch2:
.mainloop:
	note_type 12, 10, 7
	rest 16
	rest 16
	rest 16
	rest 16
	rest 16
	rest 16
	rest 16
	rest 16
	rest 16
	rest 16
	rest 16
	rest 16
	rest 16
	rest 16
	rest 16
	rest 16
	rest 16
	rest 16
	rest 16
	rest 16
	rest 16
	rest 16
	rest 16
	volume_envelope 12, 8
	duty_cycle 0
	vibrato 18, 5, 3
	octave 4
	note C_, 8
	octave 3
	note B_, 8
	rest 16
	rest 16
	rest 16
	rest 16
	rest 16
	rest 16
	rest 16
	rest 16
	rest 16
	rest 16
	rest 16
	rest 16
	rest 16
	rest 16
	rest 16
	rest 16
	rest 16
	rest 16
	rest 16
	rest 16
	rest 16
	rest 16
	rest 16
	rest 16
	rest 16
	rest 16
	rest 16
	octave 4
	note C_, 8
	octave 3
	note B_, 8
	rest 16
	rest 16
	rest 16
	rest 16
	rest 16
	rest 16
	rest 16
	rest 16
	rest 16
	rest 16
	rest 16
	rest 16
	rest 16
	rest 16
	rest 16
	rest 16
	rest 16
	rest 16
	rest 16
	rest 16
	rest 16
	rest 16
	rest 16
	rest 16
	rest 16
	rest 16
	rest 16
	octave 4
	note C_, 8
	octave 3
	note B_, 8
	rest 4
	octave 2
	vibrato 18, 4, 3
	duty_cycle 1
	volume_envelope 4, -1
	note D#, 1
	note D#, 1
	note D#, 1
	note D#, 1
	note D#, 1
	note D#, 1
	note D#, 1
	note D#, 1
	note D#, 1
	note D#, 1
	note D#, 1
	note D#, 1
	rest 1
	note D_, 1
	note D_, 1
	note D_, 1
	note D_, 1
	note D_, 1
	note D_, 1
	note D_, 1
	note D_, 1
	note D_, 1
	note D_, 1
	note D_, 1
	note D_, 1
	note D_, 1
	note D_, 1
	note D_, 1
	rest 1
	note C#, 1
	note C#, 1
	note C#, 1
	note C#, 1
	note C#, 1
	note C#, 1
	note C#, 1
	note C#, 1
	note C#, 1
	note C#, 1
	note C#, 1
	note C#, 1
	note C#, 1
	note C#, 1
	note C#, 1
	rest 1
	note C_, 1
	note C_, 1
	note C_, 1
	note C_, 1
	note C_, 1
	note C_, 1
	note C_, 1
	note C_, 1
	note C_, 1
	note C_, 1
	note C_, 1
	note C_, 1
	note C_, 1
	note C_, 1
	note C_, 1
	rest 1
	note D#, 1
	note D#, 1
	note D#, 1
	note D#, 1
	note D#, 1
	note D#, 1
	note D#, 1
	note D#, 1
	note D#, 1
	note D#, 1
	note D#, 1
	note D#, 1
	note D#, 1
	note D#, 1
	note D#, 1
	note D#, 1
	rest 1
	note D_, 1
	note D_, 1
	note D_, 1
	note D_, 1
	note D_, 1
	note D_, 1
	note D_, 1
	note D_, 1
	note D_, 1
	note D_, 1
	note D_, 1
	note D_, 1
	note D_, 1
	note D_, 1
	note D_, 1
	rest 1
	note C#, 1
	note C#, 1
	note C#, 1
	note C#, 1
	note C#, 1
	note C#, 1
	note C#, 1
	note C#, 1
	note C#, 1
	note C#, 1
	note C#, 1
	note C#, 1
	note C#, 1
	note C#, 1
	note C#, 1
	rest 1
	note C_, 1
	note C_, 1
	note C_, 1
	note C_, 1
	note C_, 1
	note C_, 1
	note C_, 1
	note C_, 1
	note C_, 1
	note C_, 1
	note C_, 1
	note C_, 1
	note C_, 1
	note C_, 1
	note C_, 1
	rest 1
	note D#, 1
	note D#, 1
	note D#, 1
	note D#, 1
	note D#, 1
	note D#, 1
	note D#, 1
	note D#, 1
	note D#, 1
	note D#, 1
	note D#, 1
	note D#, 1
	note D#, 1
	note D#, 1
	note D#, 1
	rest 1
	note D_, 1
	note D_, 1
	note D_, 1
	note D_, 1
	note D_, 1
	note D_, 1
	note D_, 1
	note D_, 1
	note D_, 1
	note D_, 1
	note D_, 1
	note D_, 1
	note D_, 1
	note D_, 1
	note D_, 1
	rest 1
	note C#, 1
	note C#, 1
	note C#, 1
	note C#, 1
	note C#, 1
	note C#, 1
	note C#, 1
	note C#, 1
	note C#, 1
	note C#, 1
	note C#, 1
	note C#, 1
	note C#, 1
	note C#, 1
	note C#, 1
	rest 1
	note C_, 1
	note C_, 1
	note C_, 1
	note C_, 1
	note C_, 1
	note C_, 1
	note C_, 1
	note C_, 1
	note C_, 1
	note C_, 1
	note C_, 1
	note C_, 1
	note C_, 1
	note C_, 1
	note C_, 1
	rest 1
	note D#, 1
	note D#, 1
	note D#, 1
	note D#, 1
	note D#, 1
	note D#, 1
	note D#, 1
	note D#, 1
	note D#, 1
	note D#, 1
	note D#, 1
	note D#, 1
	note D#, 1
	note D#, 1
	note D#, 1
	note D#, 1
	rest 1
	note D_, 1
	note D_, 1
	note D_, 1
	note D_, 1
	note D_, 1
	note D_, 1
	note D_, 1
	note D_, 1
	note D_, 1
	note D_, 1
	note D_, 1
	note D_, 1
	note D_, 1
	note D_, 1
	note D_, 1
	rest 1
	note C#, 1
	note C#, 1
	note C#, 1
	note C#, 1
	note C#, 1
	note C#, 1
	note C#, 1
	note C#, 1
	note C#, 1
	note C#, 1
	note C#, 1
	note C#, 1
	note C#, 1
	note C#, 1
	note C#, 1
	rest 1
	note C_, 1
	note C_, 1
	note C_, 1
	note C_, 1
	note C_, 1
	note C_, 1
	note C_, 1
	note C_, 1
	note C_, 1
	note C_, 1
	note C_, 1
	note C_, 1
	note C_, 1
	sound_jump .mainloop

Music_Monochrome_Ch3:
	note_type 12, 3, 0
.mainloop:
	rest 16
	rest 16
	rest 16
	rest 16
	rest 16
	rest 16
	rest 16
	rest 16
	octave 4
	volume_envelope 3, 12
	note F_, 2
	rest 2
	note F_, 2
	rest 2
	note F_, 2
	rest 2
	note F_, 2
	rest 2
	note C_, 2
	rest 2
	note C_, 2
	rest 2
	note C_, 2
	rest 2
	note C_, 2
	rest 2
	octave 3
	note A#, 2
	rest 2
	note A#, 2
	rest 2
	note A#, 2
	rest 2
	note A#, 2
	rest 2
	octave 4
	note C_, 2
	rest 2
	note C_, 2
	rest 2
	note C_, 2
	rest 2
	note C_, 2
	rest 2
	note F_, 2
	rest 2
	note F_, 2
	rest 2
	note F_, 2
	rest 2
	note F_, 2
	rest 2
	note C_, 2
	rest 2
	note C_, 2
	rest 2
	note C_, 2
	rest 2
	note C_, 2
	rest 2
	octave 3
	note A#, 2
	rest 2
	note A#, 2
	rest 2
	note A#, 2
	rest 2
	note A#, 2
	rest 2
	octave 4
	note C_, 2
	rest 2
	note C_, 2
	rest 2
	note C_, 2
	rest 2
	note C_, 2
	rest 2
	note F_, 2
	rest 2
	note F_, 2
	rest 2
	note F_, 2
	rest 2
	note F_, 2
	rest 2
	note C_, 2
	rest 2
	note C_, 2
	rest 2
	note C_, 2
	rest 2
	note C_, 2
	rest 2
	octave 3
	note A#, 2
	rest 2
	note A#, 2
	rest 2
	note A#, 2
	rest 2
	note A#, 2
	rest 2
	octave 4
	note C_, 2
	rest 2
	note C_, 2
	rest 2
	note C_, 2
	rest 2
	note C_, 2
	rest 2
	note F_, 2
	rest 2
	note F_, 2
	rest 2
	note F_, 2
	rest 2
	note F_, 2
	rest 2
	note C_, 2
	rest 2
	note C_, 2
	rest 2
	note C_, 2
	rest 2
	note C_, 2
	rest 2
	octave 3
	note A#, 2
	rest 2
	note A#, 2
	rest 2
	note A#, 2
	rest 2
	note A#, 2
	rest 2
	octave 4
	note C_, 2
	rest 2
	note C_, 2
	rest 2
	note C_, 2
	rest 2
	note C_, 2
	rest 2
	note F_, 2
	rest 2
	note F_, 2
	rest 2
	note F_, 2
	rest 2
	note F_, 2
	rest 2
	note C_, 2
	rest 2
	note C_, 2
	rest 2
	note C_, 2
	rest 2
	note C_, 2
	rest 2
	octave 3
	note A#, 2
	rest 2
	note A#, 2
	rest 2
	note A#, 2
	rest 2
	note A#, 2
	rest 2
	octave 4
	note C_, 2
	rest 2
	note C_, 2
	rest 2
	note C_, 2
	rest 2
	note C_, 2
	rest 2
	note F_, 2
	rest 2
	note F_, 2
	rest 2
	note F_, 2
	rest 2
	note F_, 2
	rest 2
	note C_, 2
	rest 2
	note C_, 2
	rest 2
	note C_, 2
	rest 2
	note C_, 2
	rest 2
	octave 3
	note A#, 2
	rest 2
	note A#, 2
	rest 2
	note A#, 2
	rest 2
	note A#, 2
	rest 2
	octave 4
	note C_, 2
	rest 2
	note C_, 2
	rest 2
	note C_, 2
	rest 2
	note C_, 2
	rest 2
	note F_, 2
	rest 2
	note F_, 2
	rest 2
	note F_, 2
	rest 2
	note F_, 2
	rest 2
	note C_, 2
	rest 2
	note C_, 2
	rest 2
	note C_, 2
	rest 2
	note C_, 2
	rest 2
	octave 3
	note A#, 2
	rest 2
	note A#, 2
	rest 2
	note A#, 2
	rest 2
	note A#, 2
	rest 2
	octave 4
	note C_, 2
	rest 2
	note C_, 2
	rest 2
	note C_, 2
	rest 2
	note C_, 2
	rest 2
	note F_, 2
	rest 2
	note F_, 2
	rest 2
	note F_, 2
	rest 2
	note F_, 2
	rest 2
	note C_, 2
	rest 2
	note C_, 2
	rest 2
	note C_, 2
	rest 2
	note C_, 2
	rest 2
	octave 3
	note A#, 2
	rest 2
	note A#, 2
	rest 2
	note A#, 2
	rest 2
	note A#, 2
	rest 2
	octave 4
	note C_, 2
	rest 2
	note C_, 2
	rest 2
	note C_, 2
	rest 2
	note C_, 2
	rest 2
	note F_, 2
	rest 2
	note F_, 2
	rest 2
	note F_, 2
	rest 2
	note F_, 2
	rest 2
	note C_, 2
	rest 2
	note C_, 2
	rest 2
	note C_, 2
	rest 2
	note C_, 2
	rest 2
	octave 3
	note A#, 2
	rest 2
	note A#, 2
	rest 2
	note A#, 2
	rest 2
	note A#, 2
	rest 2
	octave 4
	note C_, 2
	rest 2
	note C_, 2
	rest 2
	note C_, 2
	rest 2
	note C_, 2
	rest 2
	note F_, 2
	rest 2
	note F_, 2
	rest 2
	note F_, 2
	rest 2
	note F_, 2
	rest 2
	note C_, 2
	rest 2
	note C_, 2
	rest 2
	note C_, 2
	rest 2
	note C_, 2
	rest 2
	octave 3
	note A#, 2
	rest 2
	note A#, 2
	rest 2
	note A#, 2
	rest 2
	note A#, 2
	rest 2
	octave 4
	note C_, 2
	rest 2
	note C_, 2
	rest 2
	note C_, 2
	rest 2
	note C_, 2
	rest 2
	note F_, 2
	rest 2
	note F_, 2
	rest 2
	note F_, 2
	rest 2
	note F_, 2
	rest 2
	note C_, 2
	rest 2
	note C_, 2
	rest 2
	note C_, 2
	rest 2
	note C_, 2
	rest 2
	octave 3
	note A#, 2
	rest 2
	note A#, 2
	rest 2
	note A#, 2
	rest 2
	note A#, 2
	rest 2
	octave 4
	note C_, 2
	rest 2
	note C_, 2
	rest 2
	note C_, 2
	rest 2
	note C_, 2
	rest 2
	note F_, 2
	rest 2
	note F_, 2
	rest 2
	note F_, 2
	rest 2
	note F_, 2
	rest 2
	note C_, 2
	rest 2
	note C_, 2
	rest 2
	note C_, 2
	rest 2
	note C_, 2
	rest 2
	octave 3
	note A#, 2
	rest 2
	note A#, 2
	rest 2
	note A#, 2
	rest 2
	note A#, 2
	rest 16
	rest 2
	octave 4
	note F_, 2
	rest 2
	note F_, 2
	rest 2
	note F_, 2
	rest 2
	note F_, 2
	rest 2
	note C_, 2
	rest 2
	note C_, 2
	rest 2
	note C_, 2
	rest 2
	note C_, 2
	rest 2
	octave 3
	note A#, 2
	rest 2
	note A#, 2
	rest 2
	note A#, 2
	rest 2
	note A#, 2
	rest 2
	octave 4
	note C_, 2
	rest 2
	note C_, 2
	rest 2
	note C_, 2
	rest 2
	note C_, 2
	rest 2
	note F_, 2
	rest 2
	note F_, 2
	rest 2
	note F_, 2
	rest 2
	note F_, 2
	rest 2
	note C_, 2
	rest 2
	note C_, 2
	rest 2
	note C_, 2
	rest 2
	note C_, 2
	rest 2
	octave 3
	note A#, 2
	rest 2
	note A#, 2
	rest 2
	note A#, 2
	rest 2
	note A#, 2
	rest 2
	octave 4
	note C_, 2
	rest 2
	note C_, 2
	rest 2
	note C_, 2
	rest 2
	note C_, 2
	rest 2
	note F_, 2
	rest 2
	note F_, 2
	rest 2
	note F_, 2
	rest 2
	note F_, 2
	rest 2
	note C_, 2
	rest 2
	note C_, 2
	rest 2
	note C_, 2
	rest 2
	note C_, 2
	rest 2
	octave 3
	note A#, 2
	rest 2
	note A#, 2
	rest 2
	note A#, 2
	rest 2
	note A#, 2
	rest 2
	octave 4
	note C_, 2
	rest 2
	note C_, 2
	rest 2
	note C_, 2
	rest 2
	note C_, 2
	rest 2
	note F_, 2
	rest 2
	note F_, 2
	rest 2
	note F_, 2
	rest 2
	note F_, 2
	rest 2
	note C_, 2
	rest 2
	note C_, 2
	rest 2
	note C_, 2
	rest 2
	note C_, 2
	rest 2
	octave 3
	note A#, 2
	rest 2
	note A#, 2
	rest 2
	note A#, 2
	rest 2
	note A#, 2
	rest 2
	octave 4
	note C_, 2
	rest 2
	note C_, 2
	rest 10
	note F_, 2
	rest 2
	note F_, 2
	rest 2
	note F_, 2
	rest 2
	note F_, 2
	rest 2
	note C_, 2
	rest 2
	note C_, 2
	rest 2
	note C_, 2
	rest 2
	note C_, 2
	rest 2
	octave 3
	note A#, 2
	rest 2
	note A#, 2
	rest 2
	note A#, 2
	rest 2
	note A#, 2
	rest 2
	octave 4
	note C_, 2
	rest 2
	note C_, 2
	rest 2
	note C_, 2
	rest 2
	note C_, 2
	rest 2
	note F_, 2
	rest 2
	note F_, 2
	rest 2
	note F_, 2
	rest 2
	note F_, 2
	rest 2
	note C_, 2
	rest 2
	note C_, 2
	rest 2
	note C_, 2
	rest 2
	note C_, 2
	rest 2
	octave 3
	note A#, 2
	rest 2
	note A#, 2
	rest 2
	note A#, 2
	rest 2
	note A#, 2
	rest 2
	octave 4
	note C_, 2
	rest 2
	note C_, 2
	rest 2
	note C_, 2
	rest 2
	note C_, 2
	rest 5
	octave 2
	note D#, 13
	note D_, 16
	note C#, 16
	note C_, 16
	note D#, 16
	note D_, 16
	note C#, 16
	note C_, 16
	note D#, 16
	note D_, 16
	note C#, 16
	note C_, 16
	note D#, 16
	note D_, 16
	note C#, 16
	note C_, 16
	sound_jump .mainloop

Music_Monochrome_Ch4:
	toggle_noise 5
	drum_speed 12
.mainloop:
	drum_note 12, 4
	drum_note 12, 4
	drum_note 12, 4
	drum_note 12, 4
	drum_note 12, 4
	drum_note 12, 4
	drum_note 12, 4
	drum_note 12, 4
	drum_note 12, 4
	drum_note 12, 4
	drum_note 12, 4
	drum_note 12, 4
	drum_note 12, 4
	drum_note 12, 4
	drum_note 12, 4
	drum_note 12, 4
	drum_note 12, 4
	drum_note 12, 4
	drum_note 12, 4
	drum_note 12, 4
	drum_note 12, 4
	drum_note 12, 4
	drum_note 12, 4
	drum_note 12, 4
	drum_note 12, 4
	drum_note 12, 4
	drum_note 12, 4
	drum_note 12, 4
	drum_note 12, 4
	drum_note 12, 4
	drum_note 12, 4
	drum_note 12, 4
	drum_note 3, 2
	drum_note 5, 2
	drum_note 3, 2
	drum_note 5, 2
	drum_note 3, 2
	drum_note 5, 2
	drum_note 3, 2
	drum_note 5, 2
	drum_note 3, 2
	drum_note 5, 2
	drum_note 3, 1
	drum_note 3, 1
	drum_note 3, 1
	drum_note 3, 1
	drum_note 3, 2
	drum_note 5, 2
	drum_note 3, 2
	drum_note 5, 2
	drum_note 3, 2
	drum_note 5, 2
	drum_note 3, 2
	drum_note 5, 2
	drum_note 3, 2
	drum_note 5, 2
	drum_note 3, 2
	drum_note 5, 2
	drum_note 3, 2
	drum_note 5, 2
	drum_note 3, 1
	drum_note 3, 1
	drum_note 3, 1
	drum_note 3, 1
	drum_note 3, 2
	drum_note 5, 2
	drum_note 3, 2
	drum_note 5, 2
	drum_note 3, 2
	drum_note 5, 2
	drum_note 3, 2
	drum_note 5, 2
	drum_note 3, 2
	drum_note 5, 2
	drum_note 3, 2
	drum_note 5, 2
	drum_note 3, 2
	drum_note 5, 2
	drum_note 3, 1
	drum_note 3, 1
	drum_note 3, 1
	drum_note 3, 1
	drum_note 3, 2
	drum_note 5, 2
	drum_note 3, 2
	drum_note 5, 2
	drum_note 3, 2
	drum_note 5, 2
	drum_note 3, 2
	drum_note 5, 2
	drum_note 3, 2
	drum_note 5, 2
	drum_note 3, 2
	drum_note 5, 2
	drum_note 3, 2
	drum_note 5, 2
	drum_note 3, 1
	drum_note 3, 1
	drum_note 3, 1
	drum_note 3, 1
	drum_note 3, 2
	drum_note 5, 2
	drum_note 3, 2
	drum_note 5, 2
	drum_note 3, 2
	drum_note 5, 2
	drum_note 3, 2
	drum_note 5, 2
	drum_note 3, 2
	drum_note 5, 2
	drum_note 3, 2
	drum_note 5, 2
	drum_note 3, 2
	drum_note 5, 2
	drum_note 3, 1
	drum_note 3, 1
	drum_note 3, 1
	drum_note 3, 1
	drum_note 3, 2
	drum_note 5, 2
	drum_note 3, 2
	drum_note 5, 2
	drum_note 3, 2
	drum_note 5, 2
	drum_note 3, 2
	drum_note 5, 2
	drum_note 3, 2
	drum_note 5, 2
	drum_note 3, 2
	drum_note 5, 2
	drum_note 3, 2
	drum_note 5, 2
	drum_note 3, 1
	drum_note 3, 1
	drum_note 3, 1
	drum_note 3, 1
	drum_note 3, 2
	drum_note 5, 2
	drum_note 3, 2
	drum_note 5, 2
	drum_note 3, 2
	drum_note 5, 2
	drum_note 3, 2
	drum_note 5, 2
	drum_note 3, 2
	drum_note 5, 2
	drum_note 3, 2
	drum_note 5, 2
	drum_note 3, 2
	drum_note 5, 2
	drum_note 3, 1
	drum_note 3, 1
	drum_note 3, 1
	drum_note 3, 1
	drum_note 3, 2
	drum_note 5, 2
	drum_note 3, 2
	drum_note 5, 2
	drum_note 3, 2
	drum_note 5, 2
	drum_note 3, 2
	drum_note 5, 2
	drum_note 3, 2
	drum_note 5, 2
	drum_note 3, 2
	drum_note 5, 1
	rest 16
	rest 1
	drum_note 12, 2
	drum_note 12, 2
	drum_note 3, 2
	drum_note 12, 2
	drum_note 12, 2
	drum_note 3, 2
	drum_note 12, 2
	drum_note 12, 2
	drum_note 3, 2
	drum_note 12, 2
	drum_note 12, 2
	drum_note 3, 2
	drum_note 12, 2
	drum_note 12, 2
	drum_note 3, 4
	drum_note 12, 2
	drum_note 12, 2
	drum_note 3, 2
	drum_note 12, 2
	drum_note 12, 2
	drum_note 3, 2
	drum_note 12, 2
	drum_note 12, 2
	drum_note 3, 2
	drum_note 12, 2
	drum_note 12, 2
	drum_note 3, 2
	drum_note 12, 2
	drum_note 12, 2
	drum_note 3, 4
	drum_note 12, 2
	drum_note 12, 2
	drum_note 3, 2
	drum_note 12, 2
	drum_note 12, 2
	drum_note 3, 2
	drum_note 12, 2
	drum_note 12, 2
	drum_note 3, 2
	drum_note 12, 2
	drum_note 12, 2
	drum_note 3, 2
	octave 8
	drum_note 12, 2
	drum_note 12, 2
	drum_note 3, 4
	drum_note 12, 2
	drum_note 12, 2
	drum_note 3, 2
	drum_note 12, 2
	drum_note 12, 2
	drum_note 3, 2
	drum_note 12, 2
	drum_note 12, 2
	drum_note 3, 2
	drum_note 12, 2
	drum_note 12, 2
	drum_note 3, 2
	rest 8
	drum_note 12, 2
	drum_note 12, 2
	drum_note 3, 2
	drum_note 12, 2
	drum_note 12, 2
	drum_note 3, 2
	drum_note 12, 2
	drum_note 12, 2
	drum_note 3, 2
	drum_note 12, 2
	drum_note 12, 2
	drum_note 3, 2
	drum_note 12, 2
	drum_note 12, 2
	drum_note 3, 4
	drum_note 12, 2
	drum_note 12, 2
	drum_note 3, 2
	drum_note 12, 2
	drum_note 12, 2
	drum_note 3, 2
	drum_note 12, 2
	drum_note 12, 2
	drum_note 3, 2
	drum_note 12, 2
	drum_note 12, 2
	drum_note 3, 2
	drum_note 12, 2
	drum_note 12, 2
	drum_note 3, 4
	drum_note 12, 2
	drum_note 12, 2
	drum_note 3, 2
	drum_note 12, 2
	drum_note 12, 2
	drum_note 3, 2
	drum_note 12, 2
	drum_note 12, 2
	drum_note 3, 2
	drum_note 12, 2
	drum_note 12, 2
	drum_note 3, 2
	drum_note 12, 2
	drum_note 12, 2
	drum_note 3, 4
	drum_note 12, 2
	drum_note 12, 2
	drum_note 3, 2
	drum_note 12, 2
	drum_note 12, 2
	drum_note 3, 2
	drum_note 12, 2
	drum_note 12, 2
	drum_note 3, 2
	drum_note 12, 2
	drum_note 12, 2
	drum_note 3, 2
	drum_note 12, 2
	drum_note 12, 2
	drum_note 3, 4
	drum_note 12, 4
	drum_note 3, 4
	drum_note 12, 2
	drum_note 12, 2
	drum_note 3, 4
	drum_note 12, 2
	drum_note 12, 2
	drum_note 3, 2
	drum_note 4, 4
	drum_note 12, 2
	drum_note 3, 4
	drum_note 12, 4
	drum_note 3, 4
	drum_note 12, 2
	drum_note 12, 2
	drum_note 3, 4
	drum_note 12, 2
	drum_note 12, 2
	drum_note 3, 2
	drum_note 4, 4
	drum_note 12, 2
	drum_note 3, 4
	drum_note 12, 4
	drum_note 3, 4
	drum_note 12, 2
	drum_note 12, 2
	drum_note 3, 4
	drum_note 12, 2
	drum_note 12, 2
	drum_note 3, 2
	drum_note 4, 4
	drum_note 12, 2
	drum_note 3, 4
	drum_note 12, 4
	drum_note 3, 4
	drum_note 12, 2
	drum_note 12, 2
	drum_note 3, 4
	drum_note 12, 2
	drum_note 12, 2
	drum_note 3, 2
	drum_note 4, 4
	drum_note 12, 2
	drum_note 3, 4
	drum_note 12, 4
	drum_note 3, 4
	drum_note 12, 2
	drum_note 12, 2
	drum_note 3, 4
	drum_note 12, 2
	drum_note 12, 2
	drum_note 3, 2
	drum_note 4, 4
	drum_note 12, 2
	drum_note 3, 4
	drum_note 12, 4
	drum_note 3, 4
	drum_note 12, 2
	drum_note 12, 2
	drum_note 3, 4
	drum_note 12, 2
	drum_note 12, 2
	drum_note 3, 2
	drum_note 4, 4
	drum_note 12, 2
	drum_note 3, 4
	drum_note 12, 4
	drum_note 3, 4
	drum_note 12, 2
	drum_note 12, 2
	drum_note 3, 4
	drum_note 12, 2
	drum_note 12, 2
	drum_note 3, 2
	drum_note 4, 4
	drum_note 12, 2
	drum_note 3, 4
	drum_note 12, 4
	drum_note 3, 4
	drum_note 12, 2
	drum_note 12, 2
	drum_note 3, 2
	drum_note 11, 1
	drum_note 11, 1
	drum_note 11, 1
	drum_note 11, 1
	drum_note 11, 1
	drum_note 11, 1
	drum_note 11, 1
	drum_note 11, 1
	drum_note 11, 1
	drum_note 11, 1
	drum_note 11, 1
	drum_note 11, 1
	drum_note 11, 1
	drum_note 11, 1
	drum_note 11, 1
	drum_note 11, 1
	drum_note 11, 2
	drum_note 12, 4
	drum_note 3, 6
	drum_note 12, 1
	drum_note 12, 1
	drum_note 10, 4
	drum_note 12, 4
	drum_note 3, 6
	drum_note 12, 2
	drum_note 12, 2
	drum_note 3, 2
	drum_note 12, 4
	drum_note 3, 6
	drum_note 12, 1
	drum_note 12, 1
	drum_note 10, 4
	drum_note 12, 4
	drum_note 3, 12
	drum_note 7, 8
	drum_note 7, 8
	drum_note 7, 8
	drum_note 7, 4
	drum_note 3, 4
	drum_note 12, 4
	drum_note 3, 6
	drum_note 12, 1
	drum_note 12, 1
	drum_note 10, 4
	drum_note 12, 4
	drum_note 3, 6
	drum_note 12, 2
	drum_note 12, 2
	drum_note 3, 2
	drum_note 12, 4
	drum_note 3, 6
	drum_note 12, 1
	drum_note 12, 1
	drum_note 10, 4
	drum_note 12, 4
	drum_note 3, 4
	drum_note 12, 2
	drum_note 12, 2
	drum_note 3, 4
	drum_note 12, 4
	drum_note 3, 6
	drum_note 12, 1
	drum_note 12, 1
	drum_note 10, 4
	drum_note 12, 4
	drum_note 3, 6
	drum_note 12, 2
	drum_note 12, 2
	drum_note 3, 2
	drum_note 12, 4
	drum_note 3, 6
	drum_note 12, 1
	drum_note 12, 1
	drum_note 10, 4
	drum_note 12, 4
	drum_note 3, 4
	drum_note 12, 2
	drum_note 12, 6
	drum_note 12, 4
	drum_note 3, 6
	drum_note 12, 1
	drum_note 12, 1
	drum_note 10, 4
	drum_note 12, 4
	drum_note 3, 12
	drum_note 12, 4
	drum_note 3, 6
	drum_note 12, 1
	drum_note 12, 1
	drum_note 10, 4
	drum_note 12, 4
	drum_note 3, 6
	drum_note 12, 2
	drum_note 12, 2
	drum_note 3, 2
	drum_note 12, 4
	drum_note 3, 6
	drum_note 12, 1
	drum_note 12, 1
	drum_note 10, 4
	drum_note 12, 4
	drum_note 3, 12
	drum_note 12, 4
	drum_note 3, 6
	drum_note 12, 1
	drum_note 12, 1
	drum_note 10, 4
	drum_note 12, 4
	drum_note 3, 6
	drum_note 12, 2
	drum_note 12, 2
	drum_note 3, 2
	drum_note 12, 4
	drum_note 3, 6
	drum_note 12, 1
	drum_note 12, 1
	drum_note 10, 4
	drum_note 12, 4
	drum_note 3, 4
	drum_note 12, 2
	drum_note 12, 2
	drum_note 3, 4
	drum_note 12, 4
	drum_note 12, 4
	drum_note 12, 4
	drum_note 12, 4
	drum_note 12, 4
	drum_note 12, 4
	drum_note 12, 4
	drum_note 12, 4
	drum_note 12, 4
	drum_note 12, 4
	drum_note 12, 4
	drum_note 12, 4
	drum_note 12, 4
	drum_note 12, 4
	drum_note 12, 4
	drum_note 12, 4
	drum_note 12, 4
	drum_note 12, 4
	drum_note 12, 4
	drum_note 12, 4
	drum_note 12, 4
	drum_note 12, 4
	drum_note 12, 4
	drum_note 12, 4
	drum_note 12, 4
	drum_note 12, 4
	drum_note 12, 4
	drum_note 12, 4
	drum_note 12, 4
	drum_note 12, 4
	drum_note 12, 4
	drum_note 12, 4
	drum_note 12, 4
	drum_note 12, 4
	drum_note 12, 4
	drum_note 12, 4
	drum_note 12, 4
	drum_note 12, 4
	drum_note 12, 4
	drum_note 12, 4
	drum_note 12, 4
	drum_note 12, 4
	drum_note 12, 4
	drum_note 12, 4
	drum_note 12, 4
	drum_note 12, 4
	drum_note 12, 4
	drum_note 12, 4
	drum_note 12, 1
	rest 16
	rest 16
	rest 16
	rest 15
	sound_jump .mainloop
