Music_BlackKnife:
	channel_count 4
	channel 1, Music_BlackKnife_Ch1
	channel 2, Music_BlackKnife_Ch2
	channel 3, Music_BlackKnife_Ch3
	channel 4, Music_BlackKnife_Ch4

Music_BlackKnife_Ch1:
	volume 7, 7
	note_type 6, 10, 7
	tempo 130
.mainloop:
	rest 16
	rest 16
	rest 16
	rest 16
	rest 16
	rest 16
	rest 16
	rest 16
	octave 5
	volume_envelope 10, -7
	duty_cycle 1
	note F#, 16
	note F#, 16
	note F#, 16
	rest 16
	note F#, 16
	note F#, 16
	note F#, 16
	rest 16
	rest 16
	rest 16
	rest 16
	rest 16
	rest 16
	rest 16
	rest 16
	rest 16
	rest 16
	rest 16
	rest 16
	rest 16
	rest 16
	rest 16
	rest 16
	rest 16
	rest 16
	rest 16
	rest 16
	rest 16
	rest 16
	rest 16
	rest 16
	rest 16
	rest 16
	rest 16
	rest 16
	rest 16
	rest 16
	rest 16
	rest 16
	rest 16
	rest 16
	rest 16
	rest 16
	rest 16
	rest 16
	rest 16
	rest 16
	rest 16
	rest 16
	rest 16
	rest 16
	rest 16
	rest 16
	rest 16
	rest 16
	rest 16
	rest 16
	rest 16
	rest 16
	rest 16
	rest 16
	rest 16
	rest 16
	rest 16
	rest 16
	rest 16
	rest 16
	rest 16
	rest 16
	rest 16
	rest 16
	rest 16
	octave 4
	volume_envelope 9, 8
	note A#, 2
	octave 5
	note C_, 2
	note D#, 2
	rest 2
	octave 4
	note A#, 2
	octave 5
	note C_, 2
	note D#, 2
	rest 2
	octave 4
	volume_envelope 7, 8
	note A#, 2
	octave 5
	note C_, 2
	note D#, 2
	rest 2
	octave 4
	note A#, 2
	octave 5
	note C_, 2
	note D#, 2
	rest 2
	octave 4
	volume_envelope 9, 8
	note A#, 2
	octave 5
	note C_, 2
	note D#, 2
	rest 2
	octave 4
	note A#, 2
	octave 5
	note C_, 2
	note D#, 2
	rest 2
	octave 4
	volume_envelope 7, 8
	note A#, 2
	octave 5
	note C_, 2
	note D#, 2
	rest 2
	octave 4
	note A#, 2
	octave 5
	note C_, 2
	note D#, 2
	rest 2
	volume_envelope 9, 8
	note F_, 2
	note D#, 2
	note C#, 2
	octave 4
	note A#, 2
	octave 5
	note F_, 2
	note D#, 2
	note C#, 2
	octave 4
	note A#, 2
	octave 5
	note F_, 2
	note D#, 2
	note C#, 2
	octave 4
	note A#, 2
	octave 5
	note F_, 2
	note D#, 2
	note C#, 2
	octave 4
	note A#, 2
	rest 4
	octave 5
	note F_, 2
	rest 2
	note D#, 2
	rest 2
	note C#, 2
	rest 2
	note C_, 2
	rest 2
	note C#, 2
	rest 2
	note D#, 2
	rest 2
	note G#, 2
	rest 2
	octave 4
	note A#, 2
	octave 5
	note C_, 2
	note D#, 2
	rest 2
	octave 4
	note A#, 2
	octave 5
	note C_, 2
	note D#, 2
	rest 2
	octave 4
	volume_envelope 7, 8
	note A#, 2
	octave 5
	note C_, 2
	note D#, 2
	rest 2
	octave 4
	note A#, 2
	octave 5
	note C_, 2
	note D#, 2
	rest 2
	octave 4
	volume_envelope 9, 8
	note A#, 2
	octave 5
	note C_, 2
	note D#, 2
	rest 2
	octave 4
	note A#, 2
	octave 5
	note C_, 2
	note D#, 2
	rest 2
	octave 4
	volume_envelope 7, 8
	note A#, 2
	octave 5
	note C_, 2
	note D#, 2
	rest 2
	octave 4
	note A#, 2
	octave 5
	note C_, 2
	note D#, 2
	rest 2
	volume_envelope 9, 8
	note F_, 2
	note D#, 2
	note C#, 2
	octave 4
	note A#, 2
	octave 5
	note F_, 2
	note D#, 2
	note C#, 2
	octave 4
	note A#, 2
	octave 5
	note F_, 2
	note D#, 2
	note C#, 2
	octave 4
	note A#, 2
	octave 5
	note F_, 2
	note D#, 2
	note C#, 2
	octave 4
	note A#, 2
	octave 5
	note E_, 2
	note D#, 2
	octave 4
	note B_, 2
	note F#, 2
	octave 5
	note E_, 2
	note D#, 2
	octave 4
	note B_, 2
	note F#, 2
	octave 5
	note E_, 2
	note D#, 2
	octave 4
	note B_, 2
	note F#, 2
	octave 5
	note E_, 2
	note D#, 2
	octave 4
	note B_, 2
	note F#, 2
	note A#, 2
	octave 5
	note C_, 2
	note D#, 2
	rest 2
	octave 4
	note A#, 2
	octave 5
	note C_, 2
	note D#, 2
	rest 2
	octave 4
	volume_envelope 7, 8
	note A#, 2
	octave 5
	note C_, 2
	note D#, 2
	rest 2
	octave 4
	note A#, 2
	octave 5
	note C_, 2
	note D#, 2
	rest 2
	octave 4
	volume_envelope 9, 8
	note A#, 2
	octave 5
	note C_, 2
	note D#, 2
	rest 2
	octave 4
	note A#, 2
	octave 5
	note C_, 2
	note D#, 2
	rest 2
	octave 4
	volume_envelope 7, 8
	note A#, 2
	octave 5
	note C_, 2
	note D#, 2
	rest 2
	octave 4
	note A#, 2
	octave 5
	note C_, 2
	note D#, 2
	rest 2
	volume_envelope 9, 8
	note F_, 2
	note D#, 2
	note C#, 2
	octave 4
	note A#, 2
	octave 5
	note F_, 2
	note D#, 2
	note C#, 2
	octave 4
	note A#, 2
	octave 5
	note F_, 2
	note D#, 2
	note C#, 2
	octave 4
	note A#, 2
	octave 5
	note F_, 2
	note D#, 2
	note C#, 2
	octave 4
	note A#, 2
	rest 4
	octave 5
	note F_, 2
	rest 2
	note D#, 2
	rest 2
	note C#, 2
	rest 2
	note C_, 2
	rest 2
	note C#, 2
	rest 2
	note D#, 2
	rest 2
	note G#, 2
	rest 2
	octave 4
	note A#, 2
	octave 5
	note C_, 2
	note D#, 2
	rest 2
	octave 4
	note A#, 2
	octave 5
	note C_, 2
	note D#, 2
	rest 2
	octave 4
	volume_envelope 7, 8
	note A#, 2
	octave 5
	note C_, 2
	note D#, 2
	rest 2
	octave 4
	note A#, 2
	octave 5
	note C_, 2
	note D#, 2
	rest 2
	octave 4
	volume_envelope 9, 8
	note A#, 2
	octave 5
	note C_, 2
	note D#, 2
	rest 2
	octave 4
	note A#, 2
	octave 5
	note C_, 2
	note D#, 2
	rest 2
	octave 4
	volume_envelope 7, 8
	note A#, 2
	octave 5
	note C_, 2
	note D#, 2
	rest 2
	octave 4
	note A#, 2
	octave 5
	note C_, 2
	note D#, 2
	rest 2
	volume_envelope 9, 8
	note F_, 2
	note D#, 2
	note C#, 2
	octave 4
	note A#, 2
	octave 5
	note F_, 2
	note D#, 2
	note C#, 2
	octave 4
	note A#, 2
	octave 5
	note F_, 2
	note D#, 2
	note C#, 2
	octave 4
	note A#, 2
	octave 5
	note F_, 2
	note D#, 2
	note C#, 2
	octave 4
	note A#, 2
	octave 5
	note E_, 2
	note D#, 2
	octave 4
	note B_, 2
	note F#, 2
	octave 5
	note E_, 2
	note D#, 2
	octave 4
	note B_, 2
	note F#, 2
	octave 5
	note E_, 2
	note D#, 2
	octave 4
	note B_, 2
	note F#, 2
	octave 5
	note E_, 2
	note D#, 2
	octave 4
	note B_, 2
	note F#, 2
	note A#, 2
	octave 5
	note C_, 2
	note D#, 2
	rest 2
	octave 4
	note A#, 2
	octave 5
	note C_, 2
	note D#, 2
	rest 2
	octave 4
	volume_envelope 7, 8
	note A#, 2
	octave 5
	note C_, 2
	note D#, 2
	rest 2
	octave 4
	note A#, 2
	octave 5
	note C_, 2
	note D#, 2
	rest 2
	octave 4
	volume_envelope 9, 8
	note A#, 2
	octave 5
	note C_, 2
	note D#, 2
	rest 2
	octave 4
	note A#, 2
	octave 5
	note C_, 2
	note D#, 2
	rest 2
	octave 4
	volume_envelope 7, 8
	note A#, 2
	octave 5
	note C_, 2
	note D#, 2
	rest 2
	octave 4
	note A#, 2
	octave 5
	note C_, 2
	note D#, 2
	rest 2
	volume_envelope 9, 8
	note F_, 2
	note D#, 2
	note C#, 2
	octave 4
	note A#, 2
	octave 5
	note F_, 2
	note D#, 2
	note C#, 2
	octave 4
	note A#, 2
	octave 5
	note F_, 2
	note D#, 2
	note C#, 2
	octave 4
	note A#, 2
	octave 5
	note F_, 2
	note D#, 2
	note C#, 2
	octave 4
	note A#, 2
	rest 4
	octave 5
	note F_, 2
	rest 2
	note D#, 2
	rest 2
	note C#, 2
	rest 2
	note C_, 2
	rest 2
	note C#, 2
	rest 2
	note D#, 2
	rest 2
	note G#, 2
	rest 2
	octave 4
	note A#, 2
	octave 5
	note C_, 2
	note D#, 2
	rest 2
	octave 4
	note A#, 2
	octave 5
	note C_, 2
	note D#, 2
	rest 2
	octave 4
	volume_envelope 7, 8
	note A#, 2
	octave 5
	note C_, 2
	note D#, 2
	rest 2
	octave 4
	note A#, 2
	octave 5
	note C_, 2
	note D#, 2
	rest 2
	octave 4
	volume_envelope 9, 8
	note A#, 2
	octave 5
	note C_, 2
	note D#, 2
	rest 2
	octave 4
	note A#, 2
	octave 5
	note C_, 2
	note D#, 2
	rest 2
	octave 4
	volume_envelope 7, 8
	note A#, 2
	octave 5
	note C_, 2
	note D#, 2
	rest 2
	octave 4
	note A#, 2
	octave 5
	note C_, 2
	note D#, 2
	rest 2
	volume_envelope 9, 8
	note F_, 2
	note D#, 2
	note C#, 2
	octave 4
	note A#, 2
	octave 5
	note F_, 2
	note D#, 2
	note C#, 2
	octave 4
	note A#, 2
	octave 5
	note F_, 2
	note D#, 2
	note C#, 2
	octave 4
	note A#, 2
	octave 5
	note F_, 2
	note D#, 2
	note C#, 2
	octave 4
	note A#, 2
	octave 5
	note E_, 2
	note D#, 2
	octave 4
	note B_, 2
	note F#, 2
	octave 5
	note E_, 2
	note D#, 2
	octave 4
	note B_, 2
	note F#, 2
	octave 5
	note E_, 2
	note D#, 2
	octave 4
	note B_, 2
	note F#, 2
	octave 5
	note E_, 2
	note D#, 2
	octave 4
	note B_, 2
	note F#, 2
	sound_jump .mainloop

Music_BlackKnife_Ch2:
	note_type 6, 9, 7
.mainloop:
	rest 16
	rest 16
	rest 16
	rest 16
	rest 16
	rest 16
	rest 16
	rest 16
	rest 16
	rest 16
	rest 16
	rest 16
	rest 16
	rest 16
	rest 16
	rest 16
	volume_envelope 9, -7
	duty_cycle 0
	octave 4
	vibrato 0, 3, 3
	note D#, 16
	octave 3
	note B_, 8
	octave 4
	note B_, 8
	note A#, 8
	note F#, 8
	note D#, 8
	note C#, 8
	note E_, 16
	note E_, 8
	note A_, 8
	note G#, 8
	note E_, 8
	note C#, 8
	note E_, 8
	note D#, 16
	octave 3
	note B_, 8
	octave 4
	note B_, 8
	note A#, 8
	note F#, 8
	note D#, 8
	note E_, 8
	note F#, 16
	note F#, 8
	note E_, 4
	note D#, 4
	note C#, 16
	octave 3
	note B_, 8
	octave 4
	note E_, 8
	note D#, 16
	octave 3
	note B_, 8
	octave 4
	note B_, 8
	note A#, 8
	note F#, 8
	note D#, 8
	note C#, 8
	note E_, 16
	note E_, 8
	note A_, 8
	note G#, 8
	note E_, 8
	note C#, 8
	note E_, 8
	note D#, 16
	octave 3
	note B_, 8
	octave 4
	note B_, 8
	note A#, 8
	note F#, 8
	note D#, 8
	note E_, 8
	note F#, 16
	note F#, 8
	note E_, 4
	note D#, 4
	note C#, 16
	octave 3
	note B_, 8
	octave 4
	note E_, 8
	note D#, 16
	note D#, 16
	rest 4
	duty_cycle 2
	transpose 0, 0
	octave 3
	note A#, 4
	note B_, 4
	octave 4
	note C#, 4
	note D#, 4
	note C#, 4
	octave 3
	note B_, 4
	note A#, 4
	note A_, 16
	note A_, 16
	note E_, 16
	octave 4
	note F#, 16
	note D#, 16
	note D#, 16
	rest 4
	note F#, 4
	note C#, 4
	octave 3
	note B_, 4
	note A#, 4
	note G#, 4
	note F#, 4
	note A#, 4
	note A_, 16
	note A_, 12
	note F#, 2
	note E_, 2
	note F#, 16
	note F#, 16
	rest 16
	rest 16
	note G#, 4
	note A#, 4
	note B_, 4
	octave 4
	note C#, 4
	note D#, 4
	note C#, 4
	octave 3
	note B_, 4
	note A#, 4
	note A_, 16
	note A_, 16
	note E_, 16
	octave 4
	note F#, 16
	note D#, 16
	note D#, 16
	rest 4
	note F#, 4
	note C#, 4
	octave 3
	note B_, 4
	note A#, 4
	note G#, 4
	note F#, 4
	note A#, 4
	note A_, 16
	note A_, 12
	note F#, 2
	note E_, 2
	note F#, 16
	note F#, 16
	duty_cycle 0
	octave 4
	note C_, 16
	note C_, 8
	octave 3
	note F_, 8
	octave 4
	note C#, 8
	note C_, 8
	octave 3
	note G#, 8
	note F_, 8
	note A#, 12
	note F_, 16
	note F_, 16
	note F_, 16
	rest 4
	octave 4
	note C_, 16
	note C_, 8
	octave 3
	note F_, 8
	octave 4
	note C#, 8
	note C_, 8
	note C#, 8
	note D#, 4
	octave 3
	note A#, 16
	note A#, 16
	note A#, 16
	note A#, 16
	note A#, 4
	octave 5
	note C_, 16
	note C_, 8
	octave 4
	note F_, 8
	octave 5
	note C#, 8
	note C_, 8
	octave 4
	note G#, 8
	note F_, 8
	note A#, 12
	note F_, 16
	note F_, 16
	note F_, 16
	rest 4
	octave 5
	note C_, 16
	note C_, 8
	octave 4
	note F_, 8
	octave 5
	note C#, 8
	note C_, 8
	note C#, 8
	note D#, 4
	octave 4
	note A#, 16
	note A#, 16
	note A#, 16
	note A#, 16
	note A#, 4
	octave 5
	note C_, 16
	note C_, 8
	octave 4
	note F_, 8
	octave 5
	note C#, 8
	note C_, 8
	octave 4
	note G#, 8
	note F_, 8
	note A#, 12
	note F_, 16
	note F_, 4
	rest 4
	note F_, 4
	note G#, 4
	note F_, 4
	note D#, 4
	note C#, 4
	note D#, 4
	note G#, 4
	octave 5
	note C_, 16
	note C_, 8
	octave 4
	note F_, 8
	octave 5
	note C#, 8
	note C_, 8
	note C#, 8
	note D#, 4
	octave 4
	note A#, 16
	note A#, 16
	note A#, 16
	note A#, 16
	note A#, 4
	sound_jump .mainloop

Music_BlackKnife_Ch3:
	note_type 6, 3, 5
	vibrato 0, 5, 2
.mainloop:
	octave 2
	note G#, 2
	note G#, 4
	note G#, 2
	note G#, 4
	note G#, 2
	note G#, 4
	note G#, 2
	note A_, 2
	note A_, 2
	note A#, 2
	note A#, 2
	note B_, 2
	octave 3
	note C_, 2
	octave 2
	note G#, 2
	note G#, 4
	note G#, 2
	note G#, 4
	note G#, 2
	note G#, 4
	note G#, 2
	note A_, 2
	note A_, 2
	note A#, 2
	note A#, 2
	note B_, 2
	octave 3
	note C_, 2
	octave 2
	note G#, 2
	note G#, 4
	note G#, 2
	note G#, 4
	note G#, 2
	note G#, 4
	note G#, 2
	note A_, 2
	note A_, 2
	note A#, 2
	note A#, 2
	note B_, 2
	octave 3
	note C_, 2
	octave 2
	note G#, 2
	note G#, 4
	note G#, 2
	note G#, 4
	note G#, 2
	note G#, 4
	note G#, 2
	note A_, 2
	note A_, 2
	note A#, 2
	note A#, 2
	note B_, 2
	octave 3
	note C_, 2
	octave 2
	note G#, 2
	note G#, 4
	note G#, 2
	note G#, 4
	note G#, 2
	note G#, 4
	note G#, 2
	note A_, 2
	note A_, 2
	note A#, 2
	note A#, 2
	note B_, 2
	octave 3
	note C_, 2
	octave 2
	note G#, 2
	note G#, 4
	note G#, 2
	note G#, 4
	note G#, 2
	note G#, 4
	note G#, 2
	note A_, 2
	note A_, 2
	note A#, 2
	note A#, 2
	note B_, 2
	octave 3
	note C_, 2
	octave 2
	note G#, 2
	note G#, 4
	note G#, 2
	note G#, 4
	note G#, 2
	note G#, 4
	note G#, 2
	note A_, 2
	note A_, 2
	note A#, 2
	note A#, 2
	note B_, 2
	octave 3
	note C_, 2
	octave 2
	note G#, 2
	note G#, 2
	note G#, 2
	note G#, 2
	note G#, 4
	note G#, 2
	note G#, 1
	rest 16
	rest 1
	note G#, 2
	note G#, 4
	note G#, 2
	note G#, 4
	note G#, 2
	note G#, 4
	note G#, 2
	note A_, 2
	note A_, 2
	note A#, 2
	note A#, 2
	note B_, 2
	octave 3
	note C_, 2
	octave 2
	note G#, 2
	note G#, 4
	note G#, 2
	note G#, 4
	note G#, 2
	note G#, 4
	note G#, 2
	note A_, 2
	note A_, 2
	note A#, 2
	note A#, 2
	note B_, 2
	octave 3
	note C_, 2
	octave 2
	note A_, 2
	note A_, 4
	note A_, 2
	note A_, 4
	note A_, 2
	note A_, 4
	note A_, 2
	note A#, 2
	note A#, 2
	note B_, 2
	note B_, 2
	octave 3
	note C_, 2
	note C#, 2
	octave 2
	note F#, 2
	note F#, 4
	note F#, 2
	note F#, 4
	note F#, 2
	note F#, 4
	note F#, 2
	note G_, 2
	note G_, 2
	note G#, 2
	note G#, 2
	note A_, 2
	note A#, 2
	note G#, 2
	note G#, 4
	note G#, 2
	note G#, 4
	note G#, 2
	note G#, 4
	note G#, 2
	note A_, 2
	note A_, 2
	note A#, 2
	note A#, 2
	note B_, 2
	octave 3
	note C_, 2
	octave 2
	note G#, 2
	note G#, 4
	note G#, 2
	note G#, 4
	note G#, 2
	note G#, 4
	note G#, 2
	note A_, 2
	note A_, 2
	note A#, 2
	note A#, 2
	note B_, 2
	octave 3
	note C_, 2
	octave 2
	note A_, 2
	note A_, 4
	note A_, 2
	note A_, 4
	note A_, 2
	note A_, 4
	note A_, 2
	note A#, 2
	note A#, 2
	note B_, 2
	note B_, 2
	octave 3
	note C_, 2
	note C#, 2
	octave 2
	note F#, 2
	note F#, 4
	note F#, 2
	note F#, 4
	note F#, 2
	note F#, 4
	note F#, 2
	note G_, 2
	note G_, 2
	note G#, 2
	note G#, 2
	note A_, 2
	note A#, 2
	note G#, 2
	note G#, 4
	note G#, 2
	note G#, 4
	note G#, 2
	note G#, 4
	note G#, 2
	note A_, 2
	note A_, 2
	note A#, 2
	note A#, 2
	note B_, 2
	octave 3
	note C_, 2
	octave 2
	note G#, 2
	note G#, 4
	note G#, 2
	note G#, 4
	note G#, 2
	note G#, 4
	note G#, 2
	note A_, 2
	note A_, 2
	note A#, 2
	note A#, 2
	note B_, 2
	octave 3
	note C_, 2
	octave 2
	note A_, 2
	note A_, 4
	note A_, 2
	note A_, 4
	note A_, 2
	note A_, 4
	note A_, 2
	note A#, 2
	note A#, 2
	note B_, 2
	note B_, 2
	octave 3
	note C_, 2
	note C#, 2
	octave 2
	note F#, 2
	note F#, 4
	note F#, 2
	note F#, 4
	note F#, 2
	note F#, 4
	note F#, 2
	note G_, 2
	note G_, 2
	note G#, 2
	note G#, 2
	note A_, 2
	note A#, 2
	note G#, 2
	note G#, 4
	note G#, 2
	note G#, 4
	note G#, 2
	note G#, 4
	note G#, 2
	note A_, 2
	note A_, 2
	note A#, 2
	note A#, 2
	note B_, 2
	octave 3
	note C_, 2
	octave 2
	note G#, 2
	note G#, 4
	note G#, 2
	note G#, 4
	note G#, 2
	note G#, 4
	note G#, 2
	note A_, 2
	note A_, 2
	note A#, 2
	note A#, 2
	note B_, 2
	octave 3
	note C_, 2
	octave 2
	note A_, 2
	note A_, 4
	note A_, 2
	note A_, 4
	note A_, 2
	note A_, 4
	note A_, 2
	note A#, 2
	note A#, 2
	note B_, 2
	note B_, 2
	octave 3
	note C_, 2
	note C#, 2
	octave 2
	note F#, 2
	note F#, 4
	note F#, 2
	note F#, 4
	note F#, 2
	note F#, 4
	note F#, 2
	note G_, 2
	note G_, 2
	note G#, 2
	note G#, 2
	note A_, 2
	note A#, 2
	note E_, 2
	note E_, 4
	note E_, 2
	note E_, 4
	note E_, 2
	note E_, 4
	note E_, 2
	note F_, 2
	note F_, 2
	note F#, 2
	note F#, 2
	note G_, 2
	note G#, 2
	note E_, 2
	note E_, 4
	note E_, 2
	note E_, 4
	note E_, 2
	note E_, 4
	note E_, 2
	note F_, 2
	note F_, 2
	note F#, 2
	note F#, 2
	note G_, 2
	note G#, 2
	note A_, 2
	note A_, 4
	note A_, 2
	note A_, 4
	note A_, 2
	note A_, 4
	note A_, 2
	note A#, 2
	note A#, 2
	note B_, 2
	note B_, 2
	octave 3
	note C_, 2
	note C#, 2
	octave 2
	note F#, 2
	note F#, 4
	note F#, 2
	note F#, 4
	note F#, 2
	note F#, 4
	note F#, 2
	note G_, 2
	note G_, 2
	note G#, 2
	note G#, 2
	note A_, 2
	note A#, 2
	note E_, 2
	note E_, 4
	note E_, 2
	note E_, 4
	note E_, 2
	note E_, 4
	note E_, 2
	note F_, 2
	note F_, 2
	note F#, 2
	note F#, 2
	note G_, 2
	note G#, 2
	note E_, 2
	note E_, 4
	note E_, 2
	note E_, 4
	note E_, 2
	note E_, 4
	note E_, 2
	note F_, 2
	note F_, 2
	note F#, 2
	note F#, 2
	note G_, 2
	note G#, 2
	note A_, 2
	note A_, 4
	note A_, 2
	note A_, 4
	note A_, 2
	note A_, 4
	note A_, 2
	note A#, 2
	note A#, 2
	note B_, 2
	note B_, 2
	octave 3
	note C_, 2
	note C#, 2
	octave 2
	note F#, 2
	note F#, 4
	note F#, 2
	note F#, 4
	note F#, 2
	note F#, 4
	note F#, 2
	note G_, 2
	note G_, 2
	note G#, 2
	note G#, 2
	note A_, 2
	note A#, 2
	note E_, 2
	note E_, 4
	note E_, 2
	note E_, 4
	note E_, 2
	note E_, 4
	note E_, 2
	note F_, 2
	note F_, 2
	note F#, 2
	note F#, 2
	note G_, 2
	note G#, 2
	note E_, 2
	note E_, 4
	note E_, 2
	note E_, 4
	note E_, 2
	note E_, 4
	note E_, 2
	note F_, 2
	note F_, 2
	note F#, 2
	note F#, 2
	note G_, 2
	note G#, 2
	note A_, 2
	note A_, 4
	note A_, 2
	note A_, 4
	note A_, 2
	note A_, 4
	note A_, 2
	note A#, 2
	note A#, 2
	note B_, 2
	note B_, 2
	octave 3
	note C_, 2
	note C#, 2
	octave 2
	note F#, 2
	note F#, 4
	note F#, 2
	note F#, 4
	note F#, 2
	note F#, 4
	note F#, 2
	note G_, 2
	note G_, 2
	note G#, 2
	note G#, 2
	note A_, 2
	note A#, 2
	note E_, 2
	note E_, 4
	note E_, 2
	note E_, 4
	note E_, 2
	note E_, 4
	note E_, 2
	note F_, 2
	note F_, 2
	note F#, 2
	note F#, 2
	note G_, 2
	note G#, 2
	note E_, 2
	note E_, 4
	note E_, 2
	note E_, 4
	note E_, 2
	note E_, 4
	note E_, 2
	note F_, 2
	note F_, 2
	note F#, 2
	note F#, 2
	note G_, 2
	note G#, 2
	note A_, 2
	note A_, 4
	note A_, 2
	note A_, 4
	note A_, 2
	note A_, 4
	note A_, 2
	note A#, 2
	note A#, 2
	note B_, 2
	note B_, 2
	octave 3
	note C_, 2
	note C#, 2
	octave 2
	note F#, 2
	note F#, 4
	note F#, 2
	note F#, 4
	note F#, 2
	note F#, 4
	note F#, 2
	note G_, 2
	note G_, 2
	note G#, 2
	note G#, 2
	note A_, 2
	note A#, 2
	note A#, 2
	note A#, 2
	note A#, 2
	note A#, 2
	note A#, 2
	note A#, 2
	note A#, 2
	note A#, 2
	note A#, 2
	note A#, 2
	note B_, 2
	note B_, 2
	octave 3
	note C_, 2
	note C_, 2
	note C#, 2
	note D_, 2
	octave 2
	note A#, 2
	note A#, 2
	note A#, 2
	note A#, 2
	note A#, 2
	note A#, 2
	note A#, 2
	note A#, 2
	note A#, 2
	note A#, 2
	note B_, 2
	note B_, 2
	octave 3
	note C_, 2
	note C_, 2
	note C#, 2
	note D_, 2
	octave 2
	note F#, 2
	note F#, 2
	note F#, 2
	note F#, 2
	octave 3
	note F#, 2
	octave 2
	note F#, 2
	note F#, 2
	octave 3
	note G#, 2
	octave 2
	note F#, 2
	note F#, 2
	note F#, 2
	note F#, 2
	octave 3
	note F_, 2
	note D#, 2
	note F_, 2
	note F#, 2
	octave 2
	note F#, 2
	note F#, 2
	note F#, 2
	note F#, 2
	octave 3
	note F#, 2
	octave 2
	note F#, 2
	note F#, 2
	octave 3
	note G#, 2
	octave 2
	note F#, 2
	note F#, 2
	note F#, 2
	note F#, 2
	octave 3
	note F_, 2
	note D#, 2
	note F_, 2
	note F#, 2
	octave 2
	note A#, 2
	note A#, 4
	note A#, 2
	note A#, 4
	note A#, 2
	note A#, 4
	note A#, 2
	note B_, 2
	note B_, 2
	octave 3
	note C_, 2
	note C_, 2
	note C#, 2
	note D_, 2
	octave 2
	note A#, 2
	note A#, 4
	note A#, 2
	note A#, 4
	note A#, 2
	note A#, 4
	note A#, 2
	note B_, 2
	note B_, 2
	octave 3
	note C_, 2
	note C_, 2
	note C#, 2
	note D_, 2
	octave 2
	note A_, 2
	note A_, 4
	note A_, 2
	note A_, 4
	note A_, 2
	note A_, 4
	note A_, 2
	note A#, 2
	note A#, 2
	note B_, 2
	note B_, 2
	octave 3
	note C_, 2
	note C#, 2
	octave 2
	note G_, 2
	note G_, 4
	note G_, 2
	note G_, 4
	note G_, 2
	note G_, 4
	note G_, 2
	note G#, 2
	note G#, 2
	note A_, 2
	note A_, 2
	note A#, 2
	note B_, 2
	note A#, 2
	note A#, 4
	note A#, 2
	note A#, 4
	note A#, 2
	note A#, 4
	note A#, 2
	note B_, 2
	note B_, 2
	octave 3
	note C_, 2
	note C_, 2
	note C#, 2
	note D_, 2
	octave 2
	note A#, 2
	note A#, 4
	note A#, 2
	note A#, 4
	note A#, 2
	note A#, 4
	note A#, 2
	note B_, 2
	note B_, 2
	octave 3
	note C_, 2
	note C_, 2
	note C#, 2
	note D_, 2
	octave 2
	note F#, 2
	note F#, 2
	note F#, 2
	note F#, 2
	octave 3
	note F#, 2
	octave 2
	note F#, 2
	note F#, 2
	octave 3
	note G#, 2
	octave 2
	note F#, 2
	note F#, 2
	note F#, 2
	note F#, 2
	octave 3
	note F_, 2
	note D#, 2
	note F_, 2
	note F#, 2
	octave 2
	note F#, 2
	note F#, 2
	note F#, 2
	note F#, 2
	octave 3
	note F#, 2
	octave 2
	note F#, 2
	note F#, 2
	octave 3
	note G#, 2
	octave 2
	note F#, 2
	note F#, 2
	note F#, 2
	note F#, 2
	octave 3
	note F_, 2
	note D#, 2
	note F_, 2
	note F#, 2
	octave 2
	note A#, 2
	note A#, 4
	note A#, 2
	note A#, 4
	note A#, 2
	note A#, 4
	note A#, 2
	note B_, 2
	note B_, 2
	octave 3
	note C_, 2
	note C_, 2
	note C#, 2
	note D_, 2
	octave 2
	note A#, 2
	note A#, 4
	note A#, 2
	note A#, 4
	note A#, 2
	note A#, 4
	note A#, 2
	note B_, 2
	note B_, 2
	octave 3
	note C_, 2
	note C_, 2
	note C#, 2
	note D_, 2
	octave 2
	note A_, 2
	note A_, 4
	note A_, 2
	note A_, 4
	note A_, 2
	note A_, 4
	note A_, 2
	note A#, 2
	note A#, 2
	note B_, 2
	note B_, 2
	octave 3
	note C_, 2
	note C#, 2
	octave 2
	note G_, 2
	note G_, 4
	note G_, 2
	note G_, 4
	note G_, 2
	note G_, 4
	note G_, 2
	note G#, 2
	note G#, 2
	note A_, 2
	note A_, 2
	note A#, 2
	note B_, 2
	note A#, 2
	note A#, 4
	note A#, 2
	note A#, 4
	note A#, 2
	note A#, 4
	note A#, 2
	note B_, 2
	note B_, 2
	octave 3
	note C_, 2
	note C_, 2
	note C#, 2
	note D_, 2
	octave 2
	note A#, 2
	note A#, 4
	note A#, 2
	note A#, 4
	note A#, 2
	note A#, 4
	note A#, 2
	note B_, 2
	note B_, 2
	octave 3
	note C_, 2
	note C_, 2
	note C#, 2
	note D_, 2
	octave 2
	note F#, 2
	note F#, 2
	note F#, 2
	note F#, 2
	octave 3
	note F#, 2
	octave 2
	note F#, 2
	note F#, 2
	octave 3
	note G#, 2
	octave 2
	note F#, 2
	note F#, 2
	note F#, 2
	note F#, 2
	octave 3
	note F_, 2
	note D#, 2
	note F_, 2
	note F#, 2
	octave 2
	note F#, 2
	note F#, 2
	note F#, 2
	note F#, 2
	octave 3
	note F#, 2
	octave 2
	note F#, 2
	note F#, 2
	octave 3
	note G#, 2
	octave 2
	note F#, 2
	note F#, 2
	note F#, 2
	note F#, 2
	octave 3
	note F_, 2
	note D#, 2
	note F_, 2
	note F#, 2
	octave 2
	note A#, 2
	note A#, 4
	note A#, 2
	note A#, 4
	note A#, 2
	note A#, 4
	note A#, 2
	note B_, 2
	note B_, 2
	octave 3
	note C_, 2
	note C_, 2
	note C#, 2
	note D_, 2
	octave 2
	note A#, 2
	note A#, 4
	note A#, 2
	note A#, 4
	note A#, 2
	note A#, 4
	note A#, 2
	note B_, 2
	note B_, 2
	octave 3
	note C_, 2
	note C_, 2
	note C#, 2
	note D_, 2
	octave 2
	note A_, 2
	note A_, 4
	note A_, 2
	note A_, 4
	note A_, 2
	note A_, 4
	note A_, 2
	note A#, 2
	note A#, 2
	note B_, 2
	note B_, 2
	octave 3
	note C_, 2
	note C#, 2
	octave 2
	note G_, 2
	note G_, 4
	note G_, 2
	note G_, 4
	note G_, 2
	note G_, 4
	note G_, 2
	note G#, 2
	note G#, 2
	note A_, 2
	note A_, 2
	note A#, 2
	note B_, 1
	rest 1
	sound_jump .mainloop

Music_BlackKnife_Ch4:
	drum_speed 6
	toggle_noise 4
.mainloop:
	drum_speed 6
	drum_note 2, 4
	drum_note 7, 2
	drum_note 7, 2
	drum_note 3, 2
	drum_note 11, 2
	drum_note 11, 2
	drum_note 2, 4
	drum_note 9, 2
	drum_note 4, 2
	drum_note 7, 2
	drum_note 3, 2
	drum_note 4, 2
	drum_note 2, 4
	drum_note 2, 4
	drum_note 7, 2
	drum_note 7, 2
	drum_note 3, 2
	drum_note 11, 2
	drum_note 11, 2
	drum_note 2, 4
	drum_note 9, 2
	drum_note 4, 2
	drum_note 7, 2
	drum_note 3, 2
	drum_note 4, 2
	drum_note 11, 4
	drum_note 2, 4
	drum_note 7, 2
	drum_note 7, 2
	drum_note 3, 2
	drum_note 11, 2
	drum_note 11, 2
	drum_note 2, 4
	drum_note 9, 2
	drum_note 4, 2
	drum_note 7, 2
	drum_note 3, 2
	drum_note 4, 2
	drum_note 2, 4
	drum_note 2, 4
	drum_note 7, 2
	drum_note 7, 2
	drum_note 3, 2
	drum_note 11, 2
	drum_note 11, 2
	drum_note 2, 4
	drum_note 9, 2
	drum_note 4, 2
	drum_note 7, 2
	drum_note 3, 2
	drum_note 4, 2
	drum_note 11, 4
	drum_note 2, 4
	drum_note 7, 2
	drum_note 7, 2
	drum_note 3, 2
	drum_note 11, 2
	drum_note 11, 2
	drum_note 2, 4
	drum_note 9, 2
	drum_note 4, 2
	drum_note 7, 2
	drum_note 3, 2
	drum_note 4, 2
	drum_note 2, 4
	drum_note 2, 4
	drum_note 7, 2
	drum_note 7, 2
	drum_note 3, 2
	drum_note 11, 2
	drum_note 11, 2
	drum_note 2, 4
	drum_note 9, 2
	drum_note 4, 2
	drum_note 7, 2
	drum_note 3, 2
	drum_note 4, 2
	drum_note 11, 4
	drum_note 2, 4
	drum_note 7, 2
	drum_note 7, 2
	drum_note 3, 2
	drum_note 11, 2
	drum_note 11, 2
	drum_note 2, 4
	drum_note 9, 2
	drum_note 4, 2
	drum_note 7, 2
	drum_note 3, 2
	drum_note 4, 2
	drum_note 2, 4
	drum_note 2, 4
	drum_note 11, 2
	drum_note 7, 2
	drum_note 11, 2
	drum_note 3, 2
	drum_note 3, 2
	drum_note 3, 4
	drum_note 5, 4
	drum_note 7, 2
	drum_note 5, 2
	drum_note 5, 1
	drum_note 5, 5
	drum_note 4, 4
	drum_note 3, 2
	drum_note 7, 2
	drum_note 4, 4
	drum_note 3, 2
	drum_note 7, 2
	drum_note 4, 2
	drum_note 7, 2
	drum_note 3, 2
	drum_note 7, 2
	drum_note 4, 2
	drum_note 7, 2
	drum_note 3, 4
	drum_note 4, 4
	drum_note 3, 2
	drum_note 7, 2
	drum_note 4, 4
	drum_note 3, 2
	drum_note 7, 2
	drum_note 4, 2
	drum_note 7, 2
	drum_note 3, 2
	drum_note 7, 2
	drum_note 4, 2
	drum_note 7, 2
	drum_note 3, 4
	drum_note 4, 4
	drum_note 3, 2
	drum_note 7, 2
	drum_note 4, 4
	drum_note 3, 2
	drum_note 7, 2
	drum_note 4, 2
	drum_note 7, 2
	drum_note 3, 2
	drum_note 7, 2
	drum_note 4, 2
	drum_note 7, 2
	drum_note 3, 4
	drum_note 4, 4
	drum_note 3, 2
	drum_note 7, 2
	drum_note 4, 4
	drum_note 3, 2
	drum_note 7, 2
	drum_note 4, 2
	drum_note 7, 2
	drum_note 3, 2
	drum_note 7, 2
	drum_note 4, 2
	drum_note 7, 2
	drum_note 3, 4
	drum_note 4, 4
	drum_note 3, 2
	drum_note 7, 2
	drum_note 4, 4
	drum_note 3, 2
	drum_note 7, 2
	drum_note 4, 2
	drum_note 7, 2
	drum_note 3, 2
	drum_note 7, 2
	drum_note 4, 2
	drum_note 7, 2
	drum_note 3, 4
	drum_note 4, 4
	drum_note 3, 2
	drum_note 7, 2
	drum_note 4, 4
	drum_note 3, 2
	drum_note 7, 2
	drum_note 4, 2
	drum_note 7, 2
	drum_note 3, 2
	drum_note 7, 2
	drum_note 4, 2
	drum_note 7, 2
	drum_note 3, 4
	drum_note 4, 4
	drum_note 3, 2
	drum_note 7, 2
	drum_note 4, 4
	drum_note 3, 2
	drum_note 7, 2
	drum_note 4, 2
	drum_note 7, 2
	drum_note 3, 2
	drum_note 7, 2
	drum_note 4, 2
	drum_note 7, 2
	drum_note 3, 4
	drum_note 4, 4
	drum_note 3, 2
	drum_note 7, 2
	drum_note 4, 4
	drum_note 3, 2
	drum_note 7, 2
	drum_note 4, 2
	drum_note 7, 2
	drum_note 3, 2
	drum_note 7, 2
	drum_note 4, 2
	drum_note 7, 2
	drum_note 3, 4
	drum_note 4, 4
	drum_note 3, 2
	drum_note 7, 2
	drum_note 4, 4
	drum_note 3, 2
	drum_note 7, 2
	drum_note 4, 2
	drum_note 7, 2
	drum_note 3, 2
	drum_note 7, 2
	drum_note 4, 2
	drum_note 7, 2
	drum_note 3, 4
	drum_note 4, 4
	drum_note 3, 2
	drum_note 7, 2
	drum_note 4, 4
	drum_note 3, 2
	drum_note 7, 2
	drum_note 4, 2
	drum_note 7, 2
	drum_note 3, 2
	drum_note 7, 2
	drum_note 4, 2
	drum_note 7, 2
	drum_note 3, 4
	drum_note 4, 4
	drum_note 3, 2
	drum_note 7, 2
	drum_note 4, 4
	drum_note 3, 2
	drum_note 7, 2
	drum_note 4, 2
	drum_note 7, 2
	drum_note 3, 2
	drum_note 7, 2
	drum_note 4, 2
	drum_note 7, 2
	drum_note 3, 4
	drum_note 4, 4
	drum_note 3, 2
	drum_note 7, 2
	drum_note 4, 4
	drum_note 3, 2
	drum_note 7, 2
	drum_note 4, 2
	drum_note 7, 2
	drum_note 3, 2
	drum_note 7, 2
	drum_note 4, 2
	drum_note 7, 2
	drum_note 3, 4
	drum_note 4, 4
	drum_note 3, 2
	drum_note 7, 2
	drum_note 4, 4
	drum_note 3, 2
	drum_note 7, 2
	drum_note 4, 2
	drum_note 7, 2
	drum_note 3, 2
	drum_note 7, 2
	drum_note 4, 2
	drum_note 7, 2
	drum_note 3, 4
	drum_note 4, 4
	drum_note 3, 2
	drum_note 7, 2
	drum_note 4, 4
	drum_note 3, 2
	drum_note 7, 2
	drum_note 4, 2
	drum_note 7, 2
	drum_note 3, 2
	drum_note 7, 2
	drum_note 4, 2
	drum_note 7, 2
	drum_note 3, 4
	drum_note 4, 4
	drum_note 3, 2
	drum_note 7, 2
	drum_note 4, 4
	drum_note 3, 2
	drum_note 7, 2
	drum_note 4, 2
	drum_note 7, 2
	drum_note 3, 2
	drum_note 7, 2
	drum_note 4, 2
	drum_note 7, 2
	drum_note 3, 4
	drum_note 4, 4
	drum_note 3, 2
	drum_note 7, 2
	drum_note 4, 4
	drum_note 3, 2
	drum_note 7, 2
	drum_note 4, 2
	drum_note 7, 2
	drum_note 3, 2
	drum_note 7, 2
	drum_note 4, 2
	drum_note 7, 2
	drum_note 3, 4
	drum_note 4, 4
	drum_note 3, 2
	drum_note 7, 2
	drum_note 4, 4
	drum_note 3, 2
	drum_note 7, 2
	drum_note 4, 2
	drum_note 7, 2
	drum_note 3, 2
	drum_note 7, 2
	drum_note 4, 2
	drum_note 7, 2
	drum_note 3, 4
	drum_note 4, 4
	drum_note 3, 2
	drum_note 7, 2
	drum_note 4, 4
	drum_note 3, 2
	drum_note 7, 2
	drum_note 4, 2
	drum_note 7, 2
	drum_note 3, 2
	drum_note 7, 2
	drum_note 4, 2
	drum_note 7, 2
	drum_note 3, 4
	drum_note 4, 4
	drum_note 3, 2
	drum_note 7, 2
	drum_note 4, 4
	drum_note 3, 2
	drum_note 7, 2
	drum_note 4, 2
	drum_note 7, 2
	drum_note 3, 2
	drum_note 7, 2
	drum_note 4, 2
	drum_note 7, 2
	drum_note 3, 4
	drum_note 4, 4
	drum_note 3, 2
	drum_note 7, 2
	drum_note 4, 4
	drum_note 3, 2
	drum_note 7, 2
	drum_note 4, 2
	drum_note 7, 2
	drum_note 3, 2
	drum_note 7, 2
	drum_note 4, 2
	drum_note 7, 2
	drum_note 3, 4
	drum_note 4, 4
	drum_note 3, 2
	drum_note 7, 2
	drum_note 4, 4
	drum_note 3, 2
	drum_note 7, 2
	drum_note 4, 2
	drum_note 7, 2
	drum_note 3, 2
	drum_note 7, 2
	drum_note 4, 2
	drum_note 7, 2
	drum_note 3, 4
	drum_note 4, 4
	drum_note 3, 2
	drum_note 7, 2
	drum_note 4, 4
	drum_note 3, 2
	drum_note 7, 2
	drum_note 4, 2
	drum_note 7, 2
	drum_note 3, 2
	drum_note 7, 2
	drum_note 4, 2
	drum_note 7, 2
	drum_note 3, 4
	drum_note 4, 4
	drum_note 3, 2
	drum_note 7, 2
	drum_note 4, 4
	drum_note 3, 2
	drum_note 7, 2
	drum_note 4, 2
	drum_note 7, 2
	drum_note 3, 2
	drum_note 7, 2
	drum_note 4, 2
	drum_note 7, 2
	drum_note 3, 4
	drum_note 4, 4
	drum_note 3, 2
	drum_note 7, 2
	drum_note 4, 4
	drum_note 3, 2
	drum_note 7, 2
	drum_note 4, 2
	drum_note 7, 2
	drum_note 3, 2
	drum_note 7, 2
	drum_note 4, 2
	drum_note 7, 2
	drum_note 3, 4
	drum_note 4, 4
	drum_note 3, 2
	drum_note 7, 2
	drum_note 4, 4
	drum_note 3, 2
	drum_note 7, 2
	drum_note 4, 2
	drum_note 7, 2
	drum_note 3, 2
	drum_note 7, 2
	drum_note 4, 2
	drum_note 7, 2
	drum_note 3, 4
	drum_note 4, 4
	drum_note 3, 2
	drum_note 7, 2
	drum_note 4, 4
	drum_note 3, 2
	drum_note 7, 2
	drum_note 4, 2
	drum_note 7, 2
	drum_note 3, 2
	drum_note 7, 2
	drum_note 4, 2
	drum_note 7, 2
	drum_note 3, 4
	drum_note 4, 4
	drum_note 3, 2
	drum_note 7, 2
	drum_note 4, 4
	drum_note 3, 2
	drum_note 7, 2
	drum_note 4, 2
	drum_note 7, 2
	drum_note 3, 2
	drum_note 7, 2
	drum_note 4, 2
	drum_note 7, 2
	drum_note 3, 4
	drum_note 4, 4
	drum_note 3, 2
	drum_note 7, 2
	drum_note 4, 4
	drum_note 3, 2
	drum_note 7, 2
	drum_note 4, 2
	drum_note 7, 2
	drum_note 3, 2
	drum_note 7, 2
	drum_note 4, 2
	drum_note 7, 2
	drum_note 3, 4
	drum_note 4, 4
	drum_note 3, 2
	drum_note 7, 2
	drum_note 4, 4
	drum_note 3, 2
	drum_note 7, 2
	drum_note 4, 2
	drum_note 7, 2
	drum_note 3, 2
	drum_note 7, 2
	drum_note 4, 2
	drum_note 7, 2
	drum_note 3, 4
	drum_note 4, 4
	drum_note 3, 2
	drum_note 7, 2
	drum_note 4, 4
	drum_note 3, 2
	drum_note 7, 2
	drum_note 4, 2
	drum_note 7, 2
	drum_note 3, 2
	drum_note 7, 2
	drum_note 4, 2
	drum_note 7, 2
	drum_note 3, 4
	drum_note 4, 4
	drum_note 3, 2
	drum_note 7, 2
	drum_note 4, 4
	drum_note 3, 2
	drum_note 7, 2
	drum_note 4, 2
	drum_note 7, 2
	drum_note 3, 2
	drum_note 7, 2
	drum_note 4, 2
	drum_note 7, 2
	drum_note 3, 4
	drum_note 4, 4
	drum_note 3, 2
	drum_note 7, 2
	drum_note 4, 4
	drum_note 3, 2
	drum_note 7, 2
	drum_note 5, 2
	drum_note 7, 2
	drum_note 5, 2
	drum_note 5, 2
	drum_note 4, 2
	drum_note 5, 2
	drum_note 5, 2
	drum_note 5, 2
	drum_note 2, 2
	drum_note 7, 2
	drum_note 11, 2
	drum_note 7, 2
	drum_note 7, 4
	drum_note 7, 2
	drum_note 3, 2
	drum_note 7, 2
	drum_note 7, 2
	drum_note 11, 2
	drum_note 7, 2
	drum_note 3, 4
	drum_note 7, 2
	drum_note 7, 2
	drum_note 7, 2
	drum_note 7, 2
	drum_note 11, 2
	drum_note 7, 2
	drum_note 3, 4
	drum_note 7, 2
	drum_note 3, 2
	drum_note 7, 2
	drum_note 7, 2
	drum_note 11, 2
	drum_note 7, 2
	drum_note 3, 4
	drum_note 7, 2
	drum_note 7, 2
	drum_note 7, 2
	drum_note 7, 2
	drum_note 11, 2
	drum_note 7, 2
	drum_note 7, 4
	drum_note 7, 2
	drum_note 3, 2
	drum_note 7, 2
	drum_note 7, 2
	drum_note 11, 2
	drum_note 7, 2
	drum_note 3, 4
	drum_note 7, 2
	drum_note 7, 2
	drum_note 7, 2
	drum_note 7, 2
	drum_note 11, 2
	drum_note 7, 2
	drum_note 3, 4
	drum_note 7, 2
	drum_note 3, 2
	drum_note 7, 2
	drum_note 7, 2
	drum_note 11, 2
	drum_note 7, 2
	drum_note 3, 4
	drum_note 7, 2
	drum_note 7, 2
	drum_note 2, 2
	drum_note 7, 2
	drum_note 11, 2
	drum_note 7, 2
	drum_note 7, 4
	drum_note 7, 2
	drum_note 3, 2
	drum_note 7, 2
	drum_note 7, 2
	drum_note 11, 2
	drum_note 7, 2
	drum_note 3, 4
	drum_note 7, 2
	drum_note 7, 2
	drum_note 7, 2
	drum_note 7, 2
	drum_note 11, 2
	drum_note 7, 2
	drum_note 3, 4
	drum_note 7, 2
	drum_note 3, 2
	drum_note 7, 2
	drum_note 7, 2
	drum_note 11, 2
	drum_note 7, 2
	drum_note 3, 4
	drum_note 7, 2
	drum_note 7, 2
	drum_note 7, 2
	drum_note 7, 2
	drum_note 11, 2
	drum_note 7, 2
	drum_note 7, 4
	drum_note 7, 2
	drum_note 3, 2
	drum_note 7, 2
	drum_note 7, 2
	drum_note 11, 2
	drum_note 7, 2
	drum_note 3, 4
	drum_note 7, 2
	drum_note 7, 2
	drum_note 7, 2
	drum_note 7, 2
	drum_note 11, 2
	drum_note 7, 2
	drum_note 3, 4
	drum_note 7, 2
	drum_note 3, 2
	drum_note 7, 2
	drum_note 7, 2
	drum_note 11, 2
	drum_note 7, 2
	drum_note 3, 4
	drum_note 7, 2
	drum_note 7, 2
	drum_note 4, 4
	drum_note 3, 2
	drum_note 7, 2
	drum_note 4, 4
	drum_note 3, 2
	drum_note 7, 2
	drum_note 4, 2
	drum_note 7, 2
	drum_note 3, 2
	drum_note 7, 2
	drum_note 4, 2
	drum_note 7, 2
	drum_note 3, 4
	drum_note 4, 4
	drum_note 3, 2
	drum_note 7, 2
	drum_note 4, 4
	drum_note 3, 2
	drum_note 7, 2
	drum_note 4, 2
	drum_note 7, 2
	drum_note 3, 2
	drum_note 7, 2
	drum_note 4, 2
	drum_note 7, 2
	drum_note 3, 4
	drum_note 4, 4
	drum_note 3, 2
	drum_note 7, 2
	drum_note 4, 4
	drum_note 3, 2
	drum_note 7, 2
	drum_note 4, 2
	drum_note 7, 2
	drum_note 3, 2
	drum_note 7, 2
	drum_note 4, 2
	drum_note 7, 2
	drum_note 3, 4
	drum_note 4, 4
	drum_note 3, 2
	drum_note 7, 2
	drum_note 4, 4
	drum_note 3, 2
	drum_note 7, 2
	drum_note 4, 2
	drum_note 7, 2
	drum_note 3, 2
	drum_note 7, 2
	drum_note 4, 2
	drum_note 7, 2
	drum_note 3, 4
	drum_note 4, 4
	drum_note 3, 2
	drum_note 7, 2
	drum_note 4, 4
	drum_note 3, 2
	drum_note 7, 2
	drum_note 4, 2
	drum_note 7, 2
	drum_note 3, 2
	drum_note 7, 2
	drum_note 4, 2
	drum_note 7, 2
	drum_note 3, 4
	drum_note 4, 4
	drum_note 3, 2
	drum_note 7, 2
	drum_note 4, 4
	drum_note 3, 2
	drum_note 7, 2
	drum_note 4, 2
	drum_note 7, 2
	drum_note 3, 2
	drum_note 7, 2
	drum_note 4, 2
	drum_note 7, 2
	drum_note 3, 4
	drum_note 4, 4
	drum_note 3, 2
	drum_note 7, 2
	drum_note 4, 4
	drum_note 3, 2
	drum_note 7, 2
	drum_note 4, 2
	drum_note 7, 2
	drum_note 3, 2
	drum_note 7, 2
	drum_note 4, 2
	drum_note 7, 2
	drum_note 3, 4
	drum_note 4, 4
	drum_note 3, 2
	drum_note 7, 2
	drum_note 4, 4
	drum_note 3, 2
	drum_note 7, 2
	drum_note 4, 2
	drum_note 7, 2
	drum_note 3, 2
	drum_note 7, 2
	drum_note 4, 2
	drum_note 7, 2
	drum_note 3, 4
	drum_note 4, 4
	drum_note 3, 2
	drum_note 7, 2
	drum_note 4, 4
	drum_note 3, 2
	drum_note 7, 2
	drum_note 4, 2
	drum_note 7, 2
	drum_note 3, 2
	drum_note 7, 2
	drum_note 4, 2
	drum_note 7, 2
	drum_note 3, 4
	drum_note 4, 4
	drum_note 3, 2
	drum_note 7, 2
	drum_note 4, 4
	drum_note 3, 2
	drum_note 7, 2
	drum_note 4, 2
	drum_note 7, 2
	drum_note 3, 2
	drum_note 7, 2
	drum_note 4, 2
	drum_note 7, 2
	drum_note 3, 4
	drum_note 4, 4
	drum_note 3, 2
	drum_note 7, 2
	drum_note 4, 4
	drum_note 3, 2
	drum_note 7, 2
	drum_note 4, 2
	drum_note 7, 2
	drum_note 3, 2
	drum_note 7, 2
	drum_note 4, 2
	drum_note 7, 2
	drum_note 3, 4
	drum_note 4, 4
	drum_note 3, 2
	drum_note 7, 2
	drum_note 4, 4
	drum_note 3, 2
	drum_note 7, 2
	drum_note 4, 2
	drum_note 7, 2
	drum_note 3, 2
	drum_note 7, 2
	drum_note 4, 2
	drum_note 7, 2
	drum_note 3, 4
	drum_note 4, 4
	drum_note 3, 2
	drum_note 7, 2
	drum_note 4, 4
	drum_note 3, 2
	drum_note 7, 2
	drum_note 4, 2
	drum_note 7, 2
	drum_note 3, 2
	drum_note 7, 2
	drum_note 4, 2
	drum_note 7, 2
	drum_note 3, 4
	drum_note 4, 4
	drum_note 3, 2
	drum_note 7, 2
	drum_note 4, 4
	drum_note 3, 2
	drum_note 7, 2
	drum_note 4, 2
	drum_note 7, 2
	drum_note 3, 2
	drum_note 7, 2
	drum_note 4, 2
	drum_note 7, 2
	drum_note 3, 4
	drum_note 4, 4
	drum_note 3, 2
	drum_note 7, 2
	drum_note 4, 4
	drum_note 3, 2
	drum_note 7, 2
	drum_note 4, 2
	drum_note 7, 2
	drum_note 3, 2
	drum_note 7, 2
	drum_note 4, 2
	drum_note 7, 2
	drum_note 3, 1
	rest 16
	rest 16
	rest 3
	sound_jump .mainloop
