Music_FaintCourage:
	channel_count 4
	channel 1, Music_FaintCourage_Ch1
	channel 2, Music_FaintCourage_Ch2
	channel 3, Music_FaintCourage_Ch3
	channel 4, Music_FaintCourage_Ch4

Music_FaintCourage_Ch1:
	volume 7, 7
	duty_cycle 2
	note_type 12, 10, 7
	tempo 166
.mainloop:
	rest 16
	rest 16
	rest 16
	rest 16
	rest 16
	rest 12
	octave 5
	vibrato 0, 2, 1
	volume_envelope 8, 8
	note G_, 2
	note F#, 2
	note E_, 16
	rest 4
	note G_, 2
	note F#, 2
	note E_, 4
	note B_, 4
	note G_, 4
	note A_, 8
	note G_, 2
	note F#, 2
	note E_, 16
	rest 4
	note G_, 2
	note F#, 2
	note E_, 4
	octave 6
	note D_, 4
	note C_, 2
	octave 5
	note B_, 2
	note A_, 6
	rest 16
	rest 16
	rest 16
	rest 16
	rest 16
	rest 16
	rest 2
	note B_, 2
	note A_, 2
	note G_, 16
	rest 4
	note B_, 2
	note A_, 2
	note G_, 4
	octave 6
	note D_, 4
	note C_, 2
	octave 5
	note B_, 2
	note A_, 8
	note B_, 2
	note A_, 2
	note G_, 16
	rest 4
	note B_, 2
	note A_, 2
	note G_, 4
	octave 6
	note D_, 4
	note C_, 2
	octave 5
	note B_, 2
	note A_, 8
	note_type 12, 8, 8
	rest 4
	sound_jump .mainloop

Music_FaintCourage_Ch2:
	note_type 12, 12, 8
	octave 4
	vibrato 9, 3, 2
	duty_cycle 3
.mainloop:
	note B_, 4
	note G_, 4
	rest 2
	note B_, 2
	note A_, 4
	note D_, 4
	rest 4
	note B_, 4
	octave 5
	note D_, 2
	note C_, 2
	octave 4
	note B_, 2
	note G_, 2
	note A_, 4
	note D_, 4
	rest 4
	note B_, 4
	note G_, 4
	rest 2
	note B_, 2
	note A_, 4
	note D_, 4
	rest 4
	note B_, 4
	octave 5
	note D_, 2
	note C_, 2
	octave 4
	note B_, 2
	note G_, 2
	note A_, 4
	note D_, 4
	rest 4
	note B_, 4
	note G_, 4
	rest 2
	note B_, 2
	note A_, 4
	note D_, 4
	rest 4
	note B_, 4
	octave 5
	note D_, 2
	note C_, 2
	octave 4
	note B_, 2
	note G_, 2
	note A_, 4
	note D_, 4
	rest 4
	note B_, 4
	note G_, 4
	rest 2
	note B_, 2
	note A_, 4
	note D_, 4
	rest 4
	note B_, 4
	octave 5
	note D_, 2
	note C_, 2
	octave 4
	note B_, 2
	note G_, 2
	note A_, 6
	rest 2
	note G_, 2
	note F#, 2
	note E_, 16
	rest 4
	note G_, 2
	note F#, 2
	note E_, 4
	note B_, 4
	note A_, 2
	note G_, 2
	note A_, 8
	note G_, 2
	note F#, 2
	note E_, 16
	rest 4
	note G_, 2
	note F#, 2
	note E_, 4
	octave 5
	note D_, 4
	note C_, 2
	octave 4
	note B_, 2
	note A_, 8
	note G_, 2
	note F#, 2
	note E_, 16
	rest 4
	note G_, 2
	note F#, 2
	note E_, 4
	note B_, 4
	note A_, 2
	note G_, 2
	note A_, 8
	note G_, 2
	note F#, 2
	note E_, 16
	rest 4
	note G_, 2
	note F#, 2
	note E_, 4
	octave 5
	note D_, 4
	note C_, 2
	octave 4
	note B_, 2
	note A_, 8
	note_type 12, 12, 8
	rest 4
	sound_jump .mainloop

Music_FaintCourage_Ch3:
	note_type 12, 1, 12
	octave 3
	vibrato 0, 1, 1
.mainloop:
	volume_envelope 1, 12
	vibrato 0, 3, 2
	octave 3
	note E_, 1
	rest 1
	note G_, 1
	rest 1
	note B_, 1
	rest 1
	octave 4
	note E_, 1
	rest 1
	note G_, 1
	rest 1
	note B_, 1
	rest 1
	octave 2
	note B_, 1
	rest 1
	octave 3
	note D_, 1
	rest 1
	note A_, 1
	rest 1
	octave 4
	note D_, 1
	rest 5
	octave 3
	note C_, 1
	rest 1
	note E_, 1
	rest 1
	note G_, 1
	rest 1
	note B_, 1
	rest 1
	octave 4
	note D_, 1
	rest 1
	octave 3
	note G_, 1
	rest 1
	octave 2
	note B_, 1
	rest 1
	octave 3
	note D_, 1
	rest 1
	note A_, 1
	rest 1
	octave 4
	note D_, 1
	rest 5
	octave 3
	note E_, 1
	rest 1
	note G_, 1
	rest 1
	note B_, 1
	rest 1
	octave 4
	note E_, 1
	rest 1
	note G_, 1
	rest 1
	note B_, 1
	rest 1
	octave 2
	note B_, 1
	rest 1
	octave 3
	note D_, 1
	rest 1
	note A_, 1
	rest 1
	octave 4
	note D_, 1
	rest 5
	octave 3
	note C_, 1
	rest 1
	note E_, 1
	rest 1
	note G_, 1
	rest 1
	note B_, 1
	rest 1
	octave 4
	note D_, 1
	rest 1
	octave 3
	note G_, 1
	rest 1
	octave 2
	note B_, 1
	rest 1
	octave 3
	note D_, 1
	rest 1
	note A_, 1
	rest 1
	octave 4
	note D_, 1
	rest 5
	octave 3
	note E_, 1
	rest 1
	note G_, 1
	rest 1
	note B_, 1
	rest 1
	octave 4
	note E_, 1
	rest 1
	note G_, 1
	rest 1
	note B_, 1
	rest 1
	octave 2
	note B_, 1
	rest 1
	octave 3
	note D_, 1
	rest 1
	note A_, 1
	rest 1
	octave 4
	note D_, 1
	rest 5
	octave 3
	note C_, 1
	rest 1
	note E_, 1
	rest 1
	note G_, 1
	rest 1
	note B_, 1
	rest 1
	octave 4
	note D_, 1
	rest 1
	octave 3
	note G_, 1
	rest 1
	octave 2
	note B_, 1
	rest 1
	octave 3
	note D_, 1
	rest 1
	note A_, 1
	rest 1
	octave 4
	note D_, 1
	rest 5
	octave 3
	note E_, 1
	rest 1
	note G_, 1
	rest 1
	note B_, 1
	rest 1
	octave 4
	note E_, 1
	rest 1
	note G_, 1
	rest 1
	note B_, 1
	rest 1
	octave 2
	note B_, 1
	rest 1
	octave 3
	note D_, 1
	rest 1
	note A_, 1
	rest 1
	octave 4
	note D_, 1
	rest 5
	octave 3
	note C_, 1
	rest 1
	note E_, 1
	rest 1
	note G_, 1
	rest 1
	note B_, 1
	rest 1
	octave 4
	note D_, 1
	rest 15
	note C_, 12
	note D_, 12
	note E_, 12
	note D_, 12
	note C_, 12
	note D_, 12
	note E_, 12
	note D_, 12
	note C_, 12
	note D_, 12
	note E_, 12
	note D_, 12
	note C_, 12
	note D_, 12
	note E_, 12
	note_type 12, 3, 0
	rest 12
	sound_jump .mainloop

Music_FaintCourage_Ch4:
	toggle_noise 1
	drum_speed 12
.mainloop:
	toggle_noise
	toggle_noise 3
	drum_note 5, 2
	drum_note 12, 2
	drum_note 10, 2
	drum_note 12, 2
	drum_note 5, 2
	drum_note 8, 2
	drum_note 7, 2
	drum_note 12, 2
	drum_note 10, 2
	drum_note 12, 6
	drum_note 8, 2
	drum_note 5, 2
	drum_note 1, 2
	drum_note 3, 2
	drum_note 5, 2
	drum_note 1, 2
	drum_note 3, 2
	drum_note 12, 2
	drum_note 10, 2
	drum_note 12, 6
	drum_note 5, 2
	drum_note 12, 2
	drum_note 10, 2
	drum_note 12, 2
	drum_note 5, 2
	drum_note 8, 2
	drum_note 7, 2
	drum_note 12, 2
	drum_note 10, 2
	drum_note 12, 6
	drum_note 8, 2
	drum_note 5, 2
	drum_note 1, 2
	drum_note 3, 2
	drum_note 5, 2
	drum_note 1, 2
	drum_note 3, 2
	drum_note 12, 2
	drum_note 10, 2
	drum_note 12, 6
	drum_note 5, 2
	drum_note 12, 2
	drum_note 10, 2
	drum_note 12, 2
	drum_note 5, 2
	drum_note 8, 2
	drum_note 7, 2
	drum_note 12, 2
	drum_note 10, 2
	drum_note 12, 6
	drum_note 8, 2
	drum_note 5, 2
	drum_note 12, 2
	drum_note 5, 2
	drum_note 7, 2
	drum_note 12, 2
	drum_note 3, 2
	drum_note 12, 2
	drum_note 10, 2
	drum_note 12, 6
	drum_note 5, 2
	drum_note 12, 2
	drum_note 10, 2
	drum_note 12, 2
	drum_note 5, 2
	drum_note 8, 2
	drum_note 7, 2
	drum_note 12, 2
	drum_note 10, 2
	drum_note 12, 6
	drum_note 8, 2
	drum_note 5, 2
	drum_note 12, 2
	drum_note 5, 2
	drum_note 7, 2
	drum_note 12, 2
	drum_note 3, 12
	drum_note 12, 16
	drum_note 12, 4
	drum_note 5, 2
	drum_note 3, 2
	drum_note 12, 4
	drum_note 8, 4
	drum_note 7, 2
	drum_note 5, 2
	drum_note 7, 8
	drum_note 5, 2
	drum_note 3, 2
	drum_note 12, 16
	drum_note 12, 4
	drum_note 5, 2
	drum_note 3, 2
	drum_note 12, 4
	drum_note 12, 4
	drum_note 10, 2
	drum_note 8, 2
	drum_note 7, 8
	drum_note 5, 2
	drum_note 3, 2
	drum_note 12, 16
	drum_note 12, 4
	drum_note 5, 2
	drum_note 3, 2
	drum_note 12, 4
	drum_note 8, 4
	drum_note 7, 2
	drum_note 5, 2
	drum_note 7, 8
	drum_note 5, 2
	drum_note 3, 2
	drum_note 12, 16
	drum_note 12, 4
	drum_note 5, 2
	drum_note 3, 2
	drum_note 12, 4
	drum_note 12, 4
	drum_note 10, 2
	drum_note 8, 2
	drum_note 7, 8
	drum_speed 12
	rest 4
	sound_jump .mainloop
